<mxfile host="app.diagrams.net" agent="Mozilla/5.0 (Windows NT 10.0; Win64; x64) AppleWebKit/537.36 (KHTML, like Gecko) Chrome/132.0.0.0 YaBrowser/25.2.0.0 Safari/537.36" version="26.1.1">
  <diagram id="C5RBs43oDa-KdzZeNtuy" name="Page-1">
    <mxGraphModel dx="2080" dy="1878" grid="1" gridSize="10" guides="1" tooltips="1" connect="1" arrows="1" fold="1" page="1" pageScale="1" pageWidth="827" pageHeight="1169" math="0" shadow="0">
      <root>
        <mxCell id="WIyWlLk6GJQsqaUBKTNV-0" />
        <mxCell id="WIyWlLk6GJQsqaUBKTNV-1" parent="WIyWlLk6GJQsqaUBKTNV-0" />
        <mxCell id="MTQ2oMQldPP5no0jG_QR-0" style="rounded=0;orthogonalLoop=1;jettySize=auto;html=1;endArrow=block;endFill=0;endSize=12.992099999999999;edgeStyle=orthogonalEdgeStyle;dashed=1;" parent="WIyWlLk6GJQsqaUBKTNV-1" source="MTQ2oMQldPP5no0jG_QR-7" target="kVbHLeKUGpBIgifRPEEt-2" edge="1">
          <mxGeometry relative="1" as="geometry">
            <Array as="points">
              <mxPoint y="230" />
              <mxPoint x="-130" y="230" />
              <mxPoint x="-130" y="152" />
            </Array>
          </mxGeometry>
        </mxCell>
        <mxCell id="MTQ2oMQldPP5no0jG_QR-1" style="edgeStyle=orthogonalEdgeStyle;rounded=0;orthogonalLoop=1;jettySize=auto;html=1;endArrow=none;endFill=0;" parent="WIyWlLk6GJQsqaUBKTNV-1" source="MTQ2oMQldPP5no0jG_QR-7" target="MTQ2oMQldPP5no0jG_QR-42" edge="1">
          <mxGeometry relative="1" as="geometry">
            <Array as="points">
              <mxPoint x="60" y="440" />
              <mxPoint x="60" y="440" />
            </Array>
          </mxGeometry>
        </mxCell>
        <mxCell id="MTQ2oMQldPP5no0jG_QR-2" value="1" style="edgeLabel;html=1;align=center;verticalAlign=middle;resizable=0;points=[];fontSize=14;" parent="MTQ2oMQldPP5no0jG_QR-1" vertex="1" connectable="0">
          <mxGeometry x="0.2955" relative="1" as="geometry">
            <mxPoint x="10" y="-41" as="offset" />
          </mxGeometry>
        </mxCell>
        <mxCell id="MTQ2oMQldPP5no0jG_QR-3" value="1" style="edgeLabel;html=1;align=center;verticalAlign=middle;resizable=0;points=[];fontSize=14;fontStyle=0" parent="MTQ2oMQldPP5no0jG_QR-1" vertex="1" connectable="0">
          <mxGeometry x="0.7134" y="2" relative="1" as="geometry">
            <mxPoint x="8" as="offset" />
          </mxGeometry>
        </mxCell>
        <mxCell id="MTQ2oMQldPP5no0jG_QR-4" style="rounded=0;orthogonalLoop=1;jettySize=auto;html=1;endArrow=none;endFill=0;edgeStyle=orthogonalEdgeStyle;" parent="WIyWlLk6GJQsqaUBKTNV-1" source="MTQ2oMQldPP5no0jG_QR-7" target="MTQ2oMQldPP5no0jG_QR-51" edge="1">
          <mxGeometry relative="1" as="geometry">
            <Array as="points">
              <mxPoint x="-140" y="370" />
            </Array>
          </mxGeometry>
        </mxCell>
        <mxCell id="MTQ2oMQldPP5no0jG_QR-5" value="1" style="edgeLabel;html=1;align=center;verticalAlign=middle;resizable=0;points=[];fontSize=14;fontStyle=0" parent="MTQ2oMQldPP5no0jG_QR-4" vertex="1" connectable="0">
          <mxGeometry x="0.3067" y="2" relative="1" as="geometry">
            <mxPoint x="8" y="28" as="offset" />
          </mxGeometry>
        </mxCell>
        <mxCell id="MTQ2oMQldPP5no0jG_QR-6" value="1" style="edgeLabel;html=1;align=center;verticalAlign=middle;resizable=0;points=[];rotation=0;fontSize=14;" parent="MTQ2oMQldPP5no0jG_QR-4" vertex="1" connectable="0">
          <mxGeometry x="0.1067" y="-2" relative="1" as="geometry">
            <mxPoint x="33" y="-17" as="offset" />
          </mxGeometry>
        </mxCell>
        <mxCell id="MTQ2oMQldPP5no0jG_QR-7" value="Client" style="swimlane;fontStyle=0;align=center;verticalAlign=top;childLayout=stackLayout;horizontal=1;startSize=26;horizontalStack=0;resizeParent=1;resizeLast=0;collapsible=1;marginBottom=0;rounded=0;shadow=0;strokeWidth=1;" parent="WIyWlLk6GJQsqaUBKTNV-1" vertex="1">
          <mxGeometry x="-90" y="200" width="190" height="250" as="geometry">
            <mxRectangle x="230" y="140" width="160" height="26" as="alternateBounds" />
          </mxGeometry>
        </mxCell>
        <mxCell id="MTQ2oMQldPP5no0jG_QR-8" value="#clientID: int" style="text;align=left;verticalAlign=top;spacingLeft=4;spacingRight=4;overflow=hidden;rotatable=0;points=[[0,0.5],[1,0.5]];portConstraint=eastwest;" parent="MTQ2oMQldPP5no0jG_QR-7" vertex="1">
          <mxGeometry y="26" width="190" height="26" as="geometry" />
        </mxCell>
        <mxCell id="MTQ2oMQldPP5no0jG_QR-105" value="-favoritesList: FavoritesList" style="text;align=left;verticalAlign=top;spacingLeft=4;spacingRight=4;overflow=hidden;rotatable=0;points=[[0,0.5],[1,0.5]];portConstraint=eastwest;" parent="MTQ2oMQldPP5no0jG_QR-7" vertex="1">
          <mxGeometry y="52" width="190" height="26" as="geometry" />
        </mxCell>
        <mxCell id="MTQ2oMQldPP5no0jG_QR-104" value="-cart: Cart" style="text;align=left;verticalAlign=top;spacingLeft=4;spacingRight=4;overflow=hidden;rotatable=0;points=[[0,0.5],[1,0.5]];portConstraint=eastwest;" parent="MTQ2oMQldPP5no0jG_QR-7" vertex="1">
          <mxGeometry y="78" width="190" height="26" as="geometry" />
        </mxCell>
        <mxCell id="MTQ2oMQldPP5no0jG_QR-110" value="-orderList: OrderList" style="text;align=left;verticalAlign=top;spacingLeft=4;spacingRight=4;overflow=hidden;rotatable=0;points=[[0,0.5],[1,0.5]];portConstraint=eastwest;" parent="MTQ2oMQldPP5no0jG_QR-7" vertex="1">
          <mxGeometry y="104" width="190" height="26" as="geometry" />
        </mxCell>
        <mxCell id="MTQ2oMQldPP5no0jG_QR-10" value="" style="line;html=1;strokeWidth=1;align=left;verticalAlign=middle;spacingTop=-1;spacingLeft=3;spacingRight=3;rotatable=0;labelPosition=right;points=[];portConstraint=eastwest;" parent="MTQ2oMQldPP5no0jG_QR-7" vertex="1">
          <mxGeometry y="130" width="190" height="8" as="geometry" />
        </mxCell>
        <mxCell id="MTQ2oMQldPP5no0jG_QR-12" value="+deleteAccount()" style="text;align=left;verticalAlign=top;spacingLeft=4;spacingRight=4;overflow=hidden;rotatable=0;points=[[0,0.5],[1,0.5]];portConstraint=eastwest;" parent="MTQ2oMQldPP5no0jG_QR-7" vertex="1">
          <mxGeometry y="138" width="190" height="28" as="geometry" />
        </mxCell>
        <mxCell id="kVbHLeKUGpBIgifRPEEt-11" value="+showFavoritesList(): FavoritesList" style="text;align=left;verticalAlign=top;spacingLeft=4;spacingRight=4;overflow=hidden;rotatable=0;points=[[0,0.5],[1,0.5]];portConstraint=eastwest;" vertex="1" parent="MTQ2oMQldPP5no0jG_QR-7">
          <mxGeometry y="166" width="190" height="28" as="geometry" />
        </mxCell>
        <mxCell id="kVbHLeKUGpBIgifRPEEt-12" value="+showCart(): Cart" style="text;align=left;verticalAlign=top;spacingLeft=4;spacingRight=4;overflow=hidden;rotatable=0;points=[[0,0.5],[1,0.5]];portConstraint=eastwest;" vertex="1" parent="MTQ2oMQldPP5no0jG_QR-7">
          <mxGeometry y="194" width="190" height="28" as="geometry" />
        </mxCell>
        <mxCell id="kVbHLeKUGpBIgifRPEEt-13" value="+showOrderList(): OrderList" style="text;align=left;verticalAlign=top;spacingLeft=4;spacingRight=4;overflow=hidden;rotatable=0;points=[[0,0.5],[1,0.5]];portConstraint=eastwest;" vertex="1" parent="MTQ2oMQldPP5no0jG_QR-7">
          <mxGeometry y="222" width="190" height="28" as="geometry" />
        </mxCell>
        <mxCell id="MTQ2oMQldPP5no0jG_QR-13" style="rounded=0;orthogonalLoop=1;jettySize=auto;html=1;endArrow=block;endFill=0;endSize=12.992099999999999;edgeStyle=orthogonalEdgeStyle;dashed=1;" parent="WIyWlLk6GJQsqaUBKTNV-1" source="MTQ2oMQldPP5no0jG_QR-16" target="kVbHLeKUGpBIgifRPEEt-2" edge="1">
          <mxGeometry relative="1" as="geometry">
            <Array as="points">
              <mxPoint x="-430" y="110" />
            </Array>
          </mxGeometry>
        </mxCell>
        <mxCell id="MTQ2oMQldPP5no0jG_QR-16" value="Administrator" style="swimlane;fontStyle=0;align=center;verticalAlign=top;childLayout=stackLayout;horizontal=1;startSize=26;horizontalStack=0;resizeParent=1;resizeLast=0;collapsible=1;marginBottom=0;rounded=0;shadow=0;strokeWidth=1;" parent="WIyWlLk6GJQsqaUBKTNV-1" vertex="1">
          <mxGeometry x="-580" y="70" width="180" height="164" as="geometry">
            <mxRectangle x="230" y="140" width="160" height="26" as="alternateBounds" />
          </mxGeometry>
        </mxCell>
        <mxCell id="MTQ2oMQldPP5no0jG_QR-17" value="#adminID: int" style="text;align=left;verticalAlign=top;spacingLeft=4;spacingRight=4;overflow=hidden;rotatable=0;points=[[0,0.5],[1,0.5]];portConstraint=eastwest;" parent="MTQ2oMQldPP5no0jG_QR-16" vertex="1">
          <mxGeometry y="26" width="180" height="26" as="geometry" />
        </mxCell>
        <mxCell id="MTQ2oMQldPP5no0jG_QR-18" value="" style="line;html=1;strokeWidth=1;align=left;verticalAlign=middle;spacingTop=-1;spacingLeft=3;spacingRight=3;rotatable=0;labelPosition=right;points=[];portConstraint=eastwest;" parent="MTQ2oMQldPP5no0jG_QR-16" vertex="1">
          <mxGeometry y="52" width="180" height="8" as="geometry" />
        </mxCell>
        <mxCell id="MTQ2oMQldPP5no0jG_QR-19" value="+deleteAccount()" style="text;align=left;verticalAlign=top;spacingLeft=4;spacingRight=4;overflow=hidden;rotatable=0;points=[[0,0.5],[1,0.5]];portConstraint=eastwest;" parent="MTQ2oMQldPP5no0jG_QR-16" vertex="1">
          <mxGeometry y="60" width="180" height="26" as="geometry" />
        </mxCell>
        <mxCell id="MTQ2oMQldPP5no0jG_QR-20" value="+addProduct()" style="text;align=left;verticalAlign=top;spacingLeft=4;spacingRight=4;overflow=hidden;rotatable=0;points=[[0,0.5],[1,0.5]];portConstraint=eastwest;" parent="MTQ2oMQldPP5no0jG_QR-16" vertex="1">
          <mxGeometry y="86" width="180" height="26" as="geometry" />
        </mxCell>
        <mxCell id="MTQ2oMQldPP5no0jG_QR-21" value="+deleteProduct()" style="text;align=left;verticalAlign=top;spacingLeft=4;spacingRight=4;overflow=hidden;rotatable=0;points=[[0,0.5],[1,0.5]];portConstraint=eastwest;" parent="MTQ2oMQldPP5no0jG_QR-16" vertex="1">
          <mxGeometry y="112" width="180" height="26" as="geometry" />
        </mxCell>
        <mxCell id="MTQ2oMQldPP5no0jG_QR-22" value="+editProduct()" style="text;align=left;verticalAlign=top;spacingLeft=4;spacingRight=4;overflow=hidden;rotatable=0;points=[[0,0.5],[1,0.5]];portConstraint=eastwest;" parent="MTQ2oMQldPP5no0jG_QR-16" vertex="1">
          <mxGeometry y="138" width="180" height="26" as="geometry" />
        </mxCell>
        <mxCell id="MTQ2oMQldPP5no0jG_QR-28" style="rounded=0;orthogonalLoop=1;jettySize=auto;html=1;endArrow=diamondThin;endFill=0;strokeWidth=1.1811;endSize=12.992099999999999;edgeStyle=orthogonalEdgeStyle;" parent="WIyWlLk6GJQsqaUBKTNV-1" source="MTQ2oMQldPP5no0jG_QR-31" target="MTQ2oMQldPP5no0jG_QR-67" edge="1">
          <mxGeometry relative="1" as="geometry">
            <Array as="points">
              <mxPoint x="-370" y="429" />
            </Array>
          </mxGeometry>
        </mxCell>
        <mxCell id="MTQ2oMQldPP5no0jG_QR-29" style="edgeStyle=orthogonalEdgeStyle;rounded=0;orthogonalLoop=1;jettySize=auto;html=1;endArrow=diamondThin;endFill=0;endSize=12.992099999999999;fontStyle=0" parent="WIyWlLk6GJQsqaUBKTNV-1" source="MTQ2oMQldPP5no0jG_QR-31" target="MTQ2oMQldPP5no0jG_QR-42" edge="1">
          <mxGeometry relative="1" as="geometry">
            <Array as="points">
              <mxPoint x="-30" y="680" />
              <mxPoint x="-30" y="680" />
            </Array>
          </mxGeometry>
        </mxCell>
        <mxCell id="MTQ2oMQldPP5no0jG_QR-30" style="rounded=0;orthogonalLoop=1;jettySize=auto;html=1;endArrow=diamondThin;endFill=0;endSize=12.992099999999999;edgeStyle=orthogonalEdgeStyle;fontStyle=0" parent="WIyWlLk6GJQsqaUBKTNV-1" source="MTQ2oMQldPP5no0jG_QR-31" target="MTQ2oMQldPP5no0jG_QR-51" edge="1">
          <mxGeometry relative="1" as="geometry">
            <Array as="points">
              <mxPoint x="-260" y="590" />
              <mxPoint x="-260" y="660" />
              <mxPoint x="-150" y="660" />
            </Array>
          </mxGeometry>
        </mxCell>
        <mxCell id="MTQ2oMQldPP5no0jG_QR-31" value="Book" style="swimlane;fontStyle=0;align=center;verticalAlign=top;childLayout=stackLayout;horizontal=1;startSize=26;horizontalStack=0;resizeParent=1;resizeLast=0;collapsible=1;marginBottom=0;rounded=0;shadow=0;strokeWidth=1;" parent="WIyWlLk6GJQsqaUBKTNV-1" vertex="1">
          <mxGeometry x="-440" y="550" width="160" height="292" as="geometry">
            <mxRectangle x="230" y="140" width="160" height="26" as="alternateBounds" />
          </mxGeometry>
        </mxCell>
        <mxCell id="MTQ2oMQldPP5no0jG_QR-32" value="#bookID: int" style="text;align=left;verticalAlign=top;spacingLeft=4;spacingRight=4;overflow=hidden;rotatable=0;points=[[0,0.5],[1,0.5]];portConstraint=eastwest;fontStyle=0" parent="MTQ2oMQldPP5no0jG_QR-31" vertex="1">
          <mxGeometry y="26" width="160" height="26" as="geometry" />
        </mxCell>
        <mxCell id="MTQ2oMQldPP5no0jG_QR-33" value="+title: String" style="text;align=left;verticalAlign=top;spacingLeft=4;spacingRight=4;overflow=hidden;rotatable=0;points=[[0,0.5],[1,0.5]];portConstraint=eastwest;rounded=0;shadow=0;html=0;fontStyle=0" parent="MTQ2oMQldPP5no0jG_QR-31" vertex="1">
          <mxGeometry y="52" width="160" height="26" as="geometry" />
        </mxCell>
        <mxCell id="MTQ2oMQldPP5no0jG_QR-34" value="+description: String" style="text;align=left;verticalAlign=top;spacingLeft=4;spacingRight=4;overflow=hidden;rotatable=0;points=[[0,0.5],[1,0.5]];portConstraint=eastwest;rounded=0;shadow=0;html=0;fontStyle=0" parent="MTQ2oMQldPP5no0jG_QR-31" vertex="1">
          <mxGeometry y="78" width="160" height="26" as="geometry" />
        </mxCell>
        <mxCell id="MTQ2oMQldPP5no0jG_QR-35" value="+author: String" style="text;align=left;verticalAlign=top;spacingLeft=4;spacingRight=4;overflow=hidden;rotatable=0;points=[[0,0.5],[1,0.5]];portConstraint=eastwest;rounded=0;shadow=0;html=0;fontStyle=0" parent="MTQ2oMQldPP5no0jG_QR-31" vertex="1">
          <mxGeometry y="104" width="160" height="26" as="geometry" />
        </mxCell>
        <mxCell id="MTQ2oMQldPP5no0jG_QR-36" value="+genre: String" style="text;align=left;verticalAlign=top;spacingLeft=4;spacingRight=4;overflow=hidden;rotatable=0;points=[[0,0.5],[1,0.5]];portConstraint=eastwest;rounded=0;shadow=0;html=0;fontStyle=0" parent="MTQ2oMQldPP5no0jG_QR-31" vertex="1">
          <mxGeometry y="130" width="160" height="26" as="geometry" />
        </mxCell>
        <mxCell id="MTQ2oMQldPP5no0jG_QR-37" value="+publicationYear: int" style="text;align=left;verticalAlign=top;spacingLeft=4;spacingRight=4;overflow=hidden;rotatable=0;points=[[0,0.5],[1,0.5]];portConstraint=eastwest;rounded=0;shadow=0;html=0;fontStyle=0" parent="MTQ2oMQldPP5no0jG_QR-31" vertex="1">
          <mxGeometry y="156" width="160" height="26" as="geometry" />
        </mxCell>
        <mxCell id="MTQ2oMQldPP5no0jG_QR-38" value="+publisher: String" style="text;align=left;verticalAlign=top;spacingLeft=4;spacingRight=4;overflow=hidden;rotatable=0;points=[[0,0.5],[1,0.5]];portConstraint=eastwest;rounded=0;shadow=0;html=0;fontStyle=0" parent="MTQ2oMQldPP5no0jG_QR-31" vertex="1">
          <mxGeometry y="182" width="160" height="24" as="geometry" />
        </mxCell>
        <mxCell id="MTQ2oMQldPP5no0jG_QR-39" value="+cost: double" style="text;align=left;verticalAlign=top;spacingLeft=4;spacingRight=4;overflow=hidden;rotatable=0;points=[[0,0.5],[1,0.5]];portConstraint=eastwest;rounded=0;shadow=0;html=0;fontStyle=0" parent="MTQ2oMQldPP5no0jG_QR-31" vertex="1">
          <mxGeometry y="206" width="160" height="26" as="geometry" />
        </mxCell>
        <mxCell id="MTQ2oMQldPP5no0jG_QR-108" value="+adminID: int" style="text;align=left;verticalAlign=top;spacingLeft=4;spacingRight=4;overflow=hidden;rotatable=0;points=[[0,0.5],[1,0.5]];portConstraint=eastwest;rounded=0;shadow=0;html=0;fontStyle=0" parent="MTQ2oMQldPP5no0jG_QR-31" vertex="1">
          <mxGeometry y="232" width="160" height="26" as="geometry" />
        </mxCell>
        <mxCell id="MTQ2oMQldPP5no0jG_QR-109" value="+addedTime: DateTime" style="text;align=left;verticalAlign=top;spacingLeft=4;spacingRight=4;overflow=hidden;rotatable=0;points=[[0,0.5],[1,0.5]];portConstraint=eastwest;rounded=0;shadow=0;html=0;fontStyle=0" parent="MTQ2oMQldPP5no0jG_QR-31" vertex="1">
          <mxGeometry y="258" width="160" height="26" as="geometry" />
        </mxCell>
        <mxCell id="MTQ2oMQldPP5no0jG_QR-40" value="" style="line;html=1;strokeWidth=1;align=left;verticalAlign=middle;spacingTop=-1;spacingLeft=3;spacingRight=3;rotatable=0;labelPosition=right;points=[];portConstraint=eastwest;fontStyle=0" parent="MTQ2oMQldPP5no0jG_QR-31" vertex="1">
          <mxGeometry y="284" width="160" height="8" as="geometry" />
        </mxCell>
        <mxCell id="MTQ2oMQldPP5no0jG_QR-41" style="edgeStyle=orthogonalEdgeStyle;rounded=0;orthogonalLoop=1;jettySize=auto;html=1;dashed=1;endArrow=open;endFill=0;endSize=12.992099999999999;" parent="WIyWlLk6GJQsqaUBKTNV-1" source="MTQ2oMQldPP5no0jG_QR-80" target="MTQ2oMQldPP5no0jG_QR-42" edge="1">
          <mxGeometry relative="1" as="geometry">
            <Array as="points">
              <mxPoint x="190" y="476" />
              <mxPoint x="95" y="476" />
            </Array>
          </mxGeometry>
        </mxCell>
        <mxCell id="MTQ2oMQldPP5no0jG_QR-42" value="Cart" style="swimlane;fontStyle=0;align=center;verticalAlign=top;childLayout=stackLayout;horizontal=1;startSize=26;horizontalStack=0;resizeParent=1;resizeLast=0;collapsible=1;marginBottom=0;rounded=0;shadow=0;strokeWidth=1;" parent="WIyWlLk6GJQsqaUBKTNV-1" vertex="1">
          <mxGeometry x="-10" y="502" width="210" height="242" as="geometry">
            <mxRectangle x="230" y="140" width="160" height="26" as="alternateBounds" />
          </mxGeometry>
        </mxCell>
        <mxCell id="MTQ2oMQldPP5no0jG_QR-43" value="#clientID: int" style="text;align=left;verticalAlign=top;spacingLeft=4;spacingRight=4;overflow=hidden;rotatable=0;points=[[0,0.5],[1,0.5]];portConstraint=eastwest;fontStyle=0" parent="MTQ2oMQldPP5no0jG_QR-42" vertex="1">
          <mxGeometry y="26" width="210" height="26" as="geometry" />
        </mxCell>
        <mxCell id="MTQ2oMQldPP5no0jG_QR-44" value="-productList: Book[]" style="text;align=left;verticalAlign=top;spacingLeft=4;spacingRight=4;overflow=hidden;rotatable=0;points=[[0,0.5],[1,0.5]];portConstraint=eastwest;rounded=0;shadow=0;html=0;fontStyle=0" parent="MTQ2oMQldPP5no0jG_QR-42" vertex="1">
          <mxGeometry y="52" width="210" height="26" as="geometry" />
        </mxCell>
        <mxCell id="MTQ2oMQldPP5no0jG_QR-45" value="-totalPrice: double" style="text;align=left;verticalAlign=top;spacingLeft=4;spacingRight=4;overflow=hidden;rotatable=0;points=[[0,0.5],[1,0.5]];portConstraint=eastwest;rounded=0;shadow=0;html=0;fontStyle=0" parent="MTQ2oMQldPP5no0jG_QR-42" vertex="1">
          <mxGeometry y="78" width="210" height="26" as="geometry" />
        </mxCell>
        <mxCell id="MTQ2oMQldPP5no0jG_QR-46" value="" style="line;html=1;strokeWidth=1;align=left;verticalAlign=middle;spacingTop=-1;spacingLeft=3;spacingRight=3;rotatable=0;labelPosition=right;points=[];portConstraint=eastwest;fontStyle=0" parent="MTQ2oMQldPP5no0jG_QR-42" vertex="1">
          <mxGeometry y="104" width="210" height="8" as="geometry" />
        </mxCell>
        <mxCell id="MTQ2oMQldPP5no0jG_QR-47" value="+addProduct()" style="text;align=left;verticalAlign=top;spacingLeft=4;spacingRight=4;overflow=hidden;rotatable=0;points=[[0,0.5],[1,0.5]];portConstraint=eastwest;fontStyle=0" parent="MTQ2oMQldPP5no0jG_QR-42" vertex="1">
          <mxGeometry y="112" width="210" height="26" as="geometry" />
        </mxCell>
        <mxCell id="MTQ2oMQldPP5no0jG_QR-48" value="+deleteProduct()" style="text;align=left;verticalAlign=top;spacingLeft=4;spacingRight=4;overflow=hidden;rotatable=0;points=[[0,0.5],[1,0.5]];portConstraint=eastwest;fontStyle=0" parent="MTQ2oMQldPP5no0jG_QR-42" vertex="1">
          <mxGeometry y="138" width="210" height="26" as="geometry" />
        </mxCell>
        <mxCell id="MTQ2oMQldPP5no0jG_QR-49" value="+editProductNumber()" style="text;align=left;verticalAlign=top;spacingLeft=4;spacingRight=4;overflow=hidden;rotatable=0;points=[[0,0.5],[1,0.5]];portConstraint=eastwest;fontStyle=0" parent="MTQ2oMQldPP5no0jG_QR-42" vertex="1">
          <mxGeometry y="164" width="210" height="26" as="geometry" />
        </mxCell>
        <mxCell id="kVbHLeKUGpBIgifRPEEt-20" value="+getList(): Book[]" style="text;align=left;verticalAlign=top;spacingLeft=4;spacingRight=4;overflow=hidden;rotatable=0;points=[[0,0.5],[1,0.5]];portConstraint=eastwest;fontStyle=0" vertex="1" parent="MTQ2oMQldPP5no0jG_QR-42">
          <mxGeometry y="190" width="210" height="26" as="geometry" />
        </mxCell>
        <mxCell id="MTQ2oMQldPP5no0jG_QR-50" value="+placeOrder(): Order" style="text;align=left;verticalAlign=top;spacingLeft=4;spacingRight=4;overflow=hidden;rotatable=0;points=[[0,0.5],[1,0.5]];portConstraint=eastwest;fontStyle=0" parent="MTQ2oMQldPP5no0jG_QR-42" vertex="1">
          <mxGeometry y="216" width="210" height="26" as="geometry" />
        </mxCell>
        <mxCell id="MTQ2oMQldPP5no0jG_QR-51" value="FavoritesList" style="swimlane;fontStyle=0;align=center;verticalAlign=top;childLayout=stackLayout;horizontal=1;startSize=26;horizontalStack=0;resizeParent=1;resizeLast=0;collapsible=1;marginBottom=0;rounded=0;shadow=0;strokeWidth=1;" parent="WIyWlLk6GJQsqaUBKTNV-1" vertex="1">
          <mxGeometry x="-240" y="480" width="160" height="164" as="geometry">
            <mxRectangle x="230" y="140" width="160" height="26" as="alternateBounds" />
          </mxGeometry>
        </mxCell>
        <mxCell id="MTQ2oMQldPP5no0jG_QR-52" value="#clientID: int" style="text;align=left;verticalAlign=top;spacingLeft=4;spacingRight=4;overflow=hidden;rotatable=0;points=[[0,0.5],[1,0.5]];portConstraint=eastwest;fontStyle=0" parent="MTQ2oMQldPP5no0jG_QR-51" vertex="1">
          <mxGeometry y="26" width="160" height="26" as="geometry" />
        </mxCell>
        <mxCell id="MTQ2oMQldPP5no0jG_QR-53" value="-productList: Book[]" style="text;align=left;verticalAlign=top;spacingLeft=4;spacingRight=4;overflow=hidden;rotatable=0;points=[[0,0.5],[1,0.5]];portConstraint=eastwest;rounded=0;shadow=0;html=0;fontStyle=0" parent="MTQ2oMQldPP5no0jG_QR-51" vertex="1">
          <mxGeometry y="52" width="160" height="26" as="geometry" />
        </mxCell>
        <mxCell id="MTQ2oMQldPP5no0jG_QR-54" value="" style="line;html=1;strokeWidth=1;align=left;verticalAlign=middle;spacingTop=-1;spacingLeft=3;spacingRight=3;rotatable=0;labelPosition=right;points=[];portConstraint=eastwest;fontStyle=0" parent="MTQ2oMQldPP5no0jG_QR-51" vertex="1">
          <mxGeometry y="78" width="160" height="8" as="geometry" />
        </mxCell>
        <mxCell id="MTQ2oMQldPP5no0jG_QR-55" value="+addProduct()" style="text;align=left;verticalAlign=top;spacingLeft=4;spacingRight=4;overflow=hidden;rotatable=0;points=[[0,0.5],[1,0.5]];portConstraint=eastwest;fontStyle=0" parent="MTQ2oMQldPP5no0jG_QR-51" vertex="1">
          <mxGeometry y="86" width="160" height="26" as="geometry" />
        </mxCell>
        <mxCell id="MTQ2oMQldPP5no0jG_QR-56" value="+deleteProduct()" style="text;align=left;verticalAlign=top;spacingLeft=4;spacingRight=4;overflow=hidden;rotatable=0;points=[[0,0.5],[1,0.5]];portConstraint=eastwest;fontStyle=0" parent="MTQ2oMQldPP5no0jG_QR-51" vertex="1">
          <mxGeometry y="112" width="160" height="26" as="geometry" />
        </mxCell>
        <mxCell id="kVbHLeKUGpBIgifRPEEt-19" value="+getList(): Book[]" style="text;align=left;verticalAlign=top;spacingLeft=4;spacingRight=4;overflow=hidden;rotatable=0;points=[[0,0.5],[1,0.5]];portConstraint=eastwest;fontStyle=0" vertex="1" parent="MTQ2oMQldPP5no0jG_QR-51">
          <mxGeometry y="138" width="160" height="26" as="geometry" />
        </mxCell>
        <mxCell id="MTQ2oMQldPP5no0jG_QR-57" style="rounded=0;orthogonalLoop=1;jettySize=auto;html=1;endSize=12.992099999999999;endArrow=diamondThin;endFill=1;edgeStyle=orthogonalEdgeStyle;fontStyle=0" parent="WIyWlLk6GJQsqaUBKTNV-1" source="MTQ2oMQldPP5no0jG_QR-58" target="MTQ2oMQldPP5no0jG_QR-80" edge="1">
          <mxGeometry relative="1" as="geometry" />
        </mxCell>
        <mxCell id="MTQ2oMQldPP5no0jG_QR-58" value="Order" style="swimlane;fontStyle=0;align=center;verticalAlign=top;childLayout=stackLayout;horizontal=1;startSize=26;horizontalStack=0;resizeParent=1;resizeLast=0;collapsible=1;marginBottom=0;rounded=0;shadow=0;strokeWidth=1;" parent="WIyWlLk6GJQsqaUBKTNV-1" vertex="1">
          <mxGeometry x="210" y="498" width="160" height="348" as="geometry">
            <mxRectangle x="230" y="140" width="160" height="26" as="alternateBounds" />
          </mxGeometry>
        </mxCell>
        <mxCell id="MTQ2oMQldPP5no0jG_QR-59" value="#orderID: int" style="text;align=left;verticalAlign=top;spacingLeft=4;spacingRight=4;overflow=hidden;rotatable=0;points=[[0,0.5],[1,0.5]];portConstraint=eastwest;fontStyle=0" parent="MTQ2oMQldPP5no0jG_QR-58" vertex="1">
          <mxGeometry y="26" width="160" height="26" as="geometry" />
        </mxCell>
        <mxCell id="MTQ2oMQldPP5no0jG_QR-60" value="-productList: Book[]" style="text;align=left;verticalAlign=top;spacingLeft=4;spacingRight=4;overflow=hidden;rotatable=0;points=[[0,0.5],[1,0.5]];portConstraint=eastwest;rounded=0;shadow=0;html=0;fontStyle=0" parent="MTQ2oMQldPP5no0jG_QR-58" vertex="1">
          <mxGeometry y="52" width="160" height="26" as="geometry" />
        </mxCell>
        <mxCell id="MTQ2oMQldPP5no0jG_QR-61" value="-totalPrice: double" style="text;align=left;verticalAlign=top;spacingLeft=4;spacingRight=4;overflow=hidden;rotatable=0;points=[[0,0.5],[1,0.5]];portConstraint=eastwest;rounded=0;shadow=0;html=0;fontStyle=0" parent="MTQ2oMQldPP5no0jG_QR-58" vertex="1">
          <mxGeometry y="78" width="160" height="26" as="geometry" />
        </mxCell>
        <mxCell id="MTQ2oMQldPP5no0jG_QR-62" value="-orderDate: DateTime" style="text;align=left;verticalAlign=top;spacingLeft=4;spacingRight=4;overflow=hidden;rotatable=0;points=[[0,0.5],[1,0.5]];portConstraint=eastwest;rounded=0;shadow=0;html=0;fontStyle=0" parent="MTQ2oMQldPP5no0jG_QR-58" vertex="1">
          <mxGeometry y="104" width="160" height="26" as="geometry" />
        </mxCell>
        <mxCell id="MTQ2oMQldPP5no0jG_QR-63" value="-deliveryDate: DateTime" style="text;align=left;verticalAlign=top;spacingLeft=4;spacingRight=4;overflow=hidden;rotatable=0;points=[[0,0.5],[1,0.5]];portConstraint=eastwest;rounded=0;shadow=0;html=0;fontStyle=0" parent="MTQ2oMQldPP5no0jG_QR-58" vertex="1">
          <mxGeometry y="130" width="160" height="26" as="geometry" />
        </mxCell>
        <mxCell id="MTQ2oMQldPP5no0jG_QR-64" value="-cardNumber: int" style="text;align=left;verticalAlign=top;spacingLeft=4;spacingRight=4;overflow=hidden;rotatable=0;points=[[0,0.5],[1,0.5]];portConstraint=eastwest;rounded=0;shadow=0;html=0;fontStyle=0" parent="MTQ2oMQldPP5no0jG_QR-58" vertex="1">
          <mxGeometry y="156" width="160" height="26" as="geometry" />
        </mxCell>
        <mxCell id="MTQ2oMQldPP5no0jG_QR-65" value="-gettingWay: String" style="text;align=left;verticalAlign=top;spacingLeft=4;spacingRight=4;overflow=hidden;rotatable=0;points=[[0,0.5],[1,0.5]];portConstraint=eastwest;rounded=0;shadow=0;html=0;fontStyle=0" parent="MTQ2oMQldPP5no0jG_QR-58" vertex="1">
          <mxGeometry y="182" width="160" height="26" as="geometry" />
        </mxCell>
        <mxCell id="MTQ2oMQldPP5no0jG_QR-92" value="-deliveryPlace: String" style="text;align=left;verticalAlign=top;spacingLeft=4;spacingRight=4;overflow=hidden;rotatable=0;points=[[0,0.5],[1,0.5]];portConstraint=eastwest;rounded=0;shadow=0;html=0;fontStyle=0" parent="MTQ2oMQldPP5no0jG_QR-58" vertex="1">
          <mxGeometry y="208" width="160" height="26" as="geometry" />
        </mxCell>
        <mxCell id="MTQ2oMQldPP5no0jG_QR-93" value="-status: String" style="text;align=left;verticalAlign=top;spacingLeft=4;spacingRight=4;overflow=hidden;rotatable=0;points=[[0,0.5],[1,0.5]];portConstraint=eastwest;rounded=0;shadow=0;html=0;fontStyle=0" parent="MTQ2oMQldPP5no0jG_QR-58" vertex="1">
          <mxGeometry y="234" width="160" height="26" as="geometry" />
        </mxCell>
        <mxCell id="MTQ2oMQldPP5no0jG_QR-66" value="" style="line;html=1;strokeWidth=1;align=left;verticalAlign=middle;spacingTop=-1;spacingLeft=3;spacingRight=3;rotatable=0;labelPosition=right;points=[];portConstraint=eastwest;fontStyle=0" parent="MTQ2oMQldPP5no0jG_QR-58" vertex="1">
          <mxGeometry y="260" width="160" height="10" as="geometry" />
        </mxCell>
        <mxCell id="kVbHLeKUGpBIgifRPEEt-16" value="+getStatus(): String" style="text;align=left;verticalAlign=top;spacingLeft=4;spacingRight=4;overflow=hidden;rotatable=0;points=[[0,0.5],[1,0.5]];portConstraint=eastwest;rounded=0;shadow=0;html=0;fontStyle=0" vertex="1" parent="MTQ2oMQldPP5no0jG_QR-58">
          <mxGeometry y="270" width="160" height="26" as="geometry" />
        </mxCell>
        <mxCell id="kVbHLeKUGpBIgifRPEEt-17" value="+updateStatus()" style="text;align=left;verticalAlign=top;spacingLeft=4;spacingRight=4;overflow=hidden;rotatable=0;points=[[0,0.5],[1,0.5]];portConstraint=eastwest;rounded=0;shadow=0;html=0;fontStyle=0" vertex="1" parent="MTQ2oMQldPP5no0jG_QR-58">
          <mxGeometry y="296" width="160" height="26" as="geometry" />
        </mxCell>
        <mxCell id="kVbHLeKUGpBIgifRPEEt-18" value="+getOrderInfo()" style="text;align=left;verticalAlign=top;spacingLeft=4;spacingRight=4;overflow=hidden;rotatable=0;points=[[0,0.5],[1,0.5]];portConstraint=eastwest;rounded=0;shadow=0;html=0;fontStyle=0" vertex="1" parent="MTQ2oMQldPP5no0jG_QR-58">
          <mxGeometry y="322" width="160" height="26" as="geometry" />
        </mxCell>
        <mxCell id="MTQ2oMQldPP5no0jG_QR-67" value="ProductCatalog" style="swimlane;fontStyle=0;align=center;verticalAlign=top;childLayout=stackLayout;horizontal=1;startSize=26;horizontalStack=0;resizeParent=1;resizeLast=0;collapsible=1;marginBottom=0;rounded=0;shadow=0;strokeWidth=1;" parent="WIyWlLk6GJQsqaUBKTNV-1" vertex="1">
          <mxGeometry x="-570" y="360" width="160" height="138" as="geometry">
            <mxRectangle x="230" y="140" width="160" height="26" as="alternateBounds" />
          </mxGeometry>
        </mxCell>
        <mxCell id="MTQ2oMQldPP5no0jG_QR-68" value="+productCatalog: Book[]" style="text;align=left;verticalAlign=top;spacingLeft=4;spacingRight=4;overflow=hidden;rotatable=0;points=[[0,0.5],[1,0.5]];portConstraint=eastwest;" parent="MTQ2oMQldPP5no0jG_QR-67" vertex="1">
          <mxGeometry y="26" width="160" height="26" as="geometry" />
        </mxCell>
        <mxCell id="MTQ2oMQldPP5no0jG_QR-69" value="" style="line;html=1;strokeWidth=1;align=left;verticalAlign=middle;spacingTop=-1;spacingLeft=3;spacingRight=3;rotatable=0;labelPosition=right;points=[];portConstraint=eastwest;" parent="MTQ2oMQldPP5no0jG_QR-67" vertex="1">
          <mxGeometry y="52" width="160" height="8" as="geometry" />
        </mxCell>
        <mxCell id="kVbHLeKUGpBIgifRPEEt-14" value="+getProductDetails(): Book" style="text;align=left;verticalAlign=top;spacingLeft=4;spacingRight=4;overflow=hidden;rotatable=0;points=[[0,0.5],[1,0.5]];portConstraint=eastwest;" vertex="1" parent="MTQ2oMQldPP5no0jG_QR-67">
          <mxGeometry y="60" width="160" height="26" as="geometry" />
        </mxCell>
        <mxCell id="MTQ2oMQldPP5no0jG_QR-70" value="+findProduct(): Book[]" style="text;align=left;verticalAlign=top;spacingLeft=4;spacingRight=4;overflow=hidden;rotatable=0;points=[[0,0.5],[1,0.5]];portConstraint=eastwest;" parent="MTQ2oMQldPP5no0jG_QR-67" vertex="1">
          <mxGeometry y="86" width="160" height="26" as="geometry" />
        </mxCell>
        <mxCell id="MTQ2oMQldPP5no0jG_QR-71" value="+sortProducts(): Book[]" style="text;align=left;verticalAlign=top;spacingLeft=4;spacingRight=4;overflow=hidden;rotatable=0;points=[[0,0.5],[1,0.5]];portConstraint=eastwest;" parent="MTQ2oMQldPP5no0jG_QR-67" vertex="1">
          <mxGeometry y="112" width="160" height="26" as="geometry" />
        </mxCell>
        <mxCell id="MTQ2oMQldPP5no0jG_QR-80" value="OrderList" style="swimlane;fontStyle=0;align=center;verticalAlign=top;childLayout=stackLayout;horizontal=1;startSize=26;horizontalStack=0;resizeParent=1;resizeLast=0;collapsible=1;marginBottom=0;rounded=0;shadow=0;strokeWidth=1;" parent="WIyWlLk6GJQsqaUBKTNV-1" vertex="1">
          <mxGeometry x="140" y="310" width="190" height="140" as="geometry">
            <mxRectangle x="230" y="140" width="160" height="26" as="alternateBounds" />
          </mxGeometry>
        </mxCell>
        <mxCell id="MTQ2oMQldPP5no0jG_QR-81" value="#clientID: int" style="text;align=left;verticalAlign=top;spacingLeft=4;spacingRight=4;overflow=hidden;rotatable=0;points=[[0,0.5],[1,0.5]];portConstraint=eastwest;" parent="MTQ2oMQldPP5no0jG_QR-80" vertex="1">
          <mxGeometry y="26" width="190" height="26" as="geometry" />
        </mxCell>
        <mxCell id="MTQ2oMQldPP5no0jG_QR-82" value="+orderList: Order[]" style="text;align=left;verticalAlign=top;spacingLeft=4;spacingRight=4;overflow=hidden;rotatable=0;points=[[0,0.5],[1,0.5]];portConstraint=eastwest;rounded=0;shadow=0;html=0;" parent="MTQ2oMQldPP5no0jG_QR-80" vertex="1">
          <mxGeometry y="52" width="190" height="26" as="geometry" />
        </mxCell>
        <mxCell id="MTQ2oMQldPP5no0jG_QR-83" value="" style="line;html=1;strokeWidth=1;align=left;verticalAlign=middle;spacingTop=-1;spacingLeft=3;spacingRight=3;rotatable=0;labelPosition=right;points=[];portConstraint=eastwest;" parent="MTQ2oMQldPP5no0jG_QR-80" vertex="1">
          <mxGeometry y="78" width="190" height="8" as="geometry" />
        </mxCell>
        <mxCell id="MTQ2oMQldPP5no0jG_QR-84" value="+deleteOrder()" style="text;align=left;verticalAlign=top;spacingLeft=4;spacingRight=4;overflow=hidden;rotatable=0;points=[[0,0.5],[1,0.5]];portConstraint=eastwest;" parent="MTQ2oMQldPP5no0jG_QR-80" vertex="1">
          <mxGeometry y="86" width="190" height="26" as="geometry" />
        </mxCell>
        <mxCell id="MTQ2oMQldPP5no0jG_QR-85" value="+showOrderHistory(): Order[]" style="text;align=left;verticalAlign=top;spacingLeft=4;spacingRight=4;overflow=hidden;rotatable=0;points=[[0,0.5],[1,0.5]];portConstraint=eastwest;" parent="MTQ2oMQldPP5no0jG_QR-80" vertex="1">
          <mxGeometry y="112" width="190" height="26" as="geometry" />
        </mxCell>
        <mxCell id="MTQ2oMQldPP5no0jG_QR-86" style="edgeStyle=orthogonalEdgeStyle;rounded=0;orthogonalLoop=1;jettySize=auto;html=1;entryX=0.35;entryY=0.003;entryDx=0;entryDy=0;entryPerimeter=0;endArrow=none;endFill=0;" parent="WIyWlLk6GJQsqaUBKTNV-1" source="MTQ2oMQldPP5no0jG_QR-7" target="MTQ2oMQldPP5no0jG_QR-80" edge="1">
          <mxGeometry relative="1" as="geometry">
            <Array as="points">
              <mxPoint x="207" y="290" />
            </Array>
          </mxGeometry>
        </mxCell>
        <mxCell id="MTQ2oMQldPP5no0jG_QR-87" value="1" style="edgeLabel;html=1;align=center;verticalAlign=middle;resizable=0;points=[];fontSize=14;" parent="MTQ2oMQldPP5no0jG_QR-86" vertex="1" connectable="0">
          <mxGeometry x="-0.1516" relative="1" as="geometry">
            <mxPoint x="-38" y="-10" as="offset" />
          </mxGeometry>
        </mxCell>
        <mxCell id="MTQ2oMQldPP5no0jG_QR-88" value="1" style="edgeLabel;html=1;align=center;verticalAlign=middle;resizable=0;points=[];fontSize=14;" parent="MTQ2oMQldPP5no0jG_QR-86" vertex="1" connectable="0">
          <mxGeometry x="0.0377" relative="1" as="geometry">
            <mxPoint x="52" y="4" as="offset" />
          </mxGeometry>
        </mxCell>
        <mxCell id="VEhNe5wClrEpjwATiRZx-0" value="" style="shape=image;verticalLabelPosition=bottom;labelBackgroundColor=default;verticalAlign=top;aspect=fixed;imageAspect=0;image=data:image/png,iVBORw0KGgoAAAANSUhEUgAAAzAAAAE3CAYAAAB1kqSKAAAAAXNSR0IArs4c6QAAAARnQU1BAACxjwv8YQUAAAAJcEhZcwAAEnQAABJ0Ad5mH3gAAP+lSURBVHhe7N0HfE3nGwfw353ZkpiJNIQMsYm9956RmDFCzJg1gtqrSo2atVoUoWYpoqooaqvaFLFHYwSZN7n3Pv/33nsyRdworfz7fD+fkHvOe99z3nHf8z73jMhIAGOMMcYYY4xlA3Lpf8YYY4wxxhj76HEAwxhjjDHGGMs2OIBhjDHGGGOMZRscwDDGGGOMMcayjQ92E79MJpN+Y4wxxhhjjLGMZTUc4TMwjDHGGGOMsWzjg5+B+UDZM/a3cR9ljDHGGPv3vOtcjM/AMMYYY4wxxrINDmAYY4wxxhhj2cZHdwmZLjwMX2/8A1FvfZsMtqXbIripOxTSEsaygi8hY+w/TnsNu77egQvRWiSPAjIlbIo1R9+WRaHW3cSepdvwx6tEMU4krVfA2rsZBrcuLi1gjDH2rt51LvbRBTDx2zrDtcc51OjaBhVcbKGkCPyyYC5++ssdfp/1RCVbPRJe3MLhTaE4VWElHqzzg6X0XsayggMYxhgSnuDMwm5oNCIMkfYNMfPntRhYLg/U0mpon+P8siA0GvgDIuzqYMqe9RhWOR8spNWMMcbe3bvOxT66S8i0sdZosvBnbJ43CaNDRmDEsABUzC12U+6CWr2HYcSIkRgzbQl2H1yIxjbx0EnvY4wxxrJMnQdlmlRDYQWgKFwdjUunCl4MlDlRvEl1eBrWF6iKhuU5eGGMsX/bRxfA6PI1QZdmTm/dMXn+FujaxAla6TVjjDH2TlRKKA3/K5VQmL4MTEMmlisNy5UKqEyLGGOM/Ys+/scoa//A+PIVMeVKdcwP34eBLmlDG21MJF7GaqGXXstVdnBwUCIu8iXitNJSfTzi9ZawNB6h3kQOhZUdctqm+e4tE3poomMBa1tYpNqltPsjh1whh9omB+ws3nynjjb2JV7FaaHTS/srV8PO0R6qhFjoVHLEvYiBVm4BO3tbqJO3pUWMKGNsUhnFtlR2DnBQxiHyZRySFssVVsiV09b0Iok2RqSJNaYxrLcT69OXWhf7Ai9iEkU55FBa28PRJn3l6RAfrYHS1tp04E9Fq9FAZmFhujcpIQrPo+JF2YyrxAZVsHFwgLVhpT4B8YlKWBorUIfYFy8Qk5iUMB1jndhA9zJVmeUKWNnlhKnJNIh69kq0s1istIa9SJtpcwt8CRljzEB3YwZqFBuF0z6f4/xvo+GdbrjW35uH+h5DcKT4eJw6OQmlXxtctIiNigGs7GGdbp0uPuvjeA5EIzIqIeW4lnoc18bCtKl0Y68mCs9exae8xzAOWuvxMvUyhaUY7+3SjfcZj+UZHltzANGRUUhIWpj+2CrGdzsxvivjxHvFMc2ULP2x9c3HDsbYf8//zSVkWaPH0wu7sahPFbjky4fCDUOw6uB1ROsi8HvoMNQvlA/5nH3QdfoyrJjdG1Vc8sG5bBsMHTcO46SfkHbl4JzPGT7d5mLHuSdSvplIuI1dk7ujXaeeCA7ugMpu7qgdvBoXxQHFsD/PL+3BYuP+OKNsm8EYObQP/CoVRD7Puhi0/pqYZkv0ETj4RXuUL+CM4k17Yejgdqjilg9OHo0Q8u1B3IxNwOmJlcVBywuNgsdjyugAVCrkhXqDQnEl3vD+p7iwexH6VHFBvnyF0TBkFQ5ej4Yu4neEDquPQqI+nH26Ye6Oc6btpaJ/egG7F/Ux1kcepyqYeCpBWiPR38MK/4LIk88FVfoswu4LT6UVQuxVbBzVGW3a+MOvcWk45SmKZqN/wC1jFnrc+aY1XOxskbt0X2y+p4fuwW/4dngTeDnlRT6XigicvQtXosRB9fBk1CtgD5ucpTH6iHiz/iUu/fglupYvgCoBn5naZ0wv1HV3gpNnE4z+7ghuxT7BiWU9UcU1H/LmcxNl3oAzj6WLCBPu4NDcAJQqUBk9l59CRNIBljHGPpSEcGwb1RxVa/mj78Ag1PfKj6LNxmPPo6QByIxxfNcC9KosjeMjvsWBP6MQG34Y333WVIyb+ZC/Qnd8tf0PsaltGNW8Kmr598XAoPrwyi/G3vF7kLQpze1D+GZIHRQUY3+BmgOxbN9VPLl1BOsm+aKoGH+dy3bGrK2/41HSdddvGcufXtiFBb0qS8fWEfj2wJ+Iig3H4e8+Q1MvJ+TLXwGBXyzFcunYmq9wQ4SsOojr0TpE/B6KYfULiTKlOrZmuj3GGMsiwxmYD8GQ9XvJPvEsjSutIqjr0Pz7OmlhWvEHBlJhhYoqTrtMWmkZaS/S5PIqkucPol3x4nX8ARpYWEGq6l/SzeREOnq4sB6p5fkpyJjoLbR3KDTAk0r020NPjbuipfBZNUgtU1GJ0ceNSQzi9/WjAmJ/qn9507Q/2nBaUN+O5Db1aMEtUxle/NCNnBVyytculB4bFsX/QsFuClLXnE2mJBo6PqoaNZ53hRINL8W+Pl7lS45yK6o5+7pxiXgTHRhYmBSqijTtcnKhRNEnU3mVnPIH7RIp3kDUx6DSuchBqSBXkS5KWmyQePFzauDkQHKFG/XfnyoH7S1a3b4qBay5KeUbR+dn1KIcYp/KfHbUuOTFoS+oU5seNHyEPzUYGGbKN2oDtXWQkcpnIp03FEa0zfTm9an3qP7UwW8QhSY3iGiPRS2ow9oY08v4PdT7E1EndebR3eSmj6HjY8qQhdyBfL97Ki0zifqhO5XssJ7SLn2z99ZHGWPZmvb6F1RFBVJ696Bl23fQjh1pf7av7kelxXpV2fH0h2lAFrR0eWZ1slHXorl3TANU/LEQKqZUUtERx8QIbpCVcbwSTbuSMo7r7nxFtdUK0ziuvUwzq9uQutZcMm0qno6FFCOlsiiNOGbakkHi6TFUUmU4Hp2UtifyebyY6qvl5NBxsxixJWaM5QZJx9ZK066kHFt1d+ir2mpSpD+2VpxGKYchLV2cXJ5UScdWM7fHGPvvede5WDY/A2MiU6mM1yer1Um3Vsbi3PxxWH1DB5lSbbrhUqaCyngRcwZkSiS/NRPRe6dg5Ja86DqsPnIZa06BAm36I7hFA1TzdjSmMTDsjyr1phTOKFTAFkj4C4+eGr4u0+Plrdt4plPApWhxKS+J2F/TiXY5cpQIwsggb+k0uxw2OWyhgg5xsUnncWRQqZTiX/Ge5KKfw/xxq3FDJxNZZVIoUR+WBVqhY11bPNy6HFv+SvrGMB7H1lyAR3MvKGQi31QF0RyajSlHneDjcA37w8IQFnYAd3N7wEUehwvrQ41p7GuMxLot3+DLLxaia+wGbHwg8lXlRE47OWQOuYxljT2yEidLT8OC6QuxfvM8dDTcPWskh71DXthYpuuWKqkNjaxRYdAItMwVhb3ffifKKS3GM+xYfw7VAlsgl7SEMcayguIe4/rFi7iY7ufStUeIMRxi09Ah6uUrUB53eEiDuEXJkiii1uPRvfvS/ZlZGcdV4hgmLTIQywwjo3Ec10Xh5StCHncP6XhhgZIli0Ctf4R791PdCSreY7hHRyXGzCRytel4pBb/JzFnLDdIOraq0u6Y4VYg47HKOC4nHVtFmpTD0HyMW30DOunYau72GGPMXOlmiv8P9Hi4bRQ+f9IeQT7v8wpbDU6H7cdjaze4u6RcIK0o1B5zt+/Ckq5e0pK0KPYxzm4YiUlbX6GQ7xB0LWPYJzlcfIPQ6hOIwXsett/J6By6EkUDuqO2jfhVH4+Ic6EYMXUvHFpOw1cD3vD3B/QPsW3U53jSPghmFV2WB769feH06iesWCMONoZlL3ZjfURNdHBPdxG4OBxfPnAY95TiIBgTjeho00+sXSNMCt2IDXMCpHQSeT606emGH0cuwJF7cSBjHKRF5MWN+GxWJPz6lH/tvhtD2z2LBBwNT53LhDyvH4Z2L4KEI4vw1a/Ga/egv7MBa283Qvc6hgpjjLGskztVR4+RozF6dNqfkX1rw/W1YUmNilPPIDJ8OZrjFg6sGIfePZfiTCJBm5gopXmHcTwj6oqYeiYS4cubA7cOYMW43ui59AwSSYvkTRnIZCIQImg0Kfe9QKszje3JsjiWZ5H+4TaM+vwJ2gf5SEHbh90eY+y/6f8sgCFEn5yJYbt8MG1iTeRIOXnwHujw9Mlz6OJeINI0Z34LPf7cMAyduwZh0IR1uJ6rBlo1LIGcUo0rCnbB2qM/YWbpI+hc0hOVWk3GPuPZmfT0+OunWRg+eg726yuiWcOKcEt3T74RRePkzGHY5TMNE2vmEAcx89g06oMALy1OrPwGpxL0uLdpJ9C8LZxey0CUP+K5OAbbokirtmjbNu2Pf+vKUrokMbh2+ir+3D0FA4cvw/EXBN2NHzBp8Eis+uMmzp17nHKATZaIP2/oULDw26IvC1TsPwj1bG5j3ex1uKvX4srajYhv0w3lXo+KGGPsw9A/x+mlvVG/xRgcsvfH9GXBqJByujgVM8Zx/XVsGNoZHTt2NP4E9P8OV1JFHvrnp7G0d320GHMI9v7TsSy4Qqoz0yZKl+IolleGayv6okPP/ujTMwhBwzfgWpoIJqtjuR7XNwxFZ2m/Ogb0x3epdywVij6JmcN2wWfaRNRMPgBndXuMMfZ2/1cBjO7RVoTMScCA2YHweJ8nX4wUyJXbETLNCez56Um6yXcsTvywS/o9iRxeHWZj3eZdOHzlT2z3f4KvDQef6X9IlxYA6jw5EH3/ERJtyqHf/LGon+GZBznyNRmL73afxNEvPsGuQfVRI1gEGWno8GhrCOYkDMDsQA/pWy8zqSsgqEdlKK+tw3KxjbUH86BDU4cMOoYCDjlzABH78MP+l9KyJHpEXr4k/W6iOTUTPUdswsOKU7A19FNUc5BB4dkW83Z8i67Wv2FOn+HYlHzZmkR7HSci8qFsvrd3S3mBAAztWABRP8/Hot9+w6rtDujY2dP05DPGGPvgovHrqAZoPCMefdavxYS2pZHrjQOQGeO43BMd5qzF+vXrjT/rFnVF0aT8on/FqAaNMSO+D9avnYC2pXNlPNbl9MeqS3/i+JZZGNyrH0bPXIzlXwWgWJrEWRvLDfvu2WEO1kr7tX7dInRN3rFUdI+wNWQOEgbMRmCaA3BWt8cYY2+XDQKYlAuPKaMTFMm0OLfzMurOGINq9tKi98oCPnWrIy+eYfuk0djxMOkbKL0Ylydj7plMNirPiartm8BTEY2z+4/gibEc0Tg6pTemn8qBtnMXoGvBtzWFHLlq1Ud5Ox3u7A2Tlkm057Dzcl3MGFMNWS+6Ah5deqGx/WNsGtkXp0p0QVVLaVUaShSvVR3OuIvvhgzAuj8Nj9Ax0T3YgfFzfpFeCXqRZtIC/KErhj4TuqOQgpD8dDybWhg5qikcHm/GlNnHkZKLyOfajzifr+HrZ1Feu/bcwBZ1B/dDFdVVLAvqjT3eXeCfPxt0Z8bYx0cvxijD/296jKdYbhy2xerkFJojWBd6CRqvCqicRxp7RDrDer3IL2OZjOOZ0BxZh9BLGnhVqIyUTRm3ZNj1NOT2bihfqx5qVSoBt5wWGRzkszCWZ4H23E5crjsDY147AH+Y7THG/ts+/hmfLhLPXopDB73E88iMIxiKikIMKeHdcSj8CkrfDNErRMWIg0liAuINAzxFGV9Do0k1aSa8iooRB4JEJBgTZc6+xWiMaZAb+uvfop1PRbToEohOTcvBJ/gB2vSrKqUShxSRZ2yaXY3H5Z8OIlyrgnu5ssbLyCJ/GYNesy8gb+cF+KqdC+Ri/6KN+6uBxrArCZfw/cyF2PVntCkL6PBw13YcfQXkqpC0LUKUYf+V3ug41A8pRTfUByExIT7lYJue2N6ryHgkiATyfG3Qx/8TxD12RsPOxcThhvAyOkakEftiSCCxrh+CCS2cob+xDl0rlESdtt3RvVNj+FSdCsvO3aRUomw/TcMXP71Entaj8WklEQ0lPMWzKL3Yrxd4QXK4BIxFv1IyXFk2Dkv/lAJB/WNsn/87SgXWRHL8RFpotaJOYkXbZVAQhXcQhrTJi6hwLWoFNkXKYxQYY8x8uueReCnGGIoR42IGV0fpnzxDpHG9OK4kje2K3MjjKEfisSUYsyQMB39cjJDgZTinBRKv78fymTOx6ep588dxJCAh1e2Qqcdxee48cJQn4tiSMVgSdhA/Lg5B8LJz0CIR1/cvx8yZmxCe8VVd4ngUjTiRT4Im5e/KmDuWm46tYghPu2MZHluV3h0x1K+gdGYo7bHV3O0xxpjZTA8je/8MWf+97DV0afs8mhRUmXLLRV4yFbnWH0JfLP+Fbqd6VOP9A4tpSF0XUkBGFl5+NH3PbUp8dZZCx7ehIpYygsKZavcYSIN61CEXBUhm5U1+49fQyWcv6GzoeGpTxJJkUJBznUE0/+fbUr6ZEHl/E1yPvHJbkZVjQSrnN5F2hpseDGl4ROaDg0vo07r5xf7IycGrDvm29aeWdcqQV9Hq1H7cZroaJ8q1cQQ1cFGSyrMP7XqqI+3tn2lecA3Ka9g/a7F/Y9fS6Vcit8g/aM3oQPL3bUmNqhelT5y9qGb3efSb4RnO2vt0YPEQquuiEHVjQV5+02nP7USxe6E0vk0RspSBFM51aND8n6V9S6G9f4AWD6lLLuoC1GjYYjpwX0eJv4+nRoGb6bkukk6u+YxaFFaRTKakTxoMpUX770rvFGIu0/rhzalUfltSqe3IpZw/TQq7b3rEpu45HVvWn2rlV5LMsgJNPpdI2mtbaXy7kpRDtKFMVYDqDlhCvz3TUsTGTsbHSNsV96OQmdNoQBMPypG/Ivl26EAdpJ92zctKdVKU/MaF0tnUz3qWxP86hLx9xtLp5Eebmu/v91HGWLaWeJV2LZxK/Wo6kUKMmTJFHqrY5TOatf2y6THI2hu0Z/E0Cq7lTErD3fHy3FQ+YBTN3HZRrNTRoz3jqJGnA9k6ulGlgNl06OEVWtTUiexcqtHAjTeNjzI2fxy3Im+/cbTm5DN6kXocd6pFA+Z+T3vGNSJPB1tydKtEAbMP0cMri6ipkxiDqw2kjTczGgC1dGvvIhrfoSTZGvLJW536frmTricdPzMby9MdW628/WjcmpP07EXqY6sT1QwckHJstfAiv+l76Hbiq4yPrZlujzH2X/Wuc7GP/y/xs/9zOtyaXRdlvymAzxeNQ9uKhZHLRmk6NajXIvrJDZzYNBUDxz1En/P7MDjNo4B0+HNWEwyUL8buoR4ZXxOeCe6jjDHGGGP/nv/oX+Jn/xcUhRG0aCmC63ghT1LwYiBXwjafN+oNWIElvTJ4OIHmJL7ZZoeOnQpnOXhhjDHGGGPZE5+BYf8yPSJPHMO9MtVQKsPHj5pozv2Gc27V4PN0MybN/AW6YhWR/9JSrMs5Bwe+qJpy30wWcB9ljDHGGPv3vOtcjAMYlq08WdUKHj124BUsULDlLGwPHYDS1tLKLOI+yhhjjDH27+EAhv036CJw5se9uJmjAhrVLgL7v3ERJPdRxhhjjLF/DwcwjGUR91HGGGOMsX/Pu87F+CZ+xhhjjDHGWLbBAQxjjDHGGGMs2+AAhjHGGGOMMZZtcADDGGOMMcYYyzY4gGGMMcYYY4xlGxzAMMYYY4wxxrINDmAYY4wxxhhj2Qb/HZiMaGMQ+TIWWr30Wq6AlV1O2KoNL/RISNBDrVaK33WIf/ECUYlJCdORK2Ft7wgbQ1IDbSyiYgAre2skLcqQXoPoWMDa1iKTCFMPjSkRLN6U6E3bS1U+ucIKdjltYSxaKrrYF3gRkyi2IofS2h6ONkBM5EvEplQKVHYOcFDGibzikuvKkF8ukV92wH8HhjHGGGPs38N/B+Y90j+9gN2L+qCKSz7kK1Qfw78Jw7knOuhurkUPn3zIYZMfrVbcFuFLNK7uXYS+1b1Qu8cYjBs3TvwMRZuyzsjnUhV9FofhwlMR8IRvw6jmVVHLvy8GBtWHV/6iaDZ+Dx6li3sSbu/C5O7t0KlnMII7VIabe20Er74IEYOkSLiNXZO7o12nnggO7oDKbu6oHbwaF1Mletv2Upcvj1MVTDyVYFqRRH8PK/wLIk8+F1Tpswi7Lzw1vAkXdi9CnyouyJevMBqGrMLB69HQRfyO0GH1UShfPjj7dMPcHeekTBhjjDHGGPsADGdgPgRD1h8w+w8v/gANLKwgVaVpdEVrWBBJW4OqU+uhIdSrQ1f64sBzYzKiRDo1th713BFneqm9SV9WV5Gi0AA6EG94fZlmVrchda25dEdnSBBPx0KKkVJZlEYc0xgWGGnvhFKAZwnqt+cpGZNpw2lWDTXJVCVo9HEpnfYOhQZ4Uol+e+ipKRGFz6pBapmKSow+bkxi7vYM5RtUOhc5KBXkGrSLoqTFBokXP6cGTg4kV7hR//2GQiSJpwMDC5NCVZGmXTZWipH24mQqr5JTfpFP6tQfu2zfRxljjDHGsrF3nYvxGZg3kamgUsoAldp4eZX+zgZson5Y9uUMLFu/GiNrO5rSQQZbGxvxb1oy8T6VYaEuCi9fEfK4eyCXsbYtULJkEaj1j3DvvtawQIjG3ikjsSVvVwyrn8t0WkxRAG36B6NFg2rwdlSYUu2dgpFb8qLrsPpSXgoUaNMfwS0aoJq3tD9mbU8Q5bMs0Aod69ri4dbl2PJX0umgeBxbcwEezb2gkImyGwuRRAaVSin+FcstpEWx5zB/3Grc0MmgTF7IGGOMMcbYh8EBzNuQHnH3D2HOiB/h3qM18mS1xtQVMfVMJMKXNwduHcCKcb3Rc+kZJJIWiYlSGs1phO1/DGs3d7iYYhVBgULt52L7riXo6mVYqMHpsP14bO0G95REUBRqj7nbd2FJVy/TAnO2l0SWB769feH06iesWHMDOsOyF7uxPqImOrinbOON9A+xbdTneNI+CD6Z3tTDGGOMMcbY+8EBzFvob/+I8d26YMzeB3j21zPTJP81Mkj3IGVI//w0lvaujxZjDsHefzqWBVdAmnMVuqd48lyHuBeRae93SUOHp0+eQxf3ApFvTmT01u2lYtOoDwK8tDix8hucStDj3qadQPO2cMqkPEYUjZMzh2GXzzRMrJnjtTNQjDHGGGOMfQgcwLyFvFArzNy2En2cLmNpn2CsvJU+hCEkJhKUhsvNMhL9K0Y1aIwZ8X2wfu0EtC2dC6+d21DkQm5HGTQn9uCnJ+nu7I89gR923RG/KJArtyNkmhPY89MTpE0VixM/7DL9as72UlNXQFCPylBeW4flu09i7cE86NDU4S0dQ4dHW0MwJ2EAZgd6ZP5ENcYYY4wxxt4jDmDMIMtRG2OntINzZBgmjNmM5NtFjHR49lyLHPYZBzCaI+sQekkDrwqVky8/I+M9S3roDf8ZWPigbvW8wLPtmDR6Bx4mxUj6COybPBdn7J3ECwv41K2OvHiG7ZNGY0dKIkTsm4y5Z+yNr8zaXhoKeHTphcb2j7FpZF+cKtEFVS2lVW+iPYedl+tixphqMG2VMcYYY4yxfwYHMG9CUYiKETN+jQYaUU1520zBxKY58XjTZxiz6wkS76xFz9otMPKb77D2qBW8PaS/pEIxxr/hQokaJIi3K3LngaM8EceWjMGSsIP4cXEIgpedgxaJuL5/OWbO3IRwnT1ajB6DBrn1uP5tO/hUbIEugZ3QtJwPgh+0Qb+qpgvA7FuMxpgGuaG//i3a+VREiy6B6NS0HHyCH6BNv6rGNOZtTyQU5XsVGW/cR3m+Nujj/wniHjujYediUILwMjpGpBFlNyRIRoiKigEpvdFxqB8KSqd26FUUYkSQlJgQb3yUBGOMMcYYYx+M8VlkH4Ah6w+Y/QelvX+AFg+pSy4KkMy6GLUd/zXtu6Ul7c2l1Cy3nBS5KlDXEUOoqasNWeUuQW0XnCYxgacXv2+kOZ+1Jk8LGcmUrtRw+Nd04O592jOuEXk62JKjWyUKmH2IHl5ZRE2d7Mil2kDaeDPRtFHh1dlvKLieF+W2siLHguXIb+JOCk//XOJXZ+mb4HrklduKrBwLUjm/ibQzdSLdo7duL7l86gLUaNhiOnBfR4m/j6dGgZvpuS6STq75jFoUVpFMpqRPGgylRfvvGiqFDiweQnVdFASZBXn5Tac9txPF7oTS+DZFyFIGUjjXoUHzf5Z25OOXnfsoY4wxxlh2965zMf5L/Ow/i/soY4wxxti/h/8SP2OMMcYYY+z/HgcwjDHGGGOMsWyDAxjGGGOMMcZYtsEBDGOMMcYYYyzb+OA38TPGGGOMMcbYm/BN/IwxxhhjjLH/W/wYZfafxX2UMcYYY+zfw49RZowxxhhjjP3f4wCGsX+ZXhOPBOl3xph5EmJjoZV+z14SEBubPfecMcY+FnwJGfvP+jt9VB9zD7//egi/34xArNweLsWqol4Nb+RUSgkyFIU/f96M7Ycv4W7ES8RqEpEQ9wThusZYvWEgPBRSMsb+s7S499PXWPlnUYwfWF9alpoG946sw+J5i7D6bEV8d+lr1LeQVn3sNPdwZN1izFu0GmcrfodLX9fHR7frursIm70UV8v2xcAGrsh0OGOMsfeALyFj7J+QcBe7J/vBp4wvvjz8BBb5CiC/zUv8vrQzyhZriBHfX0GslDSNhGtYFVAeZRv1QMiU2Vi4dAVWrtmEQ3+5Y+CU3hy8MCY+OecX98DwU2UxMMPgBdBHnMXxC5dxbP8fiMhWpy31iDh7HBcuH8P+PyI+3jOuigJoMnwAPHf2RqeFf2Q8ljHG2EeAz8Cw/6ws99GYs/iqbXOMPFcBC/Z9j95FU39/moAbqzqhbu/DcB+/FdvGVoODtMaw7sL0umi4oTCGj++JusVckNPeDg45c8Pekr9DYMwwwX+8JQiNl5bG92FDUCSzgF53E1/WKorRd4Ow53o2OgMj6G5+iVpFR+Nu0B5c/xjPwCSJPYlxdbvjQcgvWNHGib/pZIx9MHwGhrEP6gV+CumAkJ/i0HDSIvRME7wYqOHRdQGmNNfh0KQAfLotQkzJJC93Y+5WN3wVtgrD/GqibFF3FMyfl4MXxiT6x1sw7NP9KD+4Z+bBi4FMDQu16YCX3cjUFsgWu25dEZ8OK4M9Q0ZgW0TySMYYYx8NnkExZgbd1WWYsvI6dDkbo2tbl4w/OHJntOnSBHn0d7Fu8iKck+7TffbjRkS0HQf//IZ3aREbbebNx9p4xCaknzzoEB+bAF38Szx79gyR0QkpgZKBNgaRz57gyRPp59kLxOv0iH/5LGXZk2d4Lt6XRBsbhZcZ3FSsiUr7nsgY7WvLnkelvxhGlC/qJd5+j7IoRwb1oIuJxLPk/NP9PIuE2IUM6eJjkaCLx0tRJ88io/FataXypvJq02xb5PM8ElEanbRWkmH9isXRad+bun4NZxc00dHQpNuntNt7gmcv4kWtaBEdmaqO/7qHe4+k9c9FuaT3pqaLfSHlY2qjjGgN9fOWeaheE43o9DupS1feND9J29MiJvU+i59nL2JFWcyVgNPzJ2OLrgF869hKyzKSgNgYQ3+X480xQMb9KpkmHvFJRRSfr/g3JhREf4rOpCNrUz9EQKtB+q6SRkIsYgwNIM8kenmP28uoLdP379R9NPlzneozlrOJP+rFb8LUhWffXJ+MMfZvMVxC9iEYsv6A2bN/0atXrygmJkZ6lX2Z30e1dGNmNVLLQOpac+m2TlqcAd39+VTHQkZQ+dCEc4liSQxt69GcPj9/g3aM60gt2nShwM7NqJy7F9UMWkBHn6bPLJHu7vmCgnx9qWP3buRX05vcfXxp7LYbFG9YrTlOI0vaUg7XStQueDD1aVmGCnjWpYHrLlOcWK17dIzWTGhFhVUyktmWoW4zt9K5yCi69OMc6lnegeQyJRVsNpa+PRxON7eOpGZValKrLmI7VQqRs3dTGhf2kEx7FE9Xd86gTsWtSCazJO/2n9PG0w/pyu551L9aLpJDQS4NR9Hyg7dF7Qiam7R1ZDOqUrMVdenmR1UKOZN303EU9jBd+WKu0PcjA8jXtzU1reZBuXJ7U9NR2yhcY1gZRzsCXci5vC9179WbOlV1JoU8J5Xz70W9Av2oqms+arch2phNWho6PrIk2eZwpUrtgmlwn5ZUpoAn1R24ji4bKsVI85by6uivE6E02dedVDJRtuoBFNStLTUo7UJ5PerQwNCrxvo31O/aSb7kLtVv4KxtdP6Flh78upC6lbIRdaWgT5qMoZVH7otN3qKdkwKpbcfu1KNLMyrjWphq9VtFF4xF0NGjY2tpknF7MrItE0iztp2nF9oH9OvCblTKRuSv+IQaDx5L44e1Nm1PVYJGnzRWVArdXVrSJIfYrorcfSfR2mOPpBVC4l3a80WQqOuO1F20SU1vd/LxHUvbbhh7kkRDt3ZOosC2Ik2PLtSsjCsVrtWPVpl2kuJ2BJKLc3ny7d6LeneqSs4KOeUs50+9egWSX1VXytduA0XrHtGxtZPI110l9sOWSnWZTit+FGUx5mCGuD3Ux1VB1s1W0FNpUWq6p8doYVB9qtHAnwLaN6LK1ZtTbQ8lKVz70s9JRcm0XyXSX79vohl9G5F33mris3iFQvtXIxdLOcnUecmn80I6mWpnY658TyMDfMm3dVOq5pGLcot+MmpbuKgpQfuUzm+bQwNblKJ8hftQ2F+naUlQJcov8lLYF6VOKy6b0hnp6OmxhRRUvwY18A+g9o0qU/XmtclDqSDXvj+bPs/C+9teZm2po4e/fEGt3S1IBhlZl+lBiw7eMX12xfuu7RxDDZwsqXDrGXTggfSZ1T2khfUsSFFoAO1P3WUYY+w9etd4gQMYlmXFixen/Pnz09q1a0mv10tLsx/z+2gc7QxyFpN2Gdn5rxchSSbitlBATjlB5kAdNoqU2os0tXknGtm7BBUN2k5/SXMDzbVl1NJJSfaVJ9Kx5Dm5jiJ+7EveTg1o3hVpWqJ7Sj8PLkEWqoLUYa0IFkQAM6paY7HeEBwZ1j+mVb6OJLeqSbOvm6YjFH+ABhZWkKrSNLoiLTLkfeer2qRW5KegXfGkvTyTqtuoqdbcO2KNEH+MQoopSVl0BB1LnhEl0ukxJUllnDhL2xOpHy+uT2q5A3XcnBQdaOnyzOpko65Fc++YChh/LISKKZVUdMSxlAmW9hatbl+VAtbclCZvcXR+Ri3KIbeiMp8dFVnfpvlBQ2hflDExXZ1emVTKohRy3JRD4oUZFPzFBbFX6YkAZlQ1ajzvirRO7OMqX3IU+dacfd24xLzyisX7+lEBhYqqf3nTNLnThtOC+nYkt6lHC25JjZdUvxWn0eXk+tXSxcnlSSU31S9p71BogCeV6LeHTDGqlsJn1RBBsIpKjD5ufIdB/IGBVFhsr+K0y6btGYg+M7m8iuT5g8iQlWF7g0rnIgfDxDdoFxmrR5J48XMx8RSBqcKN+qeeZeoi6Me+3uTUYB6ldKWfaXAJC1IV7EBrbxu2pqU7oQHkWaIf7ZECaW34LKqhlpGqxGg6rtHR7flBNMTUIKS9Op0qq0Sbhhw3tWniBZoR/AVdMFZ6PB0YWJgUqoo0LaVSzKI5/Cl5ib7i+enhlL6SJOYkTavuRCUH7qUIqfpfHQ6h0mIfkwOYt/Ur7V06uVsECdXsRBBYkny7+pL/p5/TnBlDqZm7IUBXUoHAbcb8tbdWU/uqAbTmplSXcedpRq0c4vNVhj47Gke655fo0M455OusIHme6tQ2MIjGr9xF+3ctoPbuSpLnbk8bnpveGnNyGlV3KkkD90aY+hy9osMhpUUfSAlg3t/23taWxkUUc3wMlbGQk4Pvd2mDxagfqHvJDrQ+zcJ4CuvpQgqlNw0/+lrLMMbYe/Gu8QJfQsaybNSoUUhISEDnzp1Ro0YN/P7779Ka/1+aeI34VwaVpUXm113KrGFlZbhMJAEawxUa2ieIuLcXS1fr0bJXY+SV3qz26oHP+5dF3ImZGLH4qulyG80JfBnyDf6qGYRu3mpjOshzof6E8WjjeA+bRk3BnpgcKBE0EkHe0gNO5TbIYasCdHGINeyigUwFlVLsg0oNKRcjldJwc4ESaguRPOolXlEeuHvkMpXHoiRKFlFD/+ge7qe6XkSlFHlD5JeckRxqlUrUhMjbsMpIh6iXr0B53OGRy1RAi5IlUUStx6N795MvP9Ecmo0pR53g43AN+8PCEBZ2AHdze8BFHocL60NFCjUq9OiHWm+4ikhZtCO6ipWvX4QjR44SQRgZ5C099lUOmxy2Yq91iJMqxdzyykTZVKk3oHBGoQJihxL+wqOn0iU5SfWrViffhB17bj7Grb4BncxUv9F7p2DklrzoOqw+TFWiQIE2/RHcogGqeTsa32Ng2J4pq+SccG7+OKy+oYNMKeUvtmdZoBU61rXFw63LseWvpEuD4nFszQV4NPeCQmZoj5Qd15z4EiHf/IWaQd2Q0pXqY8L4NnC8twmjpuwx7CSmjNyCvF2Hob7UbooCbdA/uAUaVPOGo+gu6go90O/NDYKOXWvB1rhZ8dlQKU39IqkoZtHj+fkLuKOTIa+zs6il1HS4smgoPj9XDoPH1EMe0y7Crkog2pVJecDvW/uVwhUVmrRGi0oif300HNp8je/njManIbOxfe8cNHbU4973C7DhXhwOzZ6Co04+cLi2X+Qj8jpwF7k9XCCPu4D1occhdyyGGk3aoba32FN9HjT/fBkmBTZFnaZ9Mby9NxQvLuDsn+KDr7uCRUM/x7lygzGmXh5Tn4MdqgS2Q8qua97f9sxoSwPrCoMwomUuRO39Ft+JPpbk2Y71OFctEC1ySQuMFPjE1Qly3S2c+yNSWsYYYx8H6ZDAmPkMgcuff/6JQYMG4fjx4yhfvjx69+5tvIb6/5McefIYJr6EuJcvxbQxExSD2FgSb8kNJyfTrIGiIvGCnOFaIPVfVVCgSJNG8FbG4VTYT3gg5qQJpzdj+3WCk1tBWEmpjBzro3EVazHZ3ofdZwsjoHtt2IjF+vgInAsdgal7HdBy2lcYUDzt9C8z6opTcSYyHMubA7cOrMC43j2x9EwiSJuIRCmNgfHpIKQRAVzK9fRaXfqL79WoOPUMIsOXozlu4cCKcejdcynOJBK0iUm5aXH5wGHcMwREMdGIjjb9xNo1wqTQjdgwJ0DUmTMqV/V689+eEBPRSpXd0k1yDZQoGtAdtU2VgohzoRgxdS8cWk7DVwOKG1OYW97UKPYxzm4YiUlbX6GQ7xB0TTVpTk3/cBtGff4E7YN8pH3X4HTYfjy2doO7S8reKgq1x9ztu7Ckq5e0JD09Hm4bhc+ftEeQT7ptyfLAt7cvnF79hBVrRKBkWPZiN9ZH1EQH9/Q1koDTm7fjOjnBrWCaniS6UmNUsRaB5b7d0JwOw/7H1nBzd0mpU0UhtJ+7HbuWdIWXQg7nylXh9eYGgWulynBLv3nSpb0vK1N6PH78BHqSwdo2XXCqvYQN608goWBplJYm5UayHLCzSUppRr+SyAz3n8jzwrNI7uQDn6JwZ/RskgsyzSWcPXsOBw7fgymrpLxiYddoEkI3bsCcAE/pXSqoRZ3IrPIgX86knOTIlzc3ZBSHmDjR7y9twPoTCShYurQUwJrIctghZdcvv7ftvb0tpWWi/H5Du6NIwhEs+upXxBiW6e9gw9rbaNS9jnFcSSGDjY21aE89Ih49kpYxxtjHIdXQ+v/t9u3bmDhxYoY/p06dklKl2LVrV4ZpDT8xMcZhP42ZM2dmmHbVqlVSihQf077cunUrw7SGn8z2Zd68eXB0dETr1q0N5/2wfPly5M2b17g8MXnS+v9CjZKVysBOTki8cRlXM7qTWqJ7EI470XrIc1RA9bIWYm6dF3mNMxgtEtK9T+nmivwiT/2L54gUMz7tvbt4JGamiQnp688arq55INe/RORzKXjQ/4WfZg3H6Dn7oa/YDA0ruiH99+T66xswtHNHdOxo+AlA/++umCa+Rno8P70Uveu3wJhD9vCfvgzBFdJ/da6ES/FiyCu7hhV9O6Bn/z7oGRSE4RuupcpHon+O00t7o36LMThk74/py4KRNjsdnkY8F/GFLYq0aou2bdP++LeuLKX7O/T466dZGD56DvbrK6JZw4pwS64Uc8qbRI8/NwxD565BGDRhHa7nqoFWDUsgee6YCkWfxMxhu+AzbSJq5kiamYqyPnkOXdwLRL7+8XwDQvTJmRi2ywfTJtZEclap2DTqgwAvLU6s/AanEvS4t2kn0LwtnF5Lq8W9u4/EXiTi9a7kCtc8cuhfRkL39Ame6+LwwvydfDv9dXw/IhAdWtZGaQ9PlG8+AMtORooafTOt3rRWlz4wTriGa+FaMRFXvDmo/dv9ygpFihQUk35RV5pniHiuR7xtEbRKl0/btv5oXdlFeo+QQfvIk27QJ8OuX4Np19+856IB3tv2stKWFhX7Y1A9G9xeNxvr7uqhvbIWG+PboFu51OdrDWSwtFQbN60VgT5jjH1UTFeSvX+GrD9g9ll24MCB5H1K/7No0SIpVYp+/fplmNbwExERIaVKkTt37gzT1qpVS0qR4t/al9q1a0spUuzfvz/DtIafrO6L4UetVpMIlKTUH7ekfTbLi50UVEBBMlUZGn/29bswTHT0YFlTyiFTUuG+e6V7FeIprJcLKRSFaED6O2EjllBDCxnlaLXKeD16/P4BVEghI+tGS+iRdL2/iYYODnInpWHbf6Tbtu4p7ennJdYVpl4/Shffa47QUC8lqap/STeTb0fQ0cOF9UitKED99sVT1MERVMrOhQI2Ppauz4+hUD9bktn6UWiam3x09OLWKTq47yAdv3CLnsXr6PnyJmQhz0vdtifdAxNFB0eUIjuXANr4WNrxmFDys5WRrV+odM9QIp0cXZxUioLUc1f627tFnpcuSr8nef0eGPPp6OmefuSlVFHhXj8al5hbXs2vg8hdvC/5HhjdM/p1ZDmykttSpalnTffYJNVvlaE0s3d7mnTEUJ7U9fuS9g8oRAp5bvJfl3T/Q5IYOr5tp/S7Iauhxv2sMnQm9W4/iUxZGW6eVpOiQD8STWXcXkjLkfSbRkvXvqxBVgoX6rHtGH3eKYR+jdPS9S+qiHryok8PJ9VTvGn7MmtqtORR2u1rDtIgd7HvZcZL/U1Ouf3XJd9fkiTm+DbaabxPJsVr98CkoaEjQw39sDp9KXW6xNurqI2TguTOnWmz1DVfp6Nbs2uQCqIOvriWch+QQdx26pZHTvKcHWjjK2mZge4+za8j6se1D+2NN7dfaei34UXE/lWiz1NuDBO0dGlKeVKpStHYk0dpdHEVKQr2pNezek6XLt6Rfv+Lvm4otv9Jb9qT/JHW0f35dUT7mz7ncdu7UR65nHJ22Ehpd30+1VEryLXPXopPPPnetpfVtoza21ekV1HxkEN0cHgFarnsQdp+YmRom5qkFm1TbeYNaRljjL1fWZqLpfKfOQNToUIFXLx4McOfDh06SKlSjB07NsO0hh/DmYf0Dh8+nGHalStXSilS/Fv78u2330opUlSsWDHDtIaft+2L4QxN+/btpTVAs2bNcOXKFXTr1k1a8n/EvgkmzWgPV1zAN19swsOMvlKOOozZ836BxrM75k6sJ50RsUDtTn4oJLuHvdtPpPnL1gnXr+O2Ph+adWoKQytaVPJFUzcF4o5twZa7qb+NjsKtWxFQ+fijbfF03+jKc6FW/fKw093B3rCz0sK30eDIulBc0nihQuWk6/MND/QQ/+n1xpEkhRz2buVRq14tVCrhhpwWGQwZmiNYF3oJGq8KqJx0o4LIzJRdUm5KFK9VHc64i++GDMC6P1MuxNM92IHxc36RXr0PcuSqVR/l7XS4szdMvM5KedOR50TV9k3gqYjG2f1H8CRVu2vP7cTlujMwppq9tCSJBXzqVkdePMP2SaOx42FSW+oRsW8y5p5Jn16Lczsvo+6MMXgtqzQU8OjSC43tH2PTyL44VaILqlpKq9KwQCXfpnBTxOHYli1I25Vu4VaECj7+bWHhUxfV8wLPtk/C6B0Pk8+q6SP2YfLcM7CXLoF8V8qCTdGotBL6p+dx1nA6IkNyOHl7Ibec8PSviOR9MFKXR7UKtqAXP+GbNTfTrhNIq0UCZbVfJUKTkLrFo3Dh4i3IijZHy9KlUau6M3D3OwwZsA4pWenwYMd4zPklk1Ov6ajLV0MFW8KLn77Bmpuv7Tm02gSQsvh7215W29K27mD0q6LC1WVB6L3HG13880ufi9T0ePL0OUjuCM8iqc4GMcbYx0AKZN47Q9YfMHv2LzI8eWzr1q3k5uZmbOOiRYvS3r17pbXZR9b7aDSdX96JvGwcqfLQbXQj+RG9RHHhO2lsXWdyLNOHNqR5TK2gu0/fBxQklU1ZGrz7oelb5sQ7FNqxMBXuuI5SvhzV0aNtQeRloSDnll/TRenMwKsTE6lq/oo09vAr0lzcQDMW7KRrSY+i0j6gzV3dSCHPS/5rpUfoxodRLxfTU7JSvmyWzmjInSloZxSd+qwEqQyPR+6yiHYf2EGLRnSlWu6Wxkf1Bn01g2ZsvCm9Lz0d3Zlbm9SGp6xtknYw8RR9VkJFMktv6rJoNx3YsYhGdK1F7paGJyAF0VczZtBGw7fy2pv0Tev8pJTJSJ7Dg2r7B1Jgx0ZUqkA5Gn4g/VfQiWIfS5JK6U6DDr7lDIzmIm2YsYB2plQKPdjcldwUcsrrv1a8NuRlXnnjdgaRszzVGRiKo3PTq5OtTEVFRxwxPeUqqX59JtD55BNiqetXdIzEy7SwUR5SiLKq8vlQ887dqGOTMuTi2Zm+T3pMrRAf1otcFCrymXBeeoKaoL1K0yurSO4cRIasDNvrW2MwHTBuPJr29C5IyhyN6eu7hnwS6fTYUsYzEMG/pOp3uke0LciLLBTO1PLri9JZsFd0YmJVyl9xLImuJCTS5YWNKI/C8IjmfOTTvDN169iEyrh4UufvX/9GPvHUZ1RSpST3QQczOAMjnWlMfQbm5nJqlVdOykJ9aU9S02Tk2Rpq4yAnm9bfvfbo5eij46mCndg/Sw9qM20LHT13inZ91Ycq5TWcDS1OPRaH0v6r18zoV9IZGJktVZ3yu6hFk6gTE6hyrmI0IOypsbzam99Q6/xKksnklMOjNvkHBlLHRqWoQLnhlJyV6MdfVhftk6877UgeA0xPmTO2/y7Dwmg6Or4C2Yl9svRoQ9O2HKVzp3bRV30qUV5R36riPWhx6H66eu19bS9rbWnwbHNnclYoqHD/X6T+kV40bWzvIOq0Ja1Mf1qHMcbek3eNFziAYVnWsWNHY9va29vT3LlzKSEhQVqTvbxrH311ZRtN79WMqlaoRnUbNKAGdatRpRqtqf/cvXQreYKRTsxV+n5kSypTsCCVqNmYmjdtTl0n/0jh6WIdw0Tr9u6pFFDVg1y9KlHDVi2pRbtPafmJZ9IkREeRf6yh0YH+5NuyEVUv+gk5e9Wk7vN+Mz6uV3v/AC0eUldMikEyK2/yG7eGTj57QWdDx1ObImLCDgU51RpAc79fTeMaeZKDrSO5VQqg2Yce0pVFTcnJzoWqDdxINzO6Sk57i/YuGk8dStoa88lbvS99ufO6mEqJwGvPOGrk6UC2jm5UKWA2HXp4hRY1dSI7l2o0UAQHydnFXKb1w5tTqfy2pFLbkUs5f5oUdl8KFiSG7cwPoaaFDH9XREVuTYbR9MV7KDxNorR0kX/QmtGB5O/bkhpVL0qfOHtRze7z6DfpkbK6R3veUl4dPTi4hD6tm58UkJODVx3ybetPLeuUIa+i1an9uM10VbRtmvq18CK/6XvoduKrNPXrXGcQzf/5tugoZ+mb4HrklduKrBwLUjm/ibQzucG1dP/AYhpSV0z6ISMLLz+avuc2JYr3hI5vQ0VE8AcRfNTuMZAG9ahDLuoC1GjYYjpwX0eJv4+nRoGb6bkukk6u+YxaFDbUk5I+aTCUFu2/K+UvaG7T7qkBVNXDlbwqNaRWLVtQu0+X04lnqSejYt+/CaZ6XrnJysqRCpbzo4k7w02BWjIt3do7n0KaFjL+zRqVWxMaNn0x7UlqEO19OrB4CNUVQR3k9uRZowW18a1P5by8qKJvCK2/lPyc8Dd4Tps65SOV5xA69FpkpKPHB7+kgEqulENtQQ6FalDQoh00rYEzlWg+gOZsvyjqQSR7a7+SAhilFzUTn50mLfyonX9zqlOvI00Ju5vSP4WYy+tpePNSlN9WRWrRP8r5T6Kw+1JOUX/QxskdqLi1oX2cqPaAmbTtwh06/O0EalfMWmr/wbRw3x2x64/p4JcBVMk1B6ktHKhQjSBatGMaNXAuQc0HzKHtF58bP9PvbXtmtWUq8b/SEG8fGns6ow+7IF3ilqf9+gz/Pg9jjL0P7zoXkxn+EW9874xPLxI+UPbsXxQcHGy84XbKlCnGG/ezK+6jjH0cEs5MQNXa29Hk0GlMKZvJje/vLAFHR5RCrXkOmHz+N4w2PJb4P0735yw0GSjH4t1D4ZFBdeguT0PVylvQ6JdjmPzGB14wxtjf865zsQwuaGcsc4sXL8bSpUuzdfDCGPt4qMuNwFcDlNi0cDf4L478EzQ4+c022HXshMIZxnIxOLJ8I7TB8xHCwQtj7CPEAQxjjLF/mS2qT1qHEbHzMHr740wfu/yu9DrDt3s6aNPfU/9fob2JzeP6oN9n87By4UB8eqgGhnVwynAS8PLIDMyNGIC1k6q/9nh2xhj7GHAAwxhj7N+nLoKg1cvR6I8v8PmOcGnh+6CH5tklHD33GDrdbZw8eBUvEj5EiPSRizyMNfOXY8n0T9FvVgQ6LxmfwVPsEnDvl/mY8WtpzPq2F4ryyRfG2EeK74Fh/1ncRxn7GOnw7MYt5PLwkF7/TTEXsWPdYTxIPvMig4VnQ3SrXzjlr9b/J+gQceZH7L2ZAxUa1UYR+wy+v9Q/wc1wOdw8cv3H6oYx9m9517kYBzDsP4v7KGOMMcbYv+dd52J8CRljjDHGGGMs2+AAhjHGGGOMMZZtcADDGGOMMcYYyzY4gGGMMcYYY4xlGxzAMMYYY4wxxrINDmAYY4wxxhhj2QYHMIwxxhhjjLFsgwMYxhhjjDHGWLbBAQxjjDHGGGMs2+AAhjHGGGOMMZZtcADDGGOMMcYYyzY4gGGMMcYYY4xlGxzAMMYYY4wxxrINDmAYY4wxxhhj2QYHMIwxxhhjjLFsgwMYxhhjjDHGWLbBAQxjjDHGGGMs2+AAhjHGGGOMMZZtcADDGGOMMcYYyzY4gGGMMcYYY4xlGxzAMMYYY4wxxrINGQnS7++VTCaTfmOMMcYYY4yxjGU1HOEzMIwxxhhjjLFs44OfgflA2TP2t3EfZYwxxhj797zrXIzPwDDGGGOMMcayDQ5gGPuX6TXxSJB+Z4xlR1okJOil3/8mbQLeV1aMMfb/ii8hY/9Zf6eP6mPu4fdfD+H3mxGIldvDpVhV1KvhjZxKKUGGovDnz5ux/fAl3I14iVhNIhLiniBc1xirNwyEh0JKxth/jPbeT/h65Z8o2j0Y9V2z2wfhBX4IKoX224pg1vE9GOj1N/b/xQ8IKtUe24rMwvE9A/F3skqhw92w2Vh6tSz6DmwA10zHKMYY+2fxJWSM/RMS7mL3ZD/4lPHFl4efwCJfAeS3eYnfl3ZG2WINMeL7K4iVkqaRcA2rAsqjbKMeCJkyGwuXrsDKNZtw6C93DJzSm4MX9p8Ve34xegw/hbIDB2bD4MXAEi7FK6BieR8UsjcdiN+ZpQuKV6iI8j6F8HezSqFAgSbDMcBzJ3p3Wog/MhygGGMse+EzMOw/K8t9NOYsvmrbHCPPVcCCfd+jd1ELaYVBAm6s6oS6vQ/DffxWbBtbDQ7SGsO6C9ProuGGwhg+vifqFnNBTns7OOTMDXtL/g6B/XfpH29BUOOlKP19GIYU+a9F8dH4Ze5KWPcfiCpqadEHFYuT4+qi+4MQ/LKiDZx46GGMfQTeNV7gAIb9Z2Wtj77AT/0rocWSJ2i09AK293R5/fSl/hFW+5dEjx9t0XXjSXzjm9eU5uUP6FF/Mxpt/w7t8/OsgTEj/WNs6lIRw62+xqUVzWArLf6v0Jz/Ag0D7mPC6YWom/q7kA/p+SYElBgG+YLTWO0njU+MMfYv4gCGsSzKSh/VXZ2JWj6jcMymAzbcCEVbe2lFOlHbusDTfx2elxqHE6cmoawSeLa2E7o9nIDtIUWggBax0QlQ21rjrZeia+MRq1fDWp16mqFDfKwOKnkcXsRoIbewg72tOmUioo1B5MtYaJNuAparYOeQA4iORFTyncFyKKzskFO8z0AbG4UYWMHeOu0eaaKe4VV8ynuU1vaw1r9Ms0xhKfKxS/31sShfVAxgJdJmWkBRjmgNlOnqQRcTiRexWmR4D7NcCWt7R9i8peLeVJ709JpoxMIathaZTOP0GkTHAta2FplO9rTxsdCrrZG6qbSiLC9TlUWusoOpKaJSbtLWxyNebwnLpF01tpcDlHHivXFJ7zWvvd7f9vSIE21slZIIajvHdGcL9dDExEFmZZOmzFmRcPIzlKu5GpW2XMeKZtbS0rTe3pam/YDYDwt5AjQJSlik2aG3rTfJqP1e85a+oBN5aEUeKd3pzZ+F+D9D0a9VENbGBmDz8emorraEbS47mOIYw2dcC7V1uu1kOB4kEdsy7Ju0Ia1GA5mFhRhv0ovGti6F0fFiX/x2ajLKvalaGWPsH/LO8YIhgPkQDFl/wOwZ+9vM76NaujGzGqllIHWtuXRbJy3OgO7+fKpjISOofGjCuUSxJIa29WhOn5+/QTvGdaQWbbpQYOdmVM7di2oGLaCjT9Nnlkh393xBQb6+1LF7N/Kr6U3uPr40dtsNijes1hynkSVtKYdrJWoXPJj6tCxDBTzr0sB1lylOrNY9OkZrJrSiwioZyWzLULeZW+lcZBRd+nEO9SzvQHKZkgo2G0vfHg6nm1tHUrMqNalVF7GdKoXI2bspjQt7SKY9iqerO2dQp+JWJJNZknf7z2nj6Yd0Zfc86l8tF4kpNbk0HEXLD94WtSNobtLWkc2oSs1W1KWbH1Up5EzeTcdR2MN05Yu5Qt+PDCBf39bUtJoH5crtTU1HbaNwjWFlHO0IdCHn8r7UvVdv6lTVmRTynFTOvxf1CvSjqq75qN2GaGM2r9O8pTxJNHRr5yQKbNuRuvfoQs3KuFLhWv1o1YW0+Wpu7aRJgW1FG/SgLs3KkGvhWtRv1QVKkyrxLu35IkiUReQlylzT2518fMfSthuGltLRo2NraZKvO6lkMrItE0iztp2nyKiLtH12T6rgICeZ4hNqPHgsjR/Wmtyl9gqctY3Ov9DSg18XUrdSNqLuFfRJkzG08sjb2us9bq/xIPpszBBq4aYkyOyobI/Z9MOFV8atUOIdCpsSQM2ataPOnVtRJU93qthhKoXdNfT1rIijPX1cSWHdjFY8lRYlM68tX51aID4nHanvp59Svy4tqF610tRm3p3kNG9bn3n7pci8L0TRzf3LaUynqlTAsQEtNPT3t3wWdM9+pdm9fKmck0K0gRfV8fOntl1m05FnN2n/8jGi3xcgxwYLyZQ88/FA+/Q8bZszkFqUykeF+4TRX6eXUFCl/GQpV5B90U604rLxg5WKjh4urEcWikI0YH/acjLG2L/hXeMFDmDYf5b5fTSOdgY5i0m7jOz814uQJBNxWyggp1xM/Byow0aRUnuRpjbvRCN7l6CiQdvpL2n2pLm2jFo6Kcm+8kQ6ljwr1lHEj33J26kBzbsiTTx0T+nnwSXIQlWQOqwVwYIIYEZVayzWSxNG3WNa5etIcquaNPu6MZQQsccBGlhYQapK0+iKtMiQ952vapNakZ+CdsWT9vJMqm6jplpzpQld/DEKKaYkZdERdCx5zpNIp8eUJJWqBI0+mTRB1dHjxfVJLXegjpsNIZOBli7PrE426lo0946pgPHHQqiYUklFRxwT01GJ9hatbl+VAtbcNAVjol7Pz6hFOeRWVOazoyLr2zQ/aAjtizImpqvTK5NKWZRCjptySLwwg4K/uCD26nXmlUdLd0IDyLNEP9ojBY7a8FlUQy0jVYnRJG2GtHdCKcCzBPXb89SUlzacZtVQk8xQD0mJdBH0Y19vcmowj1Ka6mcaXMKCVAU70NrbpoqPPzCQCitUVHHaZVOgZyDKOaeWmuT5g0g0RUp7VZxGl5MTaeni5PKkkmelvd7f9kQiCuvlQgpVVZqR1K90D2hLdy8q4Pst3Uzqfg+3UQ8PFVl69aLtj011ahbNYfrUS+y/56d0ONX+G5hV1sRTNNanBA37LWlBNJ0YV4UafyW9523rzWy/t/YFTTgdD1tPA8qoSKauJwKYBPM+C6IuF9RVk8ItmH6R4ghN+HEKWz+AyojgUl3PEMC8bTwIpyeXDtHOOb7krJBTnuptKTBoPK3ctZ92LWhP7ko55W6/gZ6b3pksPqwnuSiU5D38aMr+MMbYv+Rd44XMTpgzxiSaeI34VwaVZeaXEkFmDSsrw+lQw+Uq4j/tE0Tc24ulq/Vo2asx8kpvVnv1wOf9yyLuxEyMWHwVOsNCzQl8GfIN/qoZhG7e0mVZ8lyoP2E82jjew6ZRU7AnJgdKBI1EkLd07YfcBjlsVYAuDrGGXTSQqaBSin1QqZH64i6V0nBBiRJqC5E86iVeUR64e+QylceiJEoWUUP/6B7uaw0LTFRKkTdEfskZyaFWqURNiLwNq4x0iHr5CpTHHR65TAW0KFkSRdR6PLp3H0nZaQ7NxpSjTvBxuIb9YWEICzuAu7k94CKPw4X1oSKFGhV69EOtN9wMoSzaEV3FStPJ5rTMKk/0XkwZuQV5uw5DfWk/FQXaoH9wCzSo5g1H4/U20dg7ZSS25O2KYfWlvBQF0KZ/MFo0qAZvUyLRVF8i5Ju/UDOoG1Kaqj4mjG8Dx3ubMGrKHuMymagrQ1OoDZWeTNSdaD6ZUm26ZCipvdTSayH23HyMW30DOlnW2ut9bU8kgrWVJWQirVptqvGY/VMxfG0MGvXuiMJJ3c+5JaaObgzLGysx/IsjpoVm0D8/jwt3dJDldYZzuuuczCqr5houXQ3HwW2/4YnxujcblO8fgvYFpRK9Zb157WdGX1AXQqXGrdGgtIPUL837LGREXagSGrdugNIOppzePh5MwwnXGmjSrja8xa7o8zTH58smIbBpHTTtOxztxcIXF87iz3R/ZErxiSuc5DrcOvcHIpMuLWSMsWzGNMIyxjIhR548hgkMIe7lS8RLSzNEMYiNJfGW3HByMs3MKCoSL8gZrgVSX3CuQJEmjeCtjMOpsJ/wQEwkEk5vxvbrBCe3grCSUhk51kfjKtZiArcPu88WRkD32mI6JiYs8RE4FzoCU/c6oOW0rzCgeLqZYCbUFafiTGQ4ljcHbh1YgXG9e2LpmUSQNhGJUhoD47WppBEBXMpMR6szhlupqFFx6hlEhi9Hc9zCgRXj0LvnUpxJJGgTk3LT4vKBw7hnCIhiohEdbfqJtWuESaEbsWFOgKgzZ1Su6vXme4MUrqhU2S2D6/rNK4/mdBj2P7aGm7tLSh6KQmg/dzt2Lelq+psbmtMI2/8Y1m7ucElJhELt52L7riXoakyUgNObt+M6OcGtYJqWEk3VGFWsxWR1325pSdbpH27DqM+foH2QT3JdmNte7yKj7b1Og6Obf8RdOKNAgeTIVZAjX5PGKK8SE+KfdknL3k7/+LEILEjE+7awlebrScwqq2Vl1K9hgbOzG6Fk5S6YsvEcInO3RmDrfKaDWqbrzWw/s/qCgQjnRYRvKoY5n4VMyNRQSQGjWePBKY3xiwql2LpVnnzImXREl+dD3twyUFwM4gzfbaYis7GBtRjL9BGP8IgDGMZYNsUBDGNvpUbJSmVgJyck3riMq5n82Xzdg3DcidZDnqMCqpe1AJR5kdf4TazhL3Wb0iRRurkiv8hT/+K58ZtQ7b27eCRig8SE9BMda7i65oFc/xKRz6XgQf8Xfpo1HKPn7Ie+YjM0rOj22lOc9Nc3YGjnjujY0fATgP7fXTGd6THS4/nppehdvwXGHLKH//RlCK6Q9H18EiVcihdDXtk1rOjbAT3790HPoCAM33AtVT4S/XOcXtob9VuMwSF7f0xfFoy02enwNOK5CLpsUaRVW7Rtm/bHv3VlKd27ent5dE+f4LkuDi8iY6QlGdA9xRNRx3EvIvHmVFrcu/tIlCgRrzeVK1zzyKF/GSktyBqKPomZw3bBZ9pE1MyRemZvTntl3Zu3J9Fdw7rBAaL/dMaEnaYyazRpZ8RyxwIo4Cgmy6+eS0vMoNWLEgkiGH6tL5lTVoU7+m74Gcv6VobywjqM71AenhV64NsL0h85yXS9me1nVl+QpGmqt30WMpeUVVbGg9dbTg65tDBd/AKZpSWMMZJW+7eDX8YY+7dwAMOYGRyadEObTxTQ3fgZYZffdCGIHn/tP4gLWiXc2vdBy5xikZhIlS+TFwrdXYSHp5su6EXwYvjmtEBhfKIUSfM5Ibdch4dXLuN5mm9GZZDL5ZAp3eDpmXQpST40Gfsddp88ii8+2YVB9WsgeGfaSbPcswPmrF2P9esNP+uwqGvR5DMP0b+OQoPGMxDfZz3WTmiL0rmSv2JOI6f/Klz68zi2zBqMXv1GY+bi5fgqoFi6syDR+HVUAzSeEY8+69diQtvSeD07BRxy5gAi9uGH/S+lZUn0iLx8Sfr93ZhTHkWu3HCUaXBiz0/SZUUpYk/8gF13xGRQkQu5xWRcc2IPfno9EX7YdUf8okA+p9yQ6x7iymURlJnWmsjExFHMHJVuntKCLNA9wtaQOUgYMBuBHmnPhZjbXlmSyfaSKYogYN460X/W4LOGYtKsvYMrV6KllUlkMJyoUxQ0v8zy3DmNfyfJcIYgOt0M27yyRiNGWRZBiw/h2sWd+KJDUdC5VejbYRKOGb8oyGy9me1nVl9Iz5zPgnmyNB5khUZjClwcHJHz9ciHMcayBQ5gGDOHfRNMmtEerriAb77YhIfp5jNGUYcxe94v0Hh2x9yJ9aQzIhao3ckPhWT3sHf7iTR/pT/h+nXc1udDs05N4SheW1TyRVM3BeKObcGWu6m/l47CrVsRUPn4o23xdBNNeS7Uql8edro72Bt2Vlr4NhocWReKSxovVKgsJqXGZYYHeoj/9Pp039jKYe9WHrXq1UKlEm7ImdEjhzVHsC70EjReFVA5j7Te8IAQ8Z9eBGkmShSvVR3OuIvvhgzAuj9TLsTTPdiB8XN+kV69C/PKY+FTF9XzAs+2T8LoHQ+Tv/nXi6Bq8twzsDdc8mfhg7qmRJg0egcepiTCvslzccbeSbywQCXfpnBTxOHYli1I21S3cCtCBR//ttKCzKWua+25nbhcdwbGVEv/jO6stFfmzNteRixRvWVDOMlf4eDmH/E4Vf/XPwlH+HNrVG3bRlrydnInb3jlloOe/oWI1PVnblljd+Hz6UdEasDGvSlGhh7Cxj7uoBtncNYw2890vcq89jOrL6Rj1mfBwBT0ZXYW5J3GAzPonzzFc5LD0bNIqkvjGGMse5FGWMZY5uRw6bAMOxe3h83O/vAb8QNuproZJv7WLoxr3RErVYFYvXsBWuZL+WhZ1gzBtPYuuLViCD4LM1y6ImjvYsvCbdD6z8Z0P2miZl0bY2d1g6dmP6YNXo5LUrQTdXIhlp8pimGzBsHr2veYuXAX/kz6Elz3ELu2H8Ur5EKFqsVMyygKUTFispSQgJSr1givomLEXCoRCfFy5M7jCHniMSwZswRhB3/E4pBgLDunBRKvY//ymZi5KVx6X3p6REXHiXwMDymQZrGK3MjjKEfisSUYsyQMB39cjJDgZTBltx/LZ87EpnAdrOuHYEILZ+hvrEPXCiVRp213dO/UGD5Vp8KyczdTXskIUYa/oSFKEJ/pTUcGCvPKY98Co8c0QG79dXzbzgcVW3RBoAgey/kE40GbfqhqvMzHHi1Gj0GD3Hpc/7YdfCq2QJfATmhazgfBD9qgnymRaKqxmNXNE5r90zB4+SUpMI3CyYXLcaboMMwaVMK4hKKiYGiKtPc/JEIrOgHFxhjXJbWX0rsjhvoVlM5uvVt7vZ/tGRMhNi5eamfDa8ChxUR87psfr3aOx6ehN6W+9RJHF63GlfIjMaO3h3GJWSwro3aVHNA/FAFDnLTMyMy2FJ+i66vHYebxF6a3wQ4u+R1hU6Y2qonA6G3rzWs/8/qCoa7iRSc11pXWvM8C5HbIldMK+r+OYtvmMKydMBWbDN+KULzISwQ8CRpozBgPSoj4hQz3kokgKTExQeyJROxLglbkEx/32j0wmtvhuK+zReVaVfAO528YY+zjID2N7L0zZP0Bs2fsb3vXPvrqyjaa3qsZVa1Qjeo2aEAN6lajSjVaU/+5e+lW0pOF04u5St+PbEllChakEjUbU/Omzanr5B8pXHqEagoN3d49lQKqepCrVyVq2KoltWj3KS0/8cz0GFfxb+Qfa2h0oD/5tmxE1Yt+Qs5eNan7vN/I8GRg7f0DtHhIXXJRgGRW3uQ3bg2dfPaCzoaOpzZFLEkGBTnVGkBzv19N4xp5koOtI7lVCqDZhx7SlUVNycnOhaoN3Jj8mNw0tLdo76Lx1KGkrTGfvNX70pc7r5NW7NOjPeOokacD2Tq6UaWA2XTo4RVa1NSJ7Fyq0cCNN1MefRxzmdYPb06l8tuSSm1HLuX8aVLY/ZRH/hoYtjM/hJoWUpFMpiK3JsNo+uI9FJ4mUVq6R3vMLM8rOvtNMNXzyk1WVo5UsJwfTdwZLj3WOcWrs99QcD0vym1lRY4Fy5HfxJ2vt5XmNu2eGkBVPVzJq1JDatWyBbX7dDmdeGZoKS3dP7CYhtR1IQVkZF2oJrVp34E6dBA/beqQp62coHCm2j0G0aAedUztZeFFftP30O1EsY+p2su5ziD66q3t9R63V7s7DRjUk+q7KET921DxdhMo9PQLU5njrtGWMW2ofCFR5qqNqXXr1hQwYhX9HmnqnVnxfFMnyqfypCGH0j7M16y2jAmlbt7FyNuzNNVt24P69etCbQOnUtgdqaHftt4g0/ZLkWlf0N6ksLnBVCOvqF9RVyU7TqBli0ea9VmIPDiRGrg7kr1rDRq85TZpbobR3OAalFcu2samJHWctJHORWc+HkT9sZEmdyhO1jKQwqk2DZi5jS7cOUzfTmhHxaxlxjavM3gh7buT9OFJpJOji5MqT3ta/9rf32GMsX/eu87F+C/xsyw7ceIEjh8/jt69e8PKKu1TfLIT7qPsX6FPQPST2/hj30pMGLkWhZZdx4qmltLKD+Cf3p65Es5gQtXa2N7kEE5PKZvJE9DYe6O7jGlVK2NLo19wbHKF5MdoM8bYv+Vd52J8CRnLstDQUAwZMgTFihXD1q1bOQBgLCvkatjm80L1gGkI/aLlh7+R+p/enrnU5TDiqwFQblqI3e/20DaWRTFHlmOjNhjzQzh4YYxlbxzAsCybNWsW5s6di8jISPj5+aF+/fq4ePGitJYxZh458jToBj/Pf+rcwz+9vbezrT4J60bEYt7o7WkeDMA+gJdHMGNuBAasnYTqb/hjsYwxll3wJWTsnUVERGDMmDH45ptvjI/1DA4OxqRJk+DoaHim1seP+yhjH4MEhG+bjvmXymLQiJYozKcG3ruEe79gydfH4dJjOPw8uIIZYx+Pd52L/acCGGdnZ+k39j49fvxY+s1kyZIlxvtjkvrAx4oDGMY+HrpnN3BLVxgeefnCgPdLjyc3wyF383jnv0nDGGMfCgcwZqhevbr0G3tfDO179OhR6ZXJvn37UK9ePenVx4sDGMYYY4yxfw8HMOwfd/78eQwePBgHDx6Eg4MDJk+ejH79+kGpzB7PE+I+yhhjjDH273nXuRifq2dZZrh5v3///ihbtix+/fVX9O3bF9evX8fAgQOzTfDCGGOMMcayJz4Dw7KsT58+WLZsGWrUqIH58+ejTJky0prshfsoY4wxxti/513nYhzAsCy7efMmrl69iqZNmya3c3bEfZQxxhhj7N/DAQxjWcR9lDHGGGPs3/OuczG+B4YxxhhjjDGWbXAAwxhjjDHGGMs2OIBhjDHGGGOMZRscwDDGGGOMMcayDQ5gGGOMMcYYY9kGBzCMMcYYY4yxbIMDGMYYY4wxxli2wQEMY4wxxhhjLNvgAIYxxhhjjDGWbXAAwxhjjDHGGMs2OIBhjDHGGGOMZRscwDDGGGOMMcayDQ5gGGOMMcYYY9kGBzCMMcYYY4yxbIMDGMYYY4wxxli2wQEMY4wxxhhjLNvgAIYxxhhjjDGWbXAAwxhjjDHGGMs2OIBhjDHGGGOMZRsyEqTf3yuZTCb9xhhjjDHGGGMZy2o4wmdgGGOMMcYYY9nGBz8D84GyZ+xv+1j6qF4TD62FJdTSa8YY+3ASEBsrh7W1Unr9/ujiY6FVW8PiLV+NGtNZinTS6/8ibUIC5Gr1e/gWWYuEBDnUav4+mmVP7zoX4x7P2DvQx9zD6d3rsGzBXHy16FtsOnAVz7XSyjeKwp8/r8SX44djYN9eCOoeiC4dmqFG5+W4q5OSsOxF8yd2r96Jq7HSa4P4awhbtwc34qXXjP0TtPfw04LJWLDvnrQgHc09HPl2NNqWc0OpYQehkRb/ffG4e+Q7TOhWCx75m2HxXb20PL143PttNSZ0qYHC+f2w6om0+D/oxQ9BKGznhEYL/sTfG/pf4IegwrBzaoQFf76/g4jubhhmjpmLn++99aDG2L+GAxjGsiLhLnZP9oNPGV98efgJLPIVQH6bl/h9aWeULdYQI76/gtRz2WQJ17AqoDzKNuqBkCmzsXDpCqxcswmH/nLHwCm94aGQ0rFsRfvneozr5Y/2005IE0ItLs0NhF/3Efj2Ah/82T8k9jwW9xiOU2UHYmB9V2lhanpEnD2OC5ePYf8fEUiQlr4X2r/w+JUKLy+dxJ2YNwUvQsID3IlIxIMzJ3Av9r99ZYalS3FUqFgePoXs8ffuFraES/EKqFjeB4Xs3999x4oCTTB8gCd29u6EhX9keERj7N9nuITsQzBk/QGzZ+xvy3Ifjf6d5jbJT+r8rWjp5XhpYRINXV/pR66qvFR7yhGKlJaaaOj859XIqVQXmrX5V/r98g26/eAvehGnk9azbEt7nVa2dydrx6o0dM3PdGDrRGpYsADVHbOHHnHzsn+C7hFtDixNDeZeJa206E20N2ZSNZWCXPv+TOlHsL8nnn4JdiOFuibNuZVZx4+jrZ1zkdyiES2JkBYxs0Xtm0Pzj2qkVx9ezImxVKlYd9rCgxn7gN41XuAzMIyZ5QV+CumAkJ/i0HDSIvQsmv7qbTU8ui7AlOY6HJoUgE+3RSD5u8iXuzF3qxu+CluFYX41UbaoOwrmzwt7S/74ZXsKDwRuOI+rP41BhcQ7uJ1QAdMOX8MvUxvBiZuXfXB6PN4yDJ/uL4/BPYvgbSdyZWoLqN/fF/WpyKBSKc06m6BSq6TfWJZozmPh5G9xLc4w1/tnWFf8FMPK7MGQEdsQkcnJNcb+DXwTP/vPykof1V2diVo+o3DMpgM23AhFW3tpRTpR27rA038dnpcahxOnJqGsEni2thO6PZyA7SGGCYYWsdEJUNta46230GrjEatXwzrNzZk6xMfqoJLH4UWMFnILO9jbproRVBuDyJex0CYdbOQq2DnkAKIjEZWQvBAKKzvkFO8z0MZGIQZWsE93U68m6hlexae8R2ltD2v9yzTLFJYiH7vUjx8Q5YuKAaxE2kwLKMoRrYEyXT3oYiLxIlabEvylJlfC2t4RNhnmq0PsixeISczwneK9atg52kMZF4mXyfnLIVfIobbJATuLzKZ+WlHneqitU99wq0VM5EvEplQ0VHYOcFDGifqPS65/fXw8lJaWyeWRq+xgao4oJDWHNk78rrAT7Wx4lbZtkttAbFivF/ubkhPUdo7pgmA9NDFxkFnZ4N3v5zW3/cS2omPFDMc20xu29ZpoxMIatpne1W1+/eZANCKjEpJrIcP6dVAiTrw3Lum9cgWs7HLCVKVvKt973J4+DvF6K1gm5S/1vbRNpUFMnAxWNn/zJu6Ek/isXE2srrQF11c0EzX9Bgmx4jNuCasni1C/8Ke40WMPrn9dP91N9Bm0gyYKz6LjRd8zlNVGlNXaOIZFJ5VXjC82Dg6wViTg8KfFUXdxfsy8dgCfuokcEuIRr7CEZZqPVjx2BRVCy3WlsfjeHvTJIy020MUjWqOEbeYdL1NvGstSmD4jouJFv02AJkEJizQflretl2Q4Nqcj2tj0EbHIuI1FeWO1Io9Un4037n/8nwjt1wpBa2MRsPk4pldXw9I2lxi3TKszfnhCRp+rFNpYw85J469WA43MAhkNg9HimFa440X0/e0UJpd797Zh7E3eOV4wBDAfgiHrD5g9Y3+b+X1USzdmViO1DKSuNZduZ3I2XXd/PtWxkBFUPjThXKJYEkPbejSnz8/foB3jOlKLNl0osHMzKufuRTWDFtDRp+kzS6S7e76gIF9f6ti9G/nV9CZ3H18au+2G6ZIPzXEaWdKWcrhWonbBg6lPyzJUwLMuDVx3meLEat2jY7RmQisqrJKRzLYMdZu5lc5FRtGlH+dQz/IOJJcpqWCzsfTt4XC6uXUkNatSk1p1EdupUoicvZvSuLCHZNqjeLq6cwZ1Km5FMpklebf/nDaefkhXds+j/tVykZhmk0vDUbT84G3TZSuam7R1ZDOqUrMVdenmR1UKOZN303EU9jBd+WKu0PcjA8jXtzU1reZBuXJ7U9NR2yjceFVEHO0IdCHn8r7UvVdv6lTVmRTynFTOvxf1CvSjqq75qN2GaGM2r9E9o5PfjaTGBSzJvUFP6tOnD/Xp1YpK2MlJbl+OgubspMsxOvrrRChN9nUnlUzsf/UACurWlhqUdqG8HnVoYOjVNJfVJN7dQ18E+ZJvx+7Uza8mebv7kO/YbXTDkEj3iI6tnUS+7ipRP7ZUJnAWbTv/grQPfqWF3UqRjUxGik8a0+Cx42hCq8JiezKyLdONZm49R5FRl+jHOT2pvIOcZMoCVC/An2oUVJMMMrIu04MWHbwjXQqkoWs7x1ADJ0sq3GoMLfhqHLVwUxJkdlS2x2z64cIrYypKvENhUwKoWbN21LlzK6rk6U4VO0ylsLuG/mcmc9tPc4t2TgqktqJOenRpRmVcC1OtfqvoQppm0dCtnZMosG1H6t6jCzUr40qFa/WjVWkTvUP9RlLUxe00u2cFcpAn1e94mmRsT0P9BtKsbefphfYB/bqwG5WyEZ8BxSfUZMxKOhL+Z+ble4/bazzoMxozpDm5KUEyu7LUY/YPlNJUYTQloBk1a9eZOreqRJ7uFanD1DDKSlOlFrenD7kqrKnZiqfSktR09PTYQgqqX4Ma+AdQ+0aVqXrz2uShTHsJWWbtoL11gL6Z0pa8xJimKjmGThn2U/eAjqyaRH5eos8mj3MaOjTEg5TqmjT7/HFa2MWH8qhlJLd2pRr9vqNLMcZNCXG0s4dTmkvIYq58TyMDxPZbN6VqHrkotxiHRm0LFzmaS/OWsczk1akFYlztSH0//ZT6dWlB9aqVpjbz7iSnedt6UVOZj80Sza2dNCmwrUjTg7o0K0OuhWtRv1UXKKn3R93cT8vHdKKqBRypwULDPr5l/8XY9uvsXuRbzokUom961fEj/7ZdaPaRZ3Rz/3Ia06kqFXBsQAulvpzp50r7lM5vm0MDW5SifIX7UNhfp2lJUCXKbyknhX1R6rTi8mv1rnu4kOpZKKjQgP1pysnY+/Ku8QIHMOw/y/w+Kg66Qc5i0i4jO//1IiTJRNwWCsgpF5NMB+qwUaTUXqSpzTvRyN4lqGjQdvpLOhpqri2jlk5Ksq88kY4lz+t0FPFjX/J2akDzrkiHEd1T+nlwCbJQFaQOa0WwIAKYUdUai/XSjEf3mFb5OpLcSkwcrktXwMcfoIGFFaSqNI2uJF8Ur6M7X9UmtSI/Be2KJ+3lmVTdRk215koH6PhjFFJMScqiI+hY8hEskU6PKUkqVQkafTJphqWjx4vrk1ruQB03G0ImAy1dnlmdbNS1aO4dUwHjj4VQMaWSio44lnJA1N6i1e2rUsCam9KBMI7Oz6hFOeRWVOazoyLr2zQ/aAjtizImpqvTK5NKWZRCjptySLwwg4K/uCD26k109HBRC1FPUgvF76HenyhIXWce3ZXq3SB+Xz8qoFBR9S9vmgIFbTgtqG9Hcpt6tEC6fl8X8SP19XaiBvOuSPsvJoM/D6YSFioq2GEt3Ta+MZ4ODCxMClVFmnY5uaJFk0+m8io55Q/aZSxn/IGBVFhsr9K0K1JgIuju0Fe11aTIH0SiOSjm+BgqYyEnB9/vKM1UNOoH6l6yA603LoynsF4uYntVaUZSW4vJ5JbuXlTA91u6mdQlHm6jHh4qsvTqRdsfpyr4G5nbfncoNMCTSvTbQ6a4W0vhs2qIwF5FJUYfNyYxLLsTGkCeJfrRHik414bPohpiMqsqMZqkpvxb9au7PYdqqV+v34rTLqfUr/jcTS6vIrmxfs0s33vbnngdH0a9XMRnsOoMSmmqLdTdqwD5fntT6sOiv27rQR4qS/LqtZ3Maqo0NHT4Uy9SKj3p08MppUgSc3IaVXcqSQP3RogtGbyiwyGlRXulBDBmtUPiaRpbSpUSwBgl0snRJcTYkC6AUbpTtRatqNvoGTRnWn9q4GYhAkIVFQ7aIfWZtAGM9tZqal81gNbcNOyNYfV5mlErhxjPytBnR5PGl8yZNZYlnqKxPiVo2G9JC6LpxLgq1Pgr6T1vWy/+fevYLBZp74RSgGcJ6rfnqel9YmyZVcMQ6Ikx1Nj5NRR+PIzWDygjgmA11RMBTIJZY7GOHiyoK8ZvNwr+RaorTTgdD1tPA8qIoFtdzxjAvK09w59cokM755Cvs4LkeapT28AgGr9yF+3ftYDauytJnrs9bXhufGMK0Zd7ir6s9B5O/+DtN+w/5F3jhUzOfzLGkmjiDc+YkkFl+YbLAZLIrGFlZTgdarj8QPynfYKIe3uxdLUeLXs1Rl7pzWqvHvi8f1nEnZiJEYuvmh6lqTmBL0O+wV81g9DNW7osS54L9SeMRxvHe9g0agr2xORAiaCRCPKWTuXLbZDDVgXo4hCb9FxUmQoqpdgHlTrN35ZRKQ3XByihthDJo17iFeWBu0cuU3ksSqJkETX0j+7hfqqHZ6mUhuvVRX7JGcmhVqlETYi8ky9l1yHq5StQHnd45DIV0KJkSRRR6/Ho3n0kZac5NBtTjjrBx+Ea9oeFISzsAO7m9oCLPA4X1oeKFGpU6NEPtWxN6dNTFu2IrmKl6WRzRuSwd8gLm/T3FomdT32pjEzsvyp1JgpnFCogNprwFx49NVwGpMGJL0PwzV81EdTNW6pDOXLVn4DxbRxxb9MoTNkTJZYlXfcv6iJpA7HnMH/catzQyaCUFhq2Z2qONK0BU3OY9s26wiCMaJkLUXu/xXc3Uh6H+mzHepyrFogWuQyvZLC2soSYEEIt3cgQs38qhq+NQaPeHVE4qUs4t8TU0Y1heWMlhn9xxLQwU+a1X/TeKRi5JS+6DqsPUzIFCrTpj+AWDVDN29GYRiTClJFbkLfrMNSX8lIUaIP+wS3QoJo3HI2XqPyN+jUQ9WhYmr5+1SmNgHPzx2G1qEeZsX7NK9/7255gGAcsZSKtyMvYVDHYP3U41sY0Qu+OhaXLJuVwbjkVoxtb4sbK4fjiSBYfbKx/jvMX7kAnywtn53TX/uiuYNHQz3Gu3GCMqZdHbMnADlUC26FM8lVA5raDCooMrhwyjAOvkdmj3uTvserzEHz62UKEHfoW7fLrcWv9XITeS7rwLokGh2ZPwVEnHzhc2y/GAzEmHLiL3B4ukMddwPrQ41K6zJk1lmmu4dLVcBzc9hueGHfDBuX7h6B9QakN37rejLE5Khp7p4zElrxdMay+tC+KAmjTPxgtGlSDt7Hzq1GoUmO0blAaDqaPsNlj8WvUhVCpcWs0KO0geqfB29tz2glX1GjSDrW9xb7o86D558swKbAp6jTti+HtvaF4cQFn/0z3jDrFJ3B1kkN36xz+iEzfhoz9e0zjGmMsE3LkyWM4uBDiXr5Epn/eg2IQa3hEqDw3nJxMkwqKisQLcoZrgdSzAAWKNGkEb2UcToX9hAfiuJBwejO2Xyc4uRWElZTKyLE+GlexFge0fdh9tjACutcWh1dx/ImPwLnQEZi61wEtp32FAcXTTWIyoa44FWciw7G8OXDrwAqM690TS88kgrSJSJTSGBivTSWNCOBSDlxaXfq/N6BGxalnEBm+HM1xCwdWjEPvnktxJpGgTUzKTYvLBw7jniEgiolGdLTpJ9auESaFbsSGOQGizpxRuaqXNLnLgMIVlSq7ZXKjsh7PIkV15TZ/WKPYxzi7YSQmbX2FQr5D0NUwu0s4jc3br4Oc3FAwbUOgfuMqsNY/wr7dp6RlqegfYtuoz/GkfRB83liIN5Dnhd/Q7iiScASLvvpVTHcF/R1sWHsbjbrXMbb36zQ4uvlH3IUzChRIPZmUI1+Txiiv0uHWT7ukZZkxp/00OB22H4+t3eDuktICikLtMXf7Lizp6mV8rTkdhv2PreHm7pLSTopCaD93O3Yt6Qovw8J3rV+z6PFw2yh8/qQ9gpIbwZzyvauMtpcBzVFs/vEu4FwAaZsqH5o0Lg+V7hZ+2vWHtNBM+sd4LGbbJIIlW1tpNizRXtqA9ScSULB0aSnYNJHlsINNUtIP0Q4yWzg4pBRQ4eqPAe3coYi/hN/Pp5sYay/jwOF7MA0JSWNCLOwaTULoxg2YE+ApJcycWWOZZWXUr2GBs7MboWTlLpiy8Rwic7dGYOt8pknQW9abNTb/dhRh+x/D2s0dKR8RBQq1n4vtu5agq7Hzm8jUquSHKZg7FmdMhNsiSDZmZXZ7im2LriqzyoN8OZM6hxgz8uaGjOIQk/4hATIb2FiLsVIfgUePOIBhHw/zj/SM/WepUbJSGdjJCYk3LuNqJn9EQfcgHHei9ZDnqIDqZS0AZV7kNc4gDH8t2ZQmidLNFflFnvoXz2H4Ykt77y4eidggMSH9Ycsarq55INe/RORzKXjQ/4WfZg3H6Dn7oa/YDA0ruiH9iQv99Q0Y2rkjOnY0/ASg/3dXTGd6jPR4fnopetdvgTGH7OE/fRmCKyR9o5xECZfixZBXdg0r+nZAz/590DMoCMM3XEuVj0T/HKeX9kb9FmNwyN4f05cFI212OjyNeC6CLlsUadUWbdum/fFvXVlK93ck4s8bOhRMOhWRKT3+3DAMnbsGYdCEdbieqwZaNSwB4/Fcew93TQ3x2gTC2tUVeeR6vIx8Li2RUDROzhyGXT7TMLFmDukb0dT0uL5hKDob20L8BPTHd1fS1qJFxf4YVM8Gt9fNxrq7emivrMXG+DboVi71mRtBdw3rBgeIfDpjws5HomYTodGknXTIHcVE2VEGepVuP9/EnPZ78hy6uBeINEZXGdM9fYLnuji8yCzRu9SvWQjRJ2di2C4fTJtYEzlSN8Jby/cuMtmeRHdtHQYHiPbuPAE7jWXWIG1TyeFYoAAcZYRXz7NaZq3x5npD26T/TiHh2jWEa8X0OaNTJ0k+WDukpkThQi6ilNIZ6dR0TxHxXI942yJolW48aNvWH60ru0gJ38aMsUzhjr4bfsayvpWhvLAO4zuUh2eFHvj2gvQ3Tt6y3qyx+dkTPBHjc9yLSNMXEJlK0znNGIszkZRVVtozg74ql0sL08UvkFnC0hhtaUXAb1rE2MeAAxjGzODQpBvafKKA7sbPCLv8pvP6evy1/yAuaJVwa98HLXOKReLAWL5MXih0dxEenm7014vgRRxJrAoUxidinqHI54Tcch0eXrkMcVxPRSYOLnLIlG7w9Ey6fCEfmoz9DrtPHsUXn+zCoPo1ELwz0rROIvfsgDlr12P9esPPOizqWjT5W/HoX0ehQeMZiO+zHmsntEXpXCnfDqaW038VLv15HFtmDUavfqMxc/FyfBVQLN1ZkGj8OqoBGs+IR5/1azGhbWm8np0CDjlzABH78MP+l9KyJHpEXr4k/f43aK/jREQ+lM1nzrAmh1cHEShs3oXDV/7Edv8n+Lp3fbSY/ge0inxwyi2H7uEVXE7bEJCJdpDLRPt6pv52WIdHW0MwJ2EAZgd6vOEMkhyeHeZgrbEtxM+6RehaNF0lyQsgYGhHFIj6GfMX/YbfVm2HgwhSPNPXpaIIAuatE/mswWcNxeRJewdXrkRLK5PIYDh5pihozrfY5rVfrtyOkGlOYM9PT0SLpRaLEz+YzvQocuUWk3ENTuz5SboUJ0XsiR+w646YYGW5fs2je7QVIXMSMGB2IDzSNII55cu6N28vhaJIAOatE+295jM0zCOH9s4VvN5Uoq1E/RbMapnluZHTQfxv+NY8Ol0Aa2EJtUyHe9evI05alobhsnOz28HUl94NISomDqQoDC/PdJWkcIBpSPgBrw8Jkbh86a70InPmjWXRiFGWRdDiQ7h2cSe+6FAUdG4V+naYhGPGwCrz9WaNzV75kNtRBs2JPfjp9c6PH3bdkV6kZe5Y/FYf6HNlOPuqMR66HOCY8507AmPvHQcwjJnDvgkmzWgPV1zAN19swsN0xyejqMOYPe8XaDy7Y+7EetIZEQvU7uSHQrJ72Lv9RJq/0p8gJhe39fnQrFNTGO4gsKjki6ZuCsQd24Itd1N/pRqFW7cioPLxR9vi6SYB8lyoVb887HR3sDfsrLTwbTQ4si4UlzReqFA56fp4wwM9xH96fbov4OSwdyuPWvVqoVIJN+TM6HG4miNYF3oJGq8KqCwmaUYiM1N2SbkpUbxWdTjjLr4bMgDr/ky5EE/3YAfGz/lFevXudNd+xPl8DZH+hMVr3yimJ8+Jqu2biEAhGmf3H8ETVSX4NnWDIu4Ytmy5K8KTFFG3biFC5QP/tsWlJYL2HHZerosZY6rhDU/XNptt3cHoV0WFq8uC0HuPN7r4589kkLZE9ZYN4SR/hYObf8TjVH1S/yQc4c+tUbVtG2lJJsxqPwv41K2OvHiG7ZNGY8fDpFrRiwnoZMw9Yyq5hU9dVM8LPNs+CaN3PEyuO70IXCfPPQN7w2WVFlms3zdK3bBanNt5GXVnjEG19I1gVvnMYeb2MmJZHS0bOkH+6iA2//g4VQCox5PwcDy3roq2bQpJy8wkd4K3V27I6Sn+ikhdi4C6fDVUsCW8+OkbrLmZdp2hHFptAsjcdpDbwc5a7OnLZ3iR3KDPEX7nudj7xMy/ldc/wdFjV2FVpRM6pB+7lMVRq7ozcPc7DBmwDilDgg4PdozHnF8yOdWdzMyxLHYXPp9+RKQGbNybYmToIWzs4w66cQZnDZP9t6w3a2wuWwF1TZ0fk0bvQMpHJAL7Js/FGXsnaUFq5o/FpkfNZnIW5L19rtIRbfj0OUHu6IkiqS4fZezf9uZjI2MsFTlcOizDzsXtYbOzP/xG/ICbqW6Gib+1C+Nad8RKVSBW716AlqnOAljWDMG09i64tWIIPgszXPIjaO9iy8Jt0PrPxnQ/6cBlXRtjZ3WDp2Y/pg1ejktStBN1ciGWnymKYbMGweva95i5cBf+TPoWV/cQu7YfxSvkQoWqxUzLKApRMeLQl5CAlCkA4VVUjDgwJiIhXo7ceRwhTzyGJWOWIOzgj1gcEoxl57RA4nXsXz4TMzeFS+9LT4+o6DiRj+GSEGkapsiNPI5yJB5bgjFLwnDwx8UICV4GU3b7sXzmTGwK18G6fggmtHCG/sY6dK1QEnXadkf3To3hU3UqLDt3M+WVjBBl+HsdogTxmd50JNE/xvb5v6NUYE0xrZeQONhrxWQgVtRHqpmAXuQbmyYAjcflnw4iXKuCe7myyCm3Ru2xs9DNU4P90wZjeUpDYOHyMyg6bBYGlTBMxkz7SEpvdBzqh4LSsZ1eRSFGzEASE+KNExCKMrw2NEeqCRm9MrYRJYrypZ6lKLwRNKQN8kaFQ1srEE2le+NNCLFxIk9j3Zve5NBiIj73zY9XO8fj09CbUnu/xNFFq3Gl/EjM6O1hXJIpM9vPvsVojGmQG/rr36KdT0W06BKITk3LwSf4Adr0q2rKy74FRo9pgNz66/i2nQ8qtuiCQBGgl/MJxoM2/VDVeGVMFutXTNrS3KqSqBWfIVEXMYZ1SfWrhHfHofBLaYSU+pWbV773tj1joljEiV8oQQNTUzmgxcTP4Zv/FXaO/xShN6W+8PIoFq2+gvIjZ6C3R1Ynh5aoXLsKcugfikl02vMs8vydMHZIedi82Ithjdvh863HcP70biyYsg6XdISnx7di5foT+GSUGe0gz49yZVyB+1swedRSbNq0DGODhmHnUxVkujs4uP47bD5yFwqF2H/dbRzec170QIN4XPluCL64VBezlgyE4b5xw/gRJ/owKF78b4n6IRPQwlmPG+u6okLJOmjbvTs6NfZB1amW6NzNjL4LhZljmQ7XV4/DzOMvTG+DHVzyO8KmTG1UM94z95b1ZozNJZT2aDF6DBrk1uP6t+3gU7EFugR2QtNyPgh+0Ab9TJ3fiMSgFi/GiASN1sz9l8MuV05Y6f/C0W2bEbZ2AqZueihqk8T4KI0JGjM/VxSN6FhDXxXHAtMwIoh9SdCKfAztkrzQRHMb4fd1sK1cC1XSfznE2L9JehrZe2fI+gNmz9jf9q599NWVbTS9VzOqWqEa1W3QgBrUrUaVarSm/nP30q03Pfkz5ip9P7IllSlYkErUbEzNmzanrpN/pHDpiZgpNHR791QKqOpBrl6VqGGrltSi3ae0/MQz0yM2xb+Rf6yh0YH+5NuyEVUv+gk5e9Wk7vN+Mz6mVHv/AC0eUpdcFCCZlTf5jVtDJ5+9oLOh46lNEUuSQUFOtQbQ3O9X07hGnuRg60hulQJo9qGHdGVRU3Kyc6FqAzcmP5I3De0t2rtoPHUoaWvMJ2/1vvTlzuukFfv0aM84auTpQLaOblQpYDYdeniFFjV1IjuXajRwY9JjY4WYy7R+eHMqld+WVGo7cinnT5PC7qc8jtbAsJ35IdS0kOFvcqjIrckwmr54D4WnSZTixYnlNKiJB+XIX5F8O3SgDtJPu+ZlKa+hHqyLinoIpbNROnpwcAl9Wjc/KSAnB6865NvWn1rWKUNeRatT+3Gb6Wqq9tPc3k1TA6qSh6sXVWrYilq2aEefLj9BzwwNob1PBxYPobouCoLMgrz8ptOe24n06mwojW9ThCxlIIVzbeoxcBANqesiticjK28/GrfmJD17cZZCx7ehIpYygsKJag2YRz+bnhtsEv8rDfH2obGnUzWC9g79sngo1Rfbk8lsqHi7CRR6+oVpXdw12jKmDZUv5EpeVRtT69atKWDEKvo90tRj3i4L7ffqLH0TXI+8cluRlWNBKuc3kXa+1olf0dlvgqmeV26ysnKkguX8aOLOcONje1Mzv36tqVDNNtReatc2dTzJVi7V76CU+rXw8qPpe25TotjHlPp1pjqDvqLvV4/JvHzvcXu1uw+gQT3ric+gjGQ2xandhFBKaaotNKZNeSokyly1cWvRVgE0YtXvZHZTpfd8E3XKpyLPIYekx+amontMB78MoEquOUht4UCFagTRoh3TqIFzCWo+YA5tv/jcOKZk2g4S3cNdNKqOG+WwtCWXCl1o/vEIOju+En1Srg0NWxRGV1+IxFFXaNu07lSveEEq4F2J6jRsQK16zaH9D6S+bejDC4Kpeh7DY+atqVjb8bT62FMxJKyn4c1LUX5bFanF+FPOfxKF3X/Dhz0Dukd73j6WxYRSN+9i5O1Zmuq27UH9+nWhtoFTKeyO1LPftt7obWOzyauz31BwPS/KbWVFjgXLkd/EnanGeS3dDJtLwTXyGh/Lb1OyI01Ytti8sTjyIE1s4E6O9q5UY/AWuq25SWFzg6lGXkN92lDJjpNo47nozNsz6g/aOLkDFbc2jT21B8ykbRfu0OFvJ1C7YtbGcd25zmBauO+OaZtC4snRVFyVh9qbnuXO2Hv3rnMx/kv87D+L++j/Ax1uza6Lst8UwOeLxqFtxcLIZaM0ndHSaxH95AZObJqKgeMeos/5fRjsmnJm7GOl+3MWmgyUY/Huocjyl/L/AfqEaDy5/Qf2rZyAkWsL4f69FdKaD+Of3l7WJODMhKqovb0JDp2egrLprtJi7O/R4fK0qqi8pRF+OTb5PTz4grHXvetc7OM/mjPGWGYUhRG0aCmC63ghT1LwYiBXwjafN+oNWIElvd50c/3HRoOT32yDXcdOKMzBS4bkalvk86qOgGmh+ML4pIwP65/eXtaoUW7EVxig3ISFu9M+xIOxvy3mCJZv1CJ4fggHL+yj8585A6PT6YzPmWf/DFtbW9M10R8xPgPz/0CPyBPHcK9MNZTK5ACrOfcbzrlVQ8W/e5f9h6C9ic2TZuIXXTFUzH8JS9flxJwDX6Bq8s08LGN6/HXyFPJVrCS9/tD+6e2ZL+HaN+gWfAod1i1GKyf+XpK9Dy9xZHw3fO06Hd/2Kmr6A62MfQDvOhf7zwQwBw8eRJ06daRX7EM7cOAAateuLb36OHEAwz4KT1ahlUcP7HgFWBRsiVnbQzGgtLW0kjHzJIRvw/T5l1B20Ai0LMzTTfY3JNzDL0u+xnGXHhju58HBC/ugOIB5i8jISJw69a5/3ZllVYUKFeDomOYRSh8dDmDYx0GHiDM/Yu/NHKjQqDaK2PM36Owd6Z7hxi0dPDzySgsYyzr9k5sIl7vB4338wSTG3oIDGMayiPsoY4wxxti/513nYvxVH2OMMcYYYyzb4ACGMcYYY4wxlm1wAMMYY4wxxhjLNjiAYYwxxhhjjGUbHMAwxhhjjDHGsg0OYBhjjDHGGGPZBgcwjDHGGGOMsWyDAxjGGGOMMcZYtsEBDGOMMcYYYyzb4ACGMcYYY4wxlm1wAMMYY4wxxhjLNjiAYYwxxhhjjGUbHMAwxhhjjDHGsg0OYBhjjDHGGGPZBgcwjDHGGGOMsWyDAxjGGGOMMcZYtsEBDGOMMcYYYyzb4ACGMcYYY4wxlm1wAMMYY4wxxhjLNjiAYYwxxhhjjGUbHMAwxhhjjDHGsg0OYBhjjDHGGGPZBgcwjDHGGGOMsWxDRoL0+3slk8mk3xhjjDHGGGMsY1kNR/gMDGOMMcYYYyzb+OBnYD5Q9uwDiomJwbVr13DmzBlcuXIFbm5u8PX1RVxcHL7//ntERUWhVKlS8PHxgbu7OywsLKR3Zi8fSx/VxcZCa22N7FmLjL1Or9dDLufvxzKi18QiQWkNS4W04G/Ti/qWi/qWXjLGWDbyrnMxDmBYsvj4eFy+fBnHjh3DX3/9hZw5c6J58+bw8PCQUpj88ccf2LVrFxITE/HJJ5+gRo0aKFy4MFQqlZQie/g7fVQfdRsnD/yK329GIFZuD5diVVG/VgnkUUsJMvQSV8I2YcfRK7j/5BVi4zWIi3mK+6rmWLkmGO7vbULD2L9EexdhC7/Fn8V7YHCDAtJClixyG7qXbI8fvL7E8Z8Ho8j7+Mzr7mL3rK9xpXQ/DG5cAEppMWOMZQccwLB3Zvi29OrVqwgLC0NkZCQKFiyIChUqoESJElAqMz4cGoKd33//3fjz4MEDuLq6omXLlsaAJrt4pz6acAe7pn+Kz9beR/H2XdHMxxVWsXfxe9h3+O64HfymLMDUTsVhIyVPprmCb7q2wMBNNxEnbU6msEb+il0wY+V8BBTJNPJh7OMXew4L+0zHq35L8VlVe2khS0NzGvO6jsBP7iOwampT5H1fZ030j7F7WHd86zYVqweXe338YYyxjxQHMOydPHz4EOvXr8fNmzdRsWJF42VhhjMu1tbWUorMvXr1KvlysxMnTqBmzZrGy80cHBykFB+vLPfRmDOY27YlRp2rgAW/fI/e3qkv+krAjVUBqNv7INzGbMX2CTXgKK0xrDv/eW003uSF4eOCULf4J8hlnwMOjo6ws+DrPtj/Af0jbA5qghVlNmLXYC/wyUSDKPw861vYDBqMqv/E9xPxpzGhTlfcHvYLVvo78w2ujLFsgQMYliXPnj3D5s2bsX//ftSuXRsNGjSAs7MzbGze7bs7QyBz//59/PDDD8ZLzNq1a4fGjRvD1tZWSvHxyVofjcSe4MpoufQJGi29gO09XV6fIIhJ3Gr/kujxozU6bziFlX75TGlebkP3Bj+g6Y6VaOvE0wr2/0aPxxu7oGKIFb6+uALNPt6P/D9Kc+5z1A94iElnFqLuP3SDW+SWzigxhPDV6TVom4/HGsbYx48DGPZWhkvFDIHGTz/9hI0bN6Js2bLo1KkTXFxc3suN+Ia2NlxaduvWLSxbtgyPHz9Gr169ULlyZVhZWX10N/VmpY/qrsxAzXKjcdymAzbcCEXbN1whE7WtKzz91+J5qbE4cWoyyipFsLi2EwIfT8QPw72g0GsQ9TIeKnt7WL6lOvSaKETprGFvnfr7bC1iorWwkMXgaVQi5BY5kMvROuUb74QoPHkeDW1SkWRq5MjjANnLJ3ipSV4IhbUj8tob2lwv3vICUbCBo51FqqBMj9jICLyMT3mP0jYnbLTP0yyTWzkin0OqvqNPQNSLKMDmLWeXDOlexkGVQ9RDquJpo57gqShfhi0iU8A6Z17YZ/pttrnlSUtmYY+8Oa2N6fXxMYhX2cBQ7XpNNGLIGnZvaCy9qO+XcSrksLdMaQN9LCIjXiLjTclgYZ8XOa2T8nvT/hqa8gmep6oLmToH8jjI8PLJSyQ3ZWIcYskK1kl1YmzvXFBFR+B5rE56byJiYgg2NsmJYJEjD3LapOtXL2Igs7M3ljtLEk7is3I18V2lLfhzRTNkdO7WUE+mbmGHzLtFFF4lWMHBNpM7OQx951UCrBxsM77fIyEa0bCFrSiuJjYeSutUbWPwhr6XlqFdXiHBygFv3JVM+nr8tXXo26on1sUG4PsjU1DVQpQpnwMsjWtFXUeJ/bcz9bckGX/ek2gQHS2DraFQYt80MXFQ2Ni8Xv7obejq3hHnex/BySnlkelHhTHGPgLvHC+IN3wQhqw/YPYsCxISEkgEE7R7924SAQsNGzaMrl+/Lq39cM6ePUvdunWjnj170tGjR+np06ek1Wqltf8+8/uolm7MrEYqGUhday7d1kmLM6C7v4DqWsgIKh+acC5RLImhbT2a0/QL12nbmPbUwq8bBXVrSeULu1PVbl/R4Yj0mWno9q6pFNi6NXUKCqL2tb2pcOnW9NnW6xRvXH2cRpawJlvXqtRp0DAK9i1DnxSuRf2+uyi2JLb/+ASFTvEld5WMZHY+FDRnO114EU1Xds+nPhUdSC5TUsHm42n1b7fo5tYQalqpBvkGiu1UL0z5PBvRmN0PybRH8XR99yzqXMKKZDJLKtpxBm05+4iu7llAA6rlIjkU5NJ4LK08dEfUjqC5SVtDmlKlGr4UGNSeqhfOR56NxtDuh+nKF3OJ1g0T9dCyJTWp5kE5HT2p4fBNdMNYuDjaHuhCLpXaUs9+wdS1en5SyHNR+fb9qJ/Is0bBfNRuQ7Qxm9dp3lIeDV3ft4Imt/EQ7Sj2vWYg9e/fn/r360md6hehXOXG0v6j62laz3rkmbsqTTt/mUKDq1B+0ZYyVW4q02kBnXhhzMgo5tI6Gta+BbVs2YSqeeQkR8+GNHzTDamNrtO+FZOpjYeKZAoXqhkotiO21a9nJ6pfJBeVm3DekOgt+6ujxyc20DTj/srItmwPmrvjIr2Ivkw75/WlSg5ykildqenQiTR5pC95GNrbtiz1mLuDLr7S0sMjS6hHGRvRdkpybTqUJkwcTq0LKcVrOyoX9BXtvBRl3AppbtGPE9pTk6btqWtgG6rqWYjK+U+knbcNfdc8cXv6kKvCmpqteCotSaG5uZVCmlaiGr6BFNS+OhXO50mNxuym9N0i8dZ2GuvbkPwHifIM96OKpepSj1GTaPLkKTR17o90w9DJEm/R9rG+1NB/EE2cPJz8Kpaiuj1G0aTJk2nK1Nm0bucmmtW/GZXIW4CCfjhH33YuSjnEfhUZsJsiDRvJtO8lSaRb28eSb0N/GjRxMg33q0il6vagUZMm0+QpU2nujzdI+5a+rnt6kL4Mak3lnBSiTbyojp8/te0ym448u0m/LBtNHSp/Qg71F0p1kPnnXfv0HG2d1Z+aFc9DhfqE0eNTi6l7+XyklsnJzqsdLbukMWSSQveQFtazIIVbMP0SJy1jjLGP2LvGCxzA/B8zBC537tyhnTt3UkhICA0YMMAYVPzTDh48SF27dqVJkybRvn376NGjRx9FIGN+H42jnT2cxaRdRnb+642BwhvFbaGAnHKCzIE6bBQptRdpavNOFNKrOBXruZOS4hXNjW/I11lJOSqOp9+kuaRx0rq9J3k5NaB5V6SJie457R9aiixVBajD2tti8nScRlVrQguuSRNM3WNa5etIcqsaNOu6VKfxB2hgYQWpKk2jK8nVrKM7X9UmtSI/Be2OJ+3lGVTdRk21594xTZgNgVFxJSmLjqBjyXOiRDo9piSpVCVo9MmkCa3Yx8X1SS13oI6bk2ZIWro8ozrZqGvT3DumAmqOj6TiSiUVHXFMTNEk2nBa6V+ZAtbcNE30Rb2en1GLcsgtqdSo30TWt2l+0FD6xRijaOnq9MqkUhalkOOmHBIvzKDgLy6IvXqdeeUxVM0AKqRQUfUvb5oCLwPtLVrUrgvN2r6RRlazEwFLCWrdxZfafvo5zZkxlJq5G4I4JRUI3GZsP234SvKvHEBrbkoz37jzNKNWDpJblqJRvyXVSTwdGFCIFKrq9OXNlL6uvbWIOvT7IQv7O5AKi/2tOO1yyv6KeppbS03y/EG0y7ALSe1dMXV7a+ni5PKkkov2NiWisF4uYn+q0oykfqK7Txu7epCr77cUntSdHm2nnl4qsvAMoq2PTG2ZOQ0d/tSTlEpP+vRwqh030F6mGdVtSF17Lpm6hYaOjywu0halEakLGX2IQkrZUKG+e8n0UdDS9Tm1yEZuRSU7TaIvF++hcG00HQopRTaF+tJe6fOivT6HatnIyapkJ5o040tauuEHmudfwBj0VvXtQyPnTqWuFQtTqf4/0vO39T1J9KEQKmVTiPqmbITm1LIRn6+S1GnSl7R4z3W6YE5f1z2gBXXVpkBC6iaJt05Q2PoBVEYEm+p6hgDmbZ/3cHpy+TDtnONLzgo55a7WVgRME2jlrv20a0F7clfKKVf7DfTc9E6JaOeeop2VRWj4b+nagzHGPkLvGi9kcjL//0dsbKzxvoykp2b9F34OHz5s/Jstq1atMj4W2XCPy5w5c1CmTBmpVv45tWrVwtdff43ixYtj7969WLlypfH+m4iICCnFx0+j0Yh/ZVBZpr3M5zUya1hZGU6HJkCTIP7TPkHEvb1Y9h3QolcD5JHerHbvhqkDfBB/ahZCFl+FzrBQcxyzRq7Gk5pB6OYtXfwhd0SdsePQJud9bBo1BXticqBEUAi6e0kXj8htYGejAnTxiDPsooFMBZVS7INKneYSEpXScGmKEmqxUBf1ClGUB4U9cpnKoy6BEl5q6B/dw32tYYGJSml4NLbILzkjOdQqlagJkXfyU7N1iHoVBcpTGB65TAVUlygBL7Uej+7dR1J28b/OxtQT+eHjcA37w8IQFnYAd3N7wEUej0vfrxcp1KjQow9qvuE2LGXRjuhay1Zs+3XmlkcmCqJKn4GiADoO740G9VqhRSVnKPQxyOm/BBvmjManIbOxfe8cNHbU4973C7DhXix+nT0VJ/L74H/tnQdYVEcXhr+tSBUsiCIWFKyxKwZRwd5FAVEximI09o6x9xiNXeNv1Nh7b4iJNfYau1ixYS+otF3Y3fPPvXuXJkpRoybzPs8qOzs75ZxzZ+fcO2fG9to+cee+0P33kKuoI+Say1i7+phUKLMVJqC3q2qD/m0LZ6K9KgiqVKuTL/FkfWDqlynVxrODTPpmijWpKfb8LIxYehN6GdO3MRMszLNBxvKq1cZWxewdh+DVcWjQpQ0Km8zJoQnG/dgQ5reWYvDPh4yJ78PwEhcu3mP12CNv3lRLn/RReBNFyO1cFEazUKN0aVeoDY9wP1knNfsWYeklHYqVrwBj+IwChb2booJCiwcohe7d6qNwwj4sWnoJumLlUUGKsVEU9kbTCgpoHwCleg5EF/+m8KtZFArSQOXRHxP6DsPSE7dwfk4TmKdrewIa7Fu0FJd0xVA+qRJ4N60AhVhJd3SrXwCxGbD1tFAWqoIG3nVR1layinSv9wk4kd8DDVt5orgg2jxNMXH+aAQ28kKjHwbCnyW+vngW14VxJhEF8js5QK6/g/PnI6U0DofD+fdhHIH/5Tx69Ajbtm37z7yEQHrBYRAclmzZsqFv376oU6fOZz2nRdjVzMfHB7169cKzZ88wbtw4HD58WPr0S0cOe3thokmIe/WKTXPeA8Uwh5nYV3LBwcE4oaOoSLwiBzg5JV+xroBr/XoorozDqdBdiDAwl+fUBmy7SXAoVBDmUi4Ru9qo/60lm9zuwc6/nRHQ0VPcJtWgeYJzKwdg3B47NP9pBnqWSmvtfNqoq4zH6chwLGgC3N6/ECO6dMZvZxJAugQkSHkExLWppIVWwxooodOL7lYy1Kgy/jQiwxegCW5j/8IR6NL5N5xJIOgSTKXpELb/MCIEhygmGtHRxlesdX2MWbWOOQsBTGZ5UdXd9d3nWCic4Fa1UMp4BomM9idt5LCr7IEyTKgyOeuv3B5FXSXHgqFwbofODXNCpr2Ms2cvYP/hCBi7YepHLKzrj8GqdWswLcBV+tY7YBPUyh5lPrC978fwYBOCJzyFf1CF95wJosXhDSG4j7woUCD5uMBsvWF9VFLpcfvPnVLaezA8xuNnBhBz3K2spIm5CXUVjD8diXBjJ7FwRBd0/u0MEkiHRLNg6KOjEEMGJs8omKxMkSsnbOUETUyM0bnXRyMqhmBgthOVlAk5bdlVqYlBjGSSCmHbd5kNihYvkMxOMmB7InpER8WAmAMbnVQJcuW0hZw5RTFiJRmx9fcgY86n5EBm6Ho/qRVvRCiZA5otlz3sTEYpzwP7XDJQXEzituxGZLC0tGDXrAFP2e8eh8Ph/Fv5TzgwdnZ24oGMwjkl/4WXt7c3OnbsKAbQv3z5EitXrhQD64Ug/s+FTqfDpUuXsHz5cnHDAMGpKl68uPTpl44apauUhw2bUCXcDMPVFHc8U6J/EI670QbIbSrDo7wZoLSHvXinVof4VN9TFnJCPlYmvWYODlONLuI+HrE5UkJ86omQBQrkzwW54TUiI6WZmuEJ/pgyCEOnHwBVbIDaFQtKd6+TMNxYg/7t2qBNG+EVgB7LwoyTQREDXp7+DV3qNMWwg9nhO3E+uldOfpdfQAnHUiVhL7uGhT+0RuceXdE5KAgD11xLVo6E4SVO/9YFdZoOw8Hsvpg4vztSFqfH82cvmdNlhWLN/eDnl/Ll611VypdVMtKfrGLObLUgm8omIF77As9eGqCxKobmqfrg5+cL76qO0nfS49O0l6JPYNKAnaj00xjUsEnlUAjor2FlnwBmD+0wJuQR00oCtIk7AhiR2xZEATs2OX7zUkp5H3o2rhj/f8uvZRhensZvXeqg6bCDyO47EfO7VzY+NUqGeY3GqJ3DgAu7/8ADaYjSXb+FuwZbeDU2OussExrXzgHDhd34IykTbt01wNarMTzfu3liRm3PHDUa10YOwwXs/uOB5EzpcP3WXRhsvdDYVEm6tv5+TFrJzPX+tiblEHxtgZTaY45ONrWYX8ecYQ6Hw/nXIi0l++gIRX/C4jnpwJwVioqKEmNe5s+fT4GBgTR79mx69SpZJPI/xJMnT2js2LFiMP+KFSvoypUrFBf3+SNMM2Wjb0KocwEFyVTlaOTZdwU46+nB/EZkI1OSc+J6fg3t6pKfFIrC1HOftBjexNN5VM9MRjbeS+kFe2uMz5CRRf15lDL8QEsHejmTQlWeRp5LVbf+Oe3q5kpKlTN13i6thtcepv6uSlJ5/EJJ4Rd6ejinNqkVBajbHg1FHRhEZazzU8D6x8YYDIqhVT5WJLPyoVUpgnz09Or2KTqw5wAdv3ibXmj09HJBQzKT21OHrSYdRtGBQWXIOn8ArX8sNTxmFflYycjKZ5UUM5RAJ4eUJpWiIHUOSW2DrMzLF6W/TbwdA/M+Mtof7eH+5KpMFQOTiJaODCzGZOlGPyUFkzB0dHlcJVKpytLwk0dpSGkVKQp2pre78ZIuX7wrvdHS4f6CXlLGwJj4oPaKgdpqUhToRkyVSfr+th/9HORHow8LDUupb6E9f/UuQkp1TSl2I462d3QgucyWfFaKIe5JxO2gTg5yUrtPkhLeg/42Ta2uIqi+pZ+vpepn1AEaVMaa8gespySz8CErmRX5pDAy1tZdQ8nDPhdV6TKVFi+aREHVy1PDEaEpgv31D3fRUA97ylWlC01dvIgmBVWn8g1HUGhiJj09+V89UsvzUlBI8vElE7bHZLtrqAfZ56pCXaYupkWTgqh6+YY0ItS0uUJGbJ2RRgyMiCaUvndUiDEwt/dm7HrXP/kf1VMrKH+XXVL8DkMfQbO8WPmFe1LKYUVPt6fWIDVUVG3yTSmNw+Fwvlyy6i/8J57A/BcRlv4IZ7CULVtWvAM/dOhQMY4jICBAPLhSWELxqRFO9Z87dy7atWsnntQ/cuRItGzZEiVKlBCXtn1VWDfA6Mn+cMJFLJy4Hg+lm8ApiDqEqTP3QuvSEdNH15aeiJihZpuWcJbdx59bTyBWTDMSf+MG7hjyoHHbxhCO/TSr0hKNCysQd2wjNt5Lfjs7CuF3nkJdwQd+pVItCpLnRM06lWCtv4vdoWelxPTQ4vDKVbisdUFlt9zSY1hhQw/2n8GQ6o6uHNkLVULN2jXhVroQcqS1B672MFauusz6XRlupiAfVpixOFNpSpTy8kA+3MOyvj2x8nrSQjz9g20YMW2/9C4rZKY/GSEB2vjk34rCxYu3ISvRBM3Ll4WXRz7g3jL07bkSSd3Q48G2EZi2/z2P5xL5eO1Nnld3LgRhdX7B8GoZOQU/Gzya1YOD/A0ObNiOx8ns2fDsFm5HWqBaKx8p5T3I86K4K+sDPceTpykfwWgPr8Sqy1q4VHZLjP1ivznsXwMSzUIkDo+v3YXLqL3YNqwhyldojvGhp7FzbAPkTWZucY+v4a7LKOzdNgwNy1dA8/GhOL1zLBokz5QmmbC9uMe4dtcFo/Zuw7CG5VGh+XiEnt6JsQ2kgyEzZOsCMjYGs/90uncuCczS9Z4uBjx7/hIkt4NLsYw+DeRwOJyvj/RGfs5XjsmREU7XF+JPZs+eLW5o0KlTJ+zYsUNcYqZPa+1HFhAmJwkJCXjy5AlWrFiB9u3b4/Xr11i1alWiEyOcB/N1Ioej/3zsmOsPq5Ae8Bm0BbeSBcNobodghHcbLFYFYunO2WiW7BC5bDUGY3xrR9xe2BdDQ4VlOwzdPWycsxk636mY2FKKt7CoieFTO8FFuw8T+izAZcnbiTo5BwvPlMSAKb3hem0tJs8JwXWT/6l/iJCtR/EGOVHZvaQxjaLEeAFhzVrSdJrwRljfTwmI18iRK7cd5AnHMG/YPIQe2I65wd0x/7yOzd1vYN+CyZi8Plz6XmoMiIqOY+UImxRIs15FLuS2kyPh2DwMmxeKA9vnIrj7fBiL24cFkydjfbgeFrWCMbp5PhhurkT7yt/Ay68jOrZtgAru42HRLtBYViKEKNZeYTMEzXuDjgQUGe4PRQnxFmweqn1Pobrr2L3tIoTaBaJPzsCMvQ7oMqkfKigtUCt4NJrnM+Dmyvao/I0X/Dp2RNsGFeA+3gLtAotK3zK2n5iz8nZVmW9vyviKBOiYEVFsjPiZSd/CJgcDfIWlbgLJ9S1mQmycRtKb8B6wbToaP7XIhzc7RqLfqluSrbzG0V+X4WqVoZj8fREx5f2YoapnVdgYHuL27TgpzYgiV27YyRNwbN4wzAs9gO1zg9F9/nkIU/ob+xZg8uT1YGYB/fW56D10D+7cOoI9J6/h3oM7uHzqCI6fvY6nJtnpr2Nu76HYc+cWjuw5iWv3HuDO5VM4cvwsridmkuREsXjzJmU4fcZsT4/rc3tj6J47uHVkD05eu4cHdy7j1JHjOHv9qTH2LYO2Drk1cuYwh+HJUWzeEIoVo8ZjvXDXgzTMnpnDE8/sIgPXe2nmv1C0cBaRMLbGMy1KMD3G61g5mrhUMTBa3AmPgN6qKmpWTb6FB4fD4fzLEJ/DfAKEoj9h8ZwPQNjCmDkxxrMpunWjP/74Q9zamDkfUo7MI2zZfO/ePdq4cSN17NiRfvzxR7p165b06ZdJVm30Tdhmmvh9Y3KvXI1q1a1LdWtVI7fq3tRj+p90+10r42Ku0trBzahcwYJUukYDatKoCbUfu53CUyz/EEigu7smUIB7UXJydaN6zZtR01b9aMGJF9ISFj1FnltOQwJ9qUWz+uRRIj/lda1BHWceoecsgy5iP83tW4scFSCZeXHyGbGcTr54RWdXjaSWxbKRDApyqNmTpq9dSiPqu5CtlR0VcgugqQcfUtivjcjB2pGq9VpHt9Lcq/g2/fnrSGr9jZVYjr3HD/TLjhukY216tGsE1XexJSu7QuQWMJUOPgyjXxs5kLVjNeq17lbS1scxYbQ2uBmVzWdFKrU1OVb0pTGhESmXcwn1zAqmRoVVJJOpqFDDATRR3EpX+jwN9I92pdOfOLq4YSJ198xLCsjIvLgPjVx+kl6mWrojLiFTulJjJt+GTX2olW8T8qrdhsaF3kuxfXNM2FoKblaW8lmpSM3qqOg7hkIjpAbGXaQNE7uTZ14FQWZOxX1G0vKTLyX9GUm/vTqK2D+X+tZyFNtrUbgGtfRvTa1bs1dLL3KxkhMUecmzU2/q3cnLqG8zV/KZuIvuJLxJoe+8nh2pZ+/OVMdRweRpSaVajaJVp6WlVHHXaOOwllSpsBO5ujegFi1aUPshK+hc6pVW7+PlemqbR0UufQ8yCSZD/4h2jahPLrZWZFfIjQKmHqSHYb9SIwem92q9aJ1kZPon26l32ewklxmvx6SXjFS5qlC/7Q9Jr39C23uXpexyWao8rN+qXFSl72rauXQktSot2KaMrEq0pCG/H0nctlwkXdvT05PtvalsdjkrI2UdYHaYq0o/2v4wIcO2HnlgNNUtYkfZnapTn413SHsrlKZ3r072ctZmy2+ozZh1dD76/dd71Ll1NKZVSTJnslE4eFLPyZvp4t1DtGhUKyppwWTBbMCrzxzac1fqRcJJGlJKRblbraK3T+XhcDicLw/TOJtZ+En8/2F0Op24xfKaNWuQJ08eVK5cGd988w0cHBygFHbzyQDCE5f79+/j/PnzOHnyJJgjg+++++6zbNecWbiNclISj6ODyqDmTFuMvXAEQ8S9a79ADPGIfnYH5/YsxqjBK1B4/g0sbPQ5l2TG48wod3hubYiDp8ehfGZXPUWdwJQBW1Codwe4xDzDi1dRiImLRfTrZ7j79yYsPO2JbQd7I2r6AGwp1BsdXGLw7MUrRMXEITb6NZ7d/RubFp6G57aDGFbyw3QWdWIKBmwphN4dXBDz7AVeRcUgLjYar5/dxd+bFuK05zYcHFZSesr15aG/MgHuVdejzu4TmOD2sTax4HA4nE9HVudi3IHhiLExf/zxh+iAWFpaijEq3377LXLnzg25PO1VhsKys4iICBw9ehQ3b94UHRkvLy/x9bXAbZSTkq/EgUnEgCcremFqzqmY3PAzx5RFH8YQz854OvIYfm9mJyVmAMNjbOxYA3PL78HuvgXeXtMcuwM9vr+FQO+/ETCvPPbs7osCb2fCjh7f4/ag5ehVKO3xKiMYHm9ExxpzUX7PbvR9uxLWlB74/vYgLO9V6Atdex2Dv/q5o69yNg7+UgPWUiqHw+F8yWR1LvZljsOcfxRhW+OmTZuKWxsLh01evXoVc+bMEc+TiYkxRQIkIcTNCDEu8+fPx4MHD1C1alUEBwd/Vc4Lh5MWBr0wgOrFGJMvHzly1+0AH5fMPvL4BFh5YMzKQYidOQRbk+8IkB6vdmLx+nBc2Pw/bLkSaYwPk9A9O41FA1fAtmNTXFy6HuEXNuN/W67AtJO4iO4ZTi8aiBW2HdHuA5wXgVc7F2N9+AVs/t8WXElZCZ6dXoSBK2zRsd2X6rwArw9PwrRH3bBiPHdeOBzOvx/+BIaTAuGsGCEIX1gSdvbsWTx+/BiNGzeGh4eHuORMOEl/7969KFasmLhMTFhyljNnTunbXxfcRjlJGKB9cR4zW3nixwNmaDJ7P5Z1LgFbNb/Hkxniwzdj4qzLKN97EJo5Z2QJ02ucmtsLP4xag7MvAJt8BeGYwxzQvEGcjRu6/DITg7wcEH1qLnr9MAprjJlQ0DEHzKHBmzgbuHX5BTMHeUE6NzbrvD6Fub1+wKg1Z/ECNshX0BHGpsTBxq0Lfpk5CF4fXMmnIB739/4Pc4/mQ8dBfnD9yjZ45HA4/22yOhfjDgwnTQRHRnBehMMnd+/ejadPn4oOjLCbWb169cRDKL9Wx8UEt1FOIjGXsG3lITxIvPEug5lLPXSo4/zFxjt8sehf4OZtPRsr7KWEDKB5iHOHj+Hi3UgkmNnBqVRVVCvvCAvpYyMaPDx3GMcu3kVkghnsnEqharXycEyZ6YPRPDyHw8cu4m5kAszsnFCqajWU/9iVfEwMz3AzXI7CRXNyW+VwOF8d3IHhfHQE3QmxLq9evcL169fFs1uKFCkCa2vrd8bGfE1wG+VwOBwOh8P5fHAHhvNJEZ7IxMXFQaPRiDuUCcH+CoUiUc9fI9xGORwOh8PhcD4fX6wDw+FwOBwOh8PhcDjvIrPuCI9Q5XA4HA6Hw+FwOF8NfAkZ5y2EbZKFHciE3cZWr14tbpUsnPOSFtmzZ0ft2rUREBAg7krm5OQElUolffpl86XYqD42FjoLC/Bj5zictxGWr/4bYu6ygkEbi3ilBbK9LzrfoEVsvBIW782UOf7LMudwOP8sX+wSMu7AfD28fv0ap0+fxqFDh8RzXoQT9oWT9dND0LVw6GWdOnXQpEkT8VwYwZHJ6Gn+n4sPsVFD1B2c3P8X/r71FLHy7HAs6Y46NUsjt1rKkCavERa6HtuOhiHi2RvEarSIi3mOCFUTLF7eHUX4FkIcThK6ewidswjXS3VCn7oFpMT/EJGb0fEbf2xx/QXHd/dBsTTHh0hs7vgN/Le44pfju9En7UyZRI97O6fgf2Fl0a1PAxT4sodxDofzlcMdGE6WefPmDU6cOIEjR45g48aN4sn6QrB+ZhHu2Dk4OIiOjPBUplatWsiXL98XeycvSzYafxchE/th6IoIlPJvj8YVnGAeew9/hy7DsuPW8Bk3G+PbloKllD0RbRh+b98UvdbfQpxUnUxhgXxVvsOkxbMQUOy9ng+H898i9jzmdJ2IN91+w1D37FLifwztacxsPwh/FBmEJeMbwT7NYVSL0zPbY9AfRTBoyXg0SjtTFjDg8c4B6LioEMYv7YOKbw1oHA6H83HgDgwn00RHR+PkyZPiUrE//vhDPIE/rZP3M4vgsDg6Ooon89eoUQMtW7aEnZ2d9OmXQ6ZtNOYMpvs1w4/nK2P23rXoUjz5oq943FwSgFpdDqDQsE3YOqo6knocjws/eaLBelcMHBGEWqXyI2d2G9gymVib8WUaHE4KDI+wIaghFpZbh5A+rvxsk2RE7Z6CRZa90cf9n7jhocHpUV5of2cA9i72RV4+VHE4nE8Ad2A4GUZ4uiIsFdu6dau4XOzKlSuiM/OxdSVssyw8gRGexNStW1dcXibEzHwpZM5GI7Gre1U0++0Z6v92EVs7O769AwabeC31/Qadtlug3ZpTWOyTx5jn9WZ0rLsFjbYthp8DnwVwOO/GgMfrvkOVYHP879JCNLaSkjmA9jx+qhOAh2POYE6tfyhiLnIj2pXuC5pxGsv9pPGMw+FwPiLcgeGki3Ao5YULF7BkyRJxyZjguAhPXISAzU+JEAsjxMS4u7ujefPmaNCggXgY5ucmMzaqD5uEGhWH4Lhla6y5uQp+7/DDoja3h4vvCrwsMxwnTo1FeSXwYkVbBD4ejS0DXaEwaBH1WgMVc+SypTMbMGijEKW3QHaL5PegdYiJ1sFMFoPnUQmQm9kgp51F0l3q+Cg8exkNnalLMjVscttC9voZXmsTE6GwsIN9dmESZGBfeYUoWMLO2izZBMWA2MineK1J+o7SKgcsdS9TpMnN7ZDHNtlkyhCPqFdRgGU6T5eEfK/joLJhckjWPV3UMzxn/UtTIzIFLHLYI/tbN59ZWc9eIjqp08n6x3SniYVObYHUzUlTvsnkJ5Obwy6P7VubK+iiXzDZx7M2CvXkYPUwvaeoP22EJYMOQmaJj6ffnFBFP8XLWL0ktwTExRLMLUyCkkFtkxu2std49lqbKNuEuFiozS0S38vUNsidU4Xopy8Rq5dSE2IQQ5awTCzKjNXH7CBFk2PwKkYG6+zJ2plV4k9iaMUaWOa2EdcXNk51En8SuhjBZq1gZ/meAA3hWovSw+Id7YoXbtpYWRn1q9cgVqeGRQojYbpges5mner7Bg1iNCpYCnpjdUTHECyss71jcm+ANioKeovsSKHmRPSIfR0NWAmfx0OjUSJbioHB2AZz1X2s/qE5Oq+MRcDawxjnbgZz2zywzSbliolCvLk1LJJ/NZ3+a1n/Zaz/gmoN2hjEKZie3xJnNDa3L4I2F7rg8MlxqPRPPPjhcDj/KbLsLwgOzKdAKPoTFs/JJOHh4dSzZ0+qWLEi+822Irlcnqijf+qlVqupcOHC5O/vTyEhIcScJ6l1nwdTu9JHRzcnVyOVjPWh5nS6o5eS00AfMZtqmckIqgo06nwCS4mhzZ2a0MSLN2jzMH9q6tOBgjo0o0rORci9www69DR1YVq6EzKeAr29qW1QEPl7Fifnst40dNMN0ogfH6fBpS3Iysmd2vYeQN1blKP8zjWp27JLrCZW/+MTtGpcCyqikpHMugIFTdtKF19FU9jOWdS1ii3JZUoq2GQkLT1ym25tCqZGbtWpRSCrx8OZ8rjUp2E7H5KxRRq6sXMKtSttTjJZNirRZhJtPPuIru6aTT2r5SQ5FOTYYDgtPniXSYehvUWbghuRW/UWFBjkTx7Oecil/jDa+TBV/2Iu08oBTA7NmlHDakUph50L1Ru4nm6KnYujrYGO5OjmR527daf2HvlIIc9Jlfy7UTdWZvWCeajVmmixmBToH9OJNROoZVEVa6sVles4ldYce0B63TVa8t03ZKdSUq4mv9FtY0PfK19BfmsmtKSigvxUpWjwca3wpST09+h/9W1YPSoq6jOBVp94nLJ+hSPVCOxBPXpIryAvKqCUkdKpMY1cfpQV8OH6TWyfVXnqNH0bXXqjo4eH51GncpasXUpyatSfRo8dnCiP8p2m07ZLryj6yg6a+YMb2cqF9jSi/qPH0oSWRZldy8iqfCeavu0SvdE9pMPzOlE5S1a+0oka9R9Fowc2p8KsDzLrihQ0YwddjhIaypp6ezuN8m9IjfzbU2BLd3IpXJF8R++gO4LZZ5G4XV3JSWFBjRc+l1KSo6VbW0bSdy1bU6fOgdS0nCMVrP4DLbmY0ia0d0JofKA3ebcNoiB/TyruXJa8h26iG6KCX9Ll7TOpb/NylCdvO9r48iqtG1CXitgwWanzksfA7fRAF02Xlveg6vnN2fWiolyVe9Gme3rSPjpJqyd0ptouuch9wgW6sqo7fZvPTLSFXOXa0uwTr4wNENDeoZDxgeTt3ZaCmO16Fnemst5DaZPYCCOvjs+gwOatqdvAgdSLtbf2t99Qi5l3jddf1C3aO38Ita6an2xr/0wbJwWRd0UHUjB9unr5kK/fdzT18Au6tXc+DWldlfLb1qE50rX23v7rntP5TVOoR+NSlLtwVwp9fIrmdqxEedQyklu7Uqv5l5mUk6Onh3Nqk5miEHXfGyelcTgczscj43OxlHAH5l/OvXv3aPDgwVShQgWysLBgP7Zsci3p5nO9BEcmf/785OfnRwcPHiStNtUk8R/C1J70iaMdnfKySbuMrH1XixPJdxK3kQJyMOdQZkut17Gcuks0vklbCv6+FJXsvINM/or25u/UIq+SbKqMpCPShFCYLDze2plcHerSzDBJJmzCta9/GcqmKkCtV9whHZvg/litIc2+Js0S2eR5SQs7kptXpyk3xBk68z32Uy9nBancJlCYlCSUfXeGJ6kV+Shop4Z0VyaRh6WaPKdLEyZh4lxKScoSg+hYojoS6PSwb0ilKk1DTppmpayNc+uQWm5LbTaYJjQ6ujLJgyzVnjT9rjSJOj6YSimVVGLQsaQJkS6cFvtWpYDlt4yTdSbXC5Nqko08G5X58Qgr+g7NCupPe8X5qI6uTqxKKmUJCpaciISLk6j7zxdZq9JCQ/t7OZNC5UY/SZ2O3NiJPFr0p+CuAdTpl78oMiPyFdKY/HqXzUm2SgXlD9pBb8SMRhIujqc6eZgjyCZ0PfYlTUaT6vegX24lCp30D+dQbbWc8gWFsBwfWb9VkutXR5fGViKVnOk3RGiXqT1VaMKVZO25M51qJrZHKKoXOStUVGVCmLHvAsxmx1ZSkTxfEBmLCqXvHVl97pPI1AR9xDpqX9SJWiwKl/Shp0dC31Rm5BK0iR5Jdp45tHSonwsplS7U71Ci1Ujo6M6K1lSkVHfa9cJYuP72VKrBJt6q0kPI5GfqH2+lzq4OVHdmmGR3enq5rz+VyaaiAq1X0J1X1+jIzt+oXRElyWzcqeOQ4TRjy3E6f3wdDfyW6VXpTN49fqCg4Utp3+m/affU5uSoUFDhHrvpxqlQWje4Glkzh6W093fUwq8f/TRtEvVvXITM2biqLBBIm4ULnOlsa2dXcqg7k5LUvI/6l8lGqgKtacUdJsSEkzS0fCkacMTUzxg6NbIaNZhhvB4Tbp+g0NU9qRxzVNW159BDvZ4ezK7Frl/BkZDsLuE2nQhdTT3LCc5XbdGBSa//4c+u0KEd09jYoyB5rmrkFxhEoxaH0L6Q2eTPZCLP6U9rXopfTEQT2pnJQEnFBh5J5dxwOBzOh5PxuVhK/rVLyISzTJYuXZqhbYD/jQhxLufOncPff/+Np0+fgjkJn00X70JYWiYsJStQoICoq7Jly0qf/DNk3EY12NTOEX4rX8G23QY8WN4C0sqNt9HuwvdFmmDhQzO0WP4Mm3xPoo+bH5ZdzYOuB//Gz1VMazD0uPKTO8oPv4TKP5/BX8HFodAexaBynvi9zHLcXuuPxMVGkRsQUMIfa1UdsfXCALza8gTeHT2lnc6isem7IvBbVxBj/j6G4aUUQPwRDPjGE7PtJ+LqgYFwFtePGPDo13oo1OcGgv64jhnW41DFawkqrr2G35sIJcVgRUt7dNjfDGsfrIavuHZHhwuj3VDpJ8KQUycxpqxxfUnkwkbI2/UMWm++iyXNBEnE4+TwKvBaUhFrr/0OY3Er0NK+A/Y3W4sHq33FpUCafT1ROvARus/tjBLSmhbDo40Y1PV3XHfqCd3NoTh+PAqV3F2hZPK59rMHvhnxGv0On8MkNyY3/X2cOKVHpaqF0lgSE48jA76B52x7TLx6AAML3sf/2o2D7Zzf0SanlCUj8r2yEI3NjmCw7yJEaTdi/ilPLLyyCYFi7JIGBwd3xOqX4fh9ySv03H8R0zxM+kxVv1HorH+/ol6hPrgR9AeuTzfH8E+k39jz09HOZyy23rFBV6bfubVl6bdnbm3IjgzAN56zYT/xKg4MdGZyjcX56e3gM3Yr7th0xR/X56K27CD6lKyNefl/wY19fVFAHoPdP5RG4x11se3mfDQwXQyGx1jcogQ678yNXnsuYEbNd14lacO+P7d+IfT8qxImhf2FQcn3FY/eie9L+iCs1yX8NaiIUf/621g7sC+WaXwxfc53cFVocXRQOXj+XgbLb6+Ff5KAsSGgBPzXqtBx6xUsbKzHoiYO6Hy4EZaGb8J3OYy5olb5In+7bSg18RIODZY2D9D+ga5FG2Nx4Um4tn8AHI8L8pqJhPabcHxBM+POYPpwzGtaGT12xcFzZhh2VpyDcp6/o8xy1r6kRjA1B6CE/1qoOm7F/Zmv2PXRBfe678DOSV5iOYYnW7Ds2Ldo7y3Fmmi2IbBAC6wuMwt3/uwGmlsXhfuGo/OfV/FrYgyMBtsCC6DF6jKYdWc7yk+rkH7/G77BrDrO6HexCZZcXI/vRNvW4fSw8nCfbED/w2fxs3C9SegujUXVCqNxyfNX3N3VDXnExnE4HM7HIav+wr92KHr+/Pl/1nkREILyHz9+LMa46HS6L855ERBicoQDMgVdCc7Wl4sc9vY52b+EuFev2JThPVAMYmOZrOW54OBgnIBRVCRekQOcnJIvMFfAtX49FFfG4VToLkQY2Lz01AY2ISQ4FCoIcymXiF1t1P/Wkk0+92Dn384IkCa3Bs0TnFs5AOP22KH5TzPQU5jcZhB1lfE4HRmOBU2A2/sXYkSXzvjtTAJIl4DkR5aKAwtpodUkxUnpmN5SokaV8acRGb4ATXAb+xeOQJfOv+FMAkGXeACqDmH7DyNCqWLOTbRon8Ir1ro+xqxahzXTApjM8qKq6Ly8A4UT3NJ0XpJDMMRF4OD0YOwo2gnNTc4LI0PyPak1pslyo0WXFnB48yd+X36DuVOMyJ1Y/bQm2mTxwJ5PpV/Dg00InvAU/kEV3i27DGHAg03BmPDUH0EV3lOS9jA2hNwH8hZAgeRn1srt0bB+JaiYY/HnzvNSYiZgDszjZwaQzAJWVsYfNBPa07uw77EFChVxTNK/ojD8p29FyP8E54W9jz+FDdtughwKoWBKAaN2/W9haXiEPTtPsvdqqFQyMSbJKlmQjTpHDljLZbCwskZi7TI72Nmwd3GxzLUT3suFyC/YF3VFTtOvp8IZ7To3RE6ZFpfPnsGpDdtwk13vhVI2gqm5Pr61NODRnp1AtqqoU90MZ6fWxzdV2mD0mnOIzOWNQJPzIiBj7VSnlMPbyKBWqY3tzXD/VVAz9cqy5YK9nak2OfLY54KM4hBj2uddQmZpCSFSyvD0ER592nBJDofDyThsYvtJEIr+hMVzMgBz4GjXrl3UuHFjMfZEoVB8EUvIhPibHDlyUNmyZWnKlCkUGRkptfifxdSejBC5uhXlYB6MsnjyJVZvo7s5maqpWB/tfGjlCyHhMo2rrCKoa9K01MEzz3+jBmYgVfmRdC6BKGa1L1nLlFS078FUSzU0tL8n05/Mltqslxaw6R/TznHfUcOKrlS2cR+asz8iaWmV9jD1d1WSIk9Fat66NbWWXi2q5GM2UIC67RGWoOjpyZFZFFTbi9qMXkfnnr+hVT5WJLPyoVXJ1si9WP8dOaoUlLNcCwrq3oWCOnWi9p4FSSm3pw5bk62J1z+hI7OCqLZXGxq97hw9f7OKfKxkZOWzSlpyp6E/uzqRKm8Q7cjQUvq3l5C9Hy0d7u9KSoUjefh4UkGz7FS220a6l7R6KuPyZfILbjaYjkQdo+ASKmlZnZ7u/RZI3TY+p2s/f8va5ZpqmZNUf5pLyBRUoNseevmR9avy+IVuvjpOP/kH0eIbWjFWQZ2o3/TbI+Y63J9clSry+OUmvTr+E/kHLaYb2oc0p7aaFAW6kbGov6h3EWZPDpXIW7Al32/JUcHstuxw+juxUUbidnQiB7mCHDvvlFIyQcJpGvaNcK3UotkPUl4rMetbk63c/B2xMRIxq8nXWkbKon3pYCqT0ezvSYUVMrJts569i6Hl3tlIniOANiWzRU3o96xfaqo9xxQHxtCeoB9LMVlXHEuXWF+1RwZSMSYvt5+SLblj6C6Po0oqNq4FrKLVvtYkUxalvm83gnoWZmOwbRvxrT7yNC3sVp0cs7ExmdmFXfmO9PuFZBeftHTvnUvIRDQU+r0jKYQlZDdXZqz/7Fr9Xz2m3/xdaFdiUXqKmOXFyi9MPVMsjTTZDNN3qSGUuJKUw+FwPhKZmYslhz8M/hejUqlQv359bNq0CdOmTRO3MmaOjLi9semR3T+JUC9zXODm5oZ+/fphx44dGDBgAGxtbaUcXy62jTugZX4F9Ld2I/SKTkpNjQFP9h3ARZ0Shfy7opmwNEVRBJXL54FCfw/h4cmfbTAMxL4hg3nBIhAezigcHJBLrsfDsCt4meJOp8yoL2VhuLhISzvkedBw+DLsPHkUkwqEom+9Gui2I9L4mYTcpTWmrViN1auF10r82r5E4t3r6L9+RN0Gk6H5YTVWjPJD2Zxp393P4bsEl68fx8YpffB9tyGYPHcBZgSUTPUUJBp//VgXDSZr8MPqFRjlVxZvF6eAbY7swNM92LLvtZRmwoDIK5ekvz8QeWE0n7QZi7o44MpvXdF98W3j0xNGpuQroK6MoE5Vobq+CvN3nsSKv+zRupFt0h3yTPKx9Qv9Q2wYMBXxvaYisOiHPXvRP9yAAVPj0WtqIN5VlKJYAGauZLa0fCjq5ZZDdzcMYdHShylQoKCLi/R3JpDnRA5hKBCeAkQLv2dJKHLmgp1MixO7/sCzVE8BYk9sQchdpmWFAxxyyVlfwnAlpYBF+cqgROGstCvDKOBU2BkODrkgZ7oJu/KSWXYyhDaIahbaEI0YZXkEzT2Ia5d24OfWJUDnl+CH1mNwLKsLBz5V/7Va41NZWzvk+Od/NjgcDidNuAPzH0CtVsPb2xsbNmzAqFGjxPNYnJ2dxRgUceL0iREcFyHWRTjUsmfPnmK8y/Dhw5E/f34px1eAdQOMnuwPJ1zEwonr8TDVJEok6hCmztwLrUtHTB9dG8YjLMxQs01LOMvu48+tJ4zLUCTib9zAHUMeNG7bGMK8zaxKSzQurEDcsY3YeC/5Mq0ohN95CnUFH/iVSjW7ZJO+mnUqwVp/F7tDz0qJ6aHF4ZWrcFnrgspuuaVBQNjQg/1nMIi3QpKQI3uhSqhZuybcShdCjrS2RtYexspVl1m/K8ONTWxFWGHG4kylKVHKywP5cA/L+vbEyutJC/H0D7ZhxLT90ruPgMwansPHoVXeSISOGoYNT4zKyrx8FSj63fdokP0xNgzuilOlv4N7JsM6kvOx9as7F4KwOr9geLWkOIuMk1zLOpwLCUOdX4YjQ0Vl80Czeg6QvzmADdsfJ5ukG/Ds1m1EWlRDK5/CUlomkOdFcVdmj/QcT54mlw+TXYVa8LAHXmwdgyHbHiY6pQbmEI+dfgbZheWaZlXQsnFhKOKOYePGe4l5BKLC7+CpugJ8/EpJKR9GglbYRjuJqIsXcVtWAk2aV0SVlo1RWBGHYxs3IqWaw3HnqRoVfPyY1xWCnyYeZlciYFmkEQavOoh1XYuAbp7B2VTOhwnjWK2DLtV9kEQ+Uf8Nz57jJclh51IMjmnf5+BwOJx/HO7A/IewtLREu3btMH/+fAwdOlQ8Ib9gwYLik5pP4cgIjovgPNWuXRt9+vTBrFmzMGbMGLh80rugnwo5HP3nY8dcf1iF9IDPoC24lSwYRnM7BCO822CxKhBLd85Gs2SRrtlqDMb41o64vbAvhoY+Mk4sdPewcc5m6HynYmJLIb6GYVETw6d2got2Hyb0WYDLkrcTdXIOFp4piQFTesP12lpMnhOC66Y73/qHCNl6FG+QE5XdSxrTKApRMWx6FR+PpJu5hDdRMcyvSEC8Ro5cue0gTziGecPmIfTAdswN7o7553VsZnYD+xZMxuT14dL3UmNAVHQcKyce2nhpoqXIhdx2ciQcm4dh80JxYPtcBHefD2Nx+7Bg8mSsD9fDolYwRjfPB8PNlWhf+Rt4+XVEx7YNUMF9PCzaBRrLSoQQxdrLOgHNe4OOTBjzE5sSall+uX1LjBvdCDker8fQYSHGu/YZkG9pwX9g8nsTqUE8E6E8T0t09c2PuMf5UK9dSeaGEV5Hs3YJcUFChkRS1m+C3kQhhjlzCfEa0EfWr7JEGwzwLSg9DUuuX6FdpvbokBiGJJCgY/ZHiI0RPhOKEtqnRIk2A+BbUJqd0huxfEpgshczxSKO/UHxWlEmYO5209E/oUW+N9gxsh9W3ZKs7PVR/LrsKqoMnYzvsxQnZIaqnlVhY3iI27fjpDSJ7E0xZFhd5DLcwKJWFVCl6XcIbNsIFSt0x4OW3eAuxrRboObwqejkosW+CX2wIEnAmLPwDEoOmILeooI1xv4kMF0lm+WTjsmG9U+XInZSD52Qh+kvqUU6XN+9DRcF8xSIPokZM/bCocsk9KugZGY2HFM7uUC7bwL6LLgs3bSIwsk5C3Gm5ABM6V2avdfjxtIRmHz8lfgpYIV8ee1gWc4T1XKZbgJomO0b5a5lI4R1zhwwNzzB0c0bELpiFMavf8iuRhI3bBGvR20G+0/R4tk1xAwjyYSJDRdCrCTrZ6oYGO2dcETorVC1ZlXxzBgOh8P5IpCWkn10hKI/YfGcD0Sv19Pdu3dp4cKFFBAQQPny5SPmyCTq7UNeQoyLmZkZeXl5EXOU6O+//5Zq/bIwtTezvAnbTBO/b0zulatRrbp1qW6tauRW3Zt6TP+Tbr8rviPmKq0d3IzKFSxIpWs0oCaNmlD7sdspPOVyc0YC3d01gQLci5KTqxvVa96MmrbqRwtOvJDW5esp8txyGhLoSy2a1SePEvkpr2sN6jjzCD1nGXQR+2lu31pijILMvDj5jFhOJ1+8orOrRlLLYtlIBgU51OxJ09cupRH1XcjWyo4KuQXQ1IMPKezXRuRg7UjVeq2jW2mtddfdpj9/HUmtv7ESy7H3+IF+2XGDdKxNj3aNoPoutmRlV4jcAqbSwYdh9GsjB7J2rEa91t1Kit+ICaO1wc2obD4rUqmtybGiL40JjUgRTyDWMyuYGhUWzjFRUaGGA2ji3F0UniJTMnQRtH9uX6rlqCDILKiE30j6357bbD56i35rnIvkipxUucME2i7GgrxfvonyUxeg+gPm0v4IPSX8PZLqB26gl/pIOrl8KDV1FtqlpPx1+9Ov++6lqt+civuMpOUnX9Crs6toZMtilE0GUuT1ot6zdqdbf6b0a+ZKPhN30Z2ENyn0m9ezE/Xq3SlRHoVrtCR/KQ6qpZcLWcmF9nhSp969qW8tR1JARmauPjRx1x1KeHOWVo1sScWEuAxFXvLs2JN6d67N6pORzLIUtRq1ik5Lx53EXdtIw1pWosJOruTeoAW1aNGehqw4R8lOQ8k8L9dT2zwqcnkrTkiA9fP37lTbNReZm9tRwYo+NHpHuBjLk5yEu7toQoA7FWXtcqvXnJo1bUX9Fpwgcfdl7WXaNL49VbCRE+S5yL3LRFp37gVd2vQzdaueR5SFVWl/GrnoMD24uYtm9K9HBYQzd9TO1OTHRfTXzgFUTKkk18aB5NuwKfm08qUmXrWpzbhQupf8mkm4S7smBJB7USdydatHzZs1pVb9FtAJaQtoillFHYqXpOIuZamWXyfq1u078gscT6F3jYXoboXS9O7VyZ7pSmb5DbUZs47ORxyg0XWLkF12J6reZyPd0d6i0Ondqbq9sG27JX3TZgytOx/9/v5HnaN1Y1pRSXNBvw7k2XMybb54lw4tGkWtSloY7cerD83Zc1dsh2CvJ4eUIlXuVrTqPeFHHA6Hk1WyOhfjJ/H/xxF2Artz5w4OHTqEvXv3YufOnYiKihJ3B8sszHERn7hUrFgR9erVE2NuKlWqJD7h+RLhNsr5r2GIj8azO+ewZ/EoDF5RGBH3F0qffCnE48wod3hubYiDp8ehfKoVdZ+b+KODUKbmTNiOvYAjQ4pLT7/+xeivYIJ7VayvsxsnJrjBtHkzh8PhfCyyOhfjDgxHRHBkwsPDcfLkSWzduhUhISHiNtTCFszpIejazMwMJUuWhJ+fnxjrIpzpIixZ+5LhNsr5z2J4ghW9pqLdr5OlhC+I6MMY4tkZT0cew+/N7KTEL4P/mgMT81c/uPdVYvbBX1DDWkrkcDicjwh3YDgfBcGRuXnzJk6dOoV169Zh37594iGY73JksmXLJh5E2alTJ3h5eaF48eKwsbGRPv2y4TbK+e9iwJOTp5Cnipv0/ssi/trv6ND9FFqvnIvm4kGLXwbxh/vjG685sBl5FsdHlPp3OzCvD2Nk+znI99NS/FCKP3vhcDifBu7AcD4ags6Epy/3798Xn8gsWrQIx44dEx0ZwcEREJaKCdsfC9sgC1s1FypUCNmzZ2U3pM8Ht1EO58slPnwzJs66jPK9B6GZ8+efQBu0L3B+Zit4/ngAZk1mY/+yzihhq/5X7oQTf38v/jf3KPJ1HAQ/1w/Yeo/D4XDSgTswnI+OoDvBkXny5An++usvzJkzB2FhYWKsS48ePRAYGAgHBwdxi+SvEW6jHM4Xjv4Fbt7Wo2hReynhcxGDS9tW4tCDpG3LZGYuqNehDpz/dY9hDHh2MxzywkXTOM+Jw+FwPi5frAPD4XA4HA6Hw+FwOO8is+7Iv/HpN4fD4XA4HA6Hw/mXwpeQcbLMxYsXxRP+hdP9GzVqhBw5cojLy74WuI1yOBwOh8PhfD6yOhfjT2A4WcZgMIhbJx8/fhzBwcG4dOkSYoQTvrlDwOFwOBwOh8P5RHAHhvNBODk5Ye7cufD398ewYcOwbNky3L59O0sHYf5X0cfGQiv9zfmc6BEb+zE18bHL43A4mUW40WbCoI2FJmkfhgyiRVTUp76ODdDGatiI8TVhYLKV/uRwPgN8CRkny5w/fx6//fab6MAIPH36FLNnz8bDhw/RoUMH8enMl7ys7ENs1BB1Byf3/4W/bz1FrDw7HEu6o07N0sitljKkyWuEha7HtqNhiHj2BrEaLeJiniNC1QSLl3dHEb7jzz/H6zCErt+Go2ERePaGTWq0cYh5HgFVk8VY3r1I5s/3+NjlcTicD0N3D6FzFuF6qU7oU7cAELkZHb/xxxbXX3B8dx8US+eiNLxi1/TSefht4Wqcc1uC6wsb4VNtKB25uSO+8d8C11+OY3efYl/HeKG/h51T/oewst3Qp0EBKKVkDiezZHkuJjgwnwKh6E9YPOcL4Ny5c9StWzfpXRLHjh2jNm3a0NSpU+nMmTMUGxsrffJlkSUb1d6hHaNbUJmilanNsNm0YuMW2rh8Fg1rW4mcnL2o78pLFC1lTYHmCi1sVYTMZcY6hZdMYUGO33alFVe1UibOP4HmykJqVcSc2JAp6UJGCgtH+rbrCsqKKj52eRwO5wOJOUez2/nThCOvpASG5hTNaOVJDYeE0BO9lPZO9PTiwl7a/Is35VXIKW9QCMVJn3wKNKdmUCvPhjQk5Amr+StC/4hC+jYgnxmn0/7d43AygGlOlFn4ExhOlkn9BCY5kZGRWLx4MW7duoXatWujUqVKyJcvH5TKL+c+TaZtNOYMpvs1w4/nK2P23rXoUjz54XrxuLkkALW6HEChYZuwdVR12EmfCJ9d+MkTDda7YuCIINQqlR85s9vA1s4O1mZ8Fec/SvwF/OTZAOtdB2JEUC2Uyp8T2W1sYWdnjSyp4mOXx+FwPgzDI2wIaoiF5dYhpI/rBz3NMDyYhTrO/XD1u+0I/4RPYN4mCrunLIJl7z5wf+9T/S8AzWmM8mqPOwP2YrFvXh6XwMk0WfUXuK1xPgl2bHLev39/dOnSBfv27cPKlStx6NAhvHnzRsrxtRGJXYPaYvAfcag35ld0TuG8CKhRtP0sjGtCODI+AH03PkHi8uDXIZi+xQUzQxehf8vqKFesMJwccnLn5TPwOmQ6trjMROii/mhZvRyKFXaCQ86sOxsfuzwOh/MhGPB4w0D0318JvYI+zHkRUak/y9Io7fnZGLvkBjRfw/3fbJXQd2AF7Ok3EBuf8KAYzj8HfwLDyTLvewKTnOjoaKxfv17cdlmIi/Hw8ECRIkWgUqmkHJ+HzNioPmwSalQcguOWrbHm5ir4ZZc+SEXU5vZw8V2Bl2WG48SpsSjPfv1erGiLwMejsWUg+0E1aBH1WgNV9uzIls4k16CNQpTeAtktkv8M6xATrYOZLAbPoxIgN7NBTjuLpB/q+Cg8exkNnalLMjVscttC9voZXmsTE6GwsIN9dsEJM7CvvEIULGFnbZbsjoYBsZFP8TrxF1QGpVUOWOpepkiTm9shj20yZ84Qj6hXUYBlOk+XhHyv46CyYXJI1j1d1DM8Z/1LUyMyBSxy2CN7unckDdBGRUFvkR0pRIcXWNE2EI9Hb8FAV4Uo39caFbJnz5bOnZwPLY/19dlLRCcpBWobO5hpIhEVn5SWLXtumGmZnt4jXwPT7+s4FWxYHUlNSav83LCVvcaz19pEWSbExUJtbpH4Xqa2Qe6cKkQ/fYlYvZQqyNiOyViqMu360iee6fFlMj2+sy4bS+jevEGiGFIhU6qhQgLiU/UtpyoaT1/GIqkoCzjYv+OiZKTZHlsZXj97jaTLIlnfM2rHwvUo5LOyg2Wqma4+5gWevYlP25ZZP4TrKbd1kjG/T9a6aHZdRL3jumBlmWW3Rw6LlO181/gR9ex5kq2wMVAuN4NVjrfbb0Jol1EUKR3zjMlUD71OCYUiMSED+hPGpNeIU9kge/LBISPEn8TQijWwzG0jri9sDAspOQmmr6h4mFtbGK9RbTSiZVawEtTAxuaYOAUskwnC8HQeGjr1wMXEJzB6aKK1THcWaTs27xjXEoln9cFYnxC0r7RIpmtdDBsPzKG6vxo/NO+MlbEBWHt4HNzNzGGbxzbx6c+79JGElv3mymBl7BS0MXFQWFq+wxF7t/0mkQF9RG9G+yJtcKHLYZwcVwnpDtEcTjKy7C8IDsynQCj6ExbP+QJ4VwzMu7h69SqNGjWKxo4dS5s2baKnT59Kn3weMm6jOro5uRqpZCB1zel05z2LlPURs6mWmYygqkCjziewlBja3KkJTbx4gzYP86emPh0oqEMzquRchNw7zKBDT1MXpqU7IeMp0Nub2gYFkb9ncXIu601DN90gjfjxcRpc2oKsnNypbe8B1L1FOcrvXJO6LbvEamL1Pz5Bq8a1oCIqGcmsK1DQtK108VU0he2cRV2r2JJcpqSCTUbS0iO36damYGrkVp1aBLJ6PJwpj0t9GrbzobQGW0M3dk6hdqXNSSbLRiXaTKKNZx/R1V2zqWe1nCSHghwbDKfFB+8y6TC0t2hTcCNyq96CAoP8ycM5D7nUH0Y7H6bqX8xlWjmAyaFZM2pYrSjlsHOhegPX002xc3G0NdCRHN38qHO37tTeIx8p5Dmpkn836sbKrF4wD7Va856V1to7FDI+kLy921IQy+9Z3JnKeg+lTTfEwlndm6lTk4l08cZmGubflHw6BFGHZpXIuYg7dZhxiN5WxUcqT/+YTqyZQC2Lqpgsrah8p+m07WIEnd86jQLLWrI0Nbn6/kQ7rr6ha3/+Sr2q5RDlm7/hCFp86J5YRMzllTSA1dGsWUOqVjQH2bnUo4HrbxptQih/1ThqUUQo35oqBE2jrRdfUXTYTprVtQrZymWkLNiY+o8cQxNaFmV2LCOr8p1o+rZL9Eb3kA7P60TlLJm9KJ2o8cjldPSB/v31pYueHp9Yk7G6wv6mdWN9qJhdKWrerQf16MFegTXIUSEjlYsv/bRqJ+1clUp2l96Q7uFhmtepHFmy8pVOjWnk8qNS3WkhtGcVjWtRRGyPdYUgmrb1Ir2KDqOds7pSFVs5a09BajJyKR25fSNjdszsfcvI76hl607UObAplXMsSNV/WEIXk5nnq3PraKxPMbIr1Zy6Cf1ir8AajqSQqciF6XvNicfitZa+rPX04vQKGtqoIJkXrU8/iGV1oxZlrEkut6XKXWdR6FXh6hdIZ/zQP6FTa38iH0GeCkeq0aErBbVuwNqfm4p69aJVV5Nq1d7aRMGN3Kh6i0AK8vcg5zwuVH/YTjKKIoMyHTGLFswdl0H9xdDllQPIv2kzatawGhXNYUcu9QbSeuPgkCHidnUlJ4UFNV74XEqRiLpFe+cPodZV85NtnVl06ewmmtKjMZXKXZi6hj6mU3M7UqU8apLJrcm11Xy6LMWu6Z/8j+qphRiYHay/s6ld+VysvwqyKdGOFiUPcHvvuKaj5+eN9ZW2L0BBW87TonYlyIa1s1jPnXT/1l6aP6Q1Vc1vS7V/3kiTgrypooOCZFau5OXjS37fTaXDrKr364PV8vw8bZrSgxqXyk2Fu4bS41NzqWOlPKSWycnatRXNN3VKIAP2myl96B/SnNpmpCjUnfZ+ymAhzr+SrPoL3IHhZJnMOjACGo2GNm7cSMOGDaMpU6bQqVOnxLTPQcZtNI52dMrLJpXsh9p3tegovJO4jRSQQ06Q2VLrdSyn7hKNb9KWgr8vRSU770ic1Gpv/k4t8irJpspIOhJlTBMnBVs7k6tDXZoZZvoFfUn7+pehbKoC1HrFHdIxB+bHag1p9jXBORI+f0xLWtiR3Lw6TbkhuhJMyPupl7OCVG4TKExKEsq+O8OT1Ip8FLRTQ7ork8jDUk2e0++KkyjRMSqlJGWJQXQs8XcugU4P+4ZUqtI05KRUn9DGuXVIzSZObTaYfql0dGWSB1mqPWn6XWMHtccHUymlkkoMOsamVBK6cFrsW5UClt+SJmdxdGFSTbKRZ6MyPx5hRd+hWUH9aa/4I6qjqxOrkkpZgoKPG0tIuDiJuv98kbUqDZgctnZ2JYe6MylJdPuof5lspCrQmlbc0TFVjKcmbYPp+1IlqfOOp8Z+s9bd/L0F5VXaUJWRRyhJFR+5PNbj/b2cSaGqQhOumJSSQBdGV2R9dKX+wgxF4um8emQmz0EBG43y1YUvJt+qAbT8lnSdxF2gSTVtSJ6tDP14xKQDU/luNCFJ6aS/O4M81QrKF7RTlLlmfy9yVqioyoQwo+MpwGx0bCUVyfMFUQjLlLH60icjdYkknKLhtTvTNqlo3a1fyEOloMI990t2kkx2yfqmuzSWKqnkrG8hUr73Y2qPW/L26O/SDE81KVh7dmoyasd3aEXrIlSq+y56IWbT0+2pNdhEUUWlhxwXs5hIODWcanfeJgWA6+jWLx6kUhSmnvuNLc6MrPUPf6WmrVdI44+GdnXJTwq1F828Z2yr0I50xw8xUUN7uhVg8vSgX24ZU3Ths6mOtZwsa8+m20Jxuis0ycOS1J7TySgKLR0fXIqU7HoclDRAZECmQkJG9Kej8MW+VDVgOSWJYhLVtJFTtjI/UsbMTkuH+rmwNrpQv0NJbRRIuH2CQlf3pHIqGalrTaa//tpB01rkJYU8F1XzYw7BqMUUsi+EZvsXIaU8J/mveSl+z+TA2FX1px6DZtCmw2fp6JKOVJyl5Wm3kcQtAtId117Q5YPbaaYvkzkr271FVxo8fTy1r+JMZXpsoXMnQml1z3LMMVJT7TkPSa9/QLNrMfkJzoAki/T1oaeXVw7Rjmls7FHIKVc1P+aAj6LFIfsoZLY/FVHKKaf/GhJ7lSH7zaw+NBTamTnnymI08EhK2XM46ZFVf+F9z8a/WoQA8qNHj+Lw4cP89QlfzIGRJJ5xzMzM0LJlS3z//ffiErIdO3Zg1apVePz4sZTjy0SrFc4BkEGVLfkyqzSQWcDcXHgcGg9tPPtP9wxP7/+J+cuApt/XRW7py+oiHTC+ZwVoTk1B8Nyrxv3/tccxZfBSPKsRhA7FpYfwcjt4DR+BljkisP7HcdgVY4PSQcHo6Co975dbwtpSBeg1iDMdVSBTQaVkbVCpUzzKVymFx/9KqFmiPuoNoig3nIvmNPZHXRqlXdUwPLqPCJ2QYESlFJb5sfISC5JDzfQmYyWrE1cA6hH1JgqU2xlFcxo7qC5dGq5qAx7dj4CpOM1fUzH+RD5UsL2GfaGhCA3dj3u5isJRrsHltatZDjUqd+qKGpbG/KlRlmiD9jWtWN1voz0+BYOXPkONoA5IEp0Xho9oiRwR6/HjuF1MFU9x/8/5WIam+L5ubkmPahTpMB49K2hwakow5l41nsTwscsTbUelNMotcUUYS1MLelQlkyUrQVBQYpoGf00djxP5KsD22j4mMya3/feQq6gj5JrLWLv6mJCJYSqffS9RVwyWJmpdSpQx3QmmYaxDIBbnZ43A0pt6cbmWWYbrS5/065KQWcHSMrVWBdkIdib9bZJdYlHnMWvEUtzUy1jfkpbYvQ9Te1QpBQTjZSFcKxmz4+g/xmPIFgd06F8HOcRscji16I7uTevCo0TS1h0CMitLvN01QbdCYuZkLc9uC3vL1MsTWVmm7mdk/IgSEgV5mmRrRJG3MApYsVHrySM8F8IY9FF4E0XI7VwURlGoUbq0K9SGR7ifbIBIX6YCGdCf5i9MHX8C+SrY4to+YWwIxf57uVDUUQ7N5bVYfSwD57AYXuLCxXvQy+yRN2/KpU7KQlXQwLsuytqyxrIx2sWjIVp5FhevjTxNJ2L+6EA08mqEHwb6o7jiNS6evc5G8CRkjk0xZnIftKhWDt8G9IBPcQVenj+DG0wU6Y5r8hwoWb0R/GoWhYI0UHn0x4S+w7D0xC2cn9McZas0gHfdshCa9k7S1YccdiU80LCVJ2s/e5unKSbOH43ARl5o9MNA+LPE1xfP4jrrVIbsN9P6UCC/kwPk+js4fz5SSuNwPi0px8J/CREREdizZw9/feLXyZMnJYlnnoIFC6J79+7izmRLly7FhQsXpE++ROSwtxcm+oS4V6/YtOM9UAxiY4l9JRccHIw/ohQViVfkACen5IuMFXCtXw/FlXE4FboLEWzSEH9qA7bdJDgUKghzKZeIXW3U/9aSORd7sPNvZwR09IQwxzdonuDcygEYt8cOzX+agZ6lUv5ovw91lfE4HRmOBU2A2/sXYkSXzvjtTAJIl4DkR5CKa1NJC60mKThTp0993JoaVcafRmT4AjTBbexfOAJdOv+GMwkEXeKBpjqE7T+MCMEhiokW46KEV6x1fYxZtQ5rpgUwmeVFVXfXdwfNKpzgVrVQ0prxROJxasM23GQyLlQwheSY6OrjW0s2Ad2zk70jREW+Ajk4IaUqXFG/XnEo404hdFeEsOL7I5f3AejCsP9wBIxiM8ktFtb1x2DVujWYFuAqZcwKBjzYFIwJT/0RVEHqwCerL426sorhATYFT8BT/yB8aFEpyYgda3F61z48tiiEIo5Jlqgo7I/pW0Pwv+8yIZ9Mytrwgk0M7XK980c7Q+PHyVQTT9Ih6v4prAoejU1vCqNF3/YoJ8hUXQXjT0ci3DhAYOGILuj82xkksPwffEZxGvrThe3H4Qglc31iJDmwV6w16o9ZhXVrpiHAdMPmfRge4/EzA4g5KFZWaXgDMjVztJLSxZsHsmzIZW+XKFN5HnvkkrFxPiZOvCVswszWThxzRWR2sLVm1cVEIcaQgXFNQiHswCmzQdHiBd4aw2TMWU/WtLfJqD7ETQdkyJbLHnZJnYJ9LhkoLgZxbCzPiP1mXh8yWFpaMHsy4OmjR1Iah/Np+Vc6MDlz5kStWrVQp04d/vqErypVqkgSzzwxMTHiXZ07d+6gadOmyJ8/v/TJl4gapauUh42ckHAzDFeT35pLhf5BOO5GGyC3qQyP8maA0h724i0zHeJTfU9ZyAn5WJn0mjk4bJari7iPR8w3SIhPPUOwQIH8bOJieI3ISMl5MDzBH1MGYej0A6CKDVC7YkFYGT9JxHBjDfq3a4M2bYRXAHosC0t20rMBL0//hi51mmLYwezwnTgf3SunvpOthGOpkrCXXcPCH1qjc4+u6BwUhIFrriUrR8LwEqd/64I6TYfhYHZfTJzfHSmL0+P5s5fM6bJCseZ+8PNL+fL1rirlywo6RNx/xGpIwNuiK4D8ueQwMBkr7e2Ndy918Snurgr9LOSUD3IivGYOieGjl/cB6J/j2UsDNFbF0DyVzPz8fOFd1VHKKGG4gTX920k6b4OAHssQ9payBAjRJyZhwM5K+GlMDdiYJk+ZrS9DvKOu5DBH+X3zt0QoGicmDcDOSj9hTA2bjH0nBQbcWNMf7ST5tAnogWXJBZRBO9bHvUJkjJSUDqYA1bfIpKwTrt+EvqDzOx38TI0fAobrWN3vOwT+0J9Ntm8iZ/XmqFc6R+KkwPDyNH7rUgdNhx1Edt+JmN+9ctJTsxSkI9PkvEN/+ufP8NKggVWx5qnkwF6+3qiabLL9bvTSyfB6vHWPRSKlJtLQi1wupSZ3X1Ihk0OhYLnY9W2gjzWupdGWVGRUH2+XJIdcSqQM2m/m9cGcpmxqsW6dLrX9cTifCGkp2UdHKPoTFs/5AshKDIxOp6MLFy7QhAkTaMyYMbR582Z69uyZ9Ok/S6Zs9E0IdS6gIJmqHI08m2YUBkNPD+Y3IhuZkpx/+FOKf5DWqgvr3veZFjRLPJ1H9cxkZOO9lF6wt5r9PamwQkYW9efRI9OydhEtHRDXkJenkedS1a1/Tru6uZJS5UydtxvXbZP2MPV3VZLK4xeSlrgz9PRwTm1SKwpQtz0aijowiMpY56eA9cZAYiFgc5WPFcmsfGhViiAfPb26fYoO7DlAxy/ephcaPb1c0JDM5PbUYatpIXQUHRhUhqzzB9D6x1LDY1aRj5WMrHxWSWv2E+jkkNKkUhSkziHJDpcTYWVevij9beLtGJh3o6H9PQuTQmZB9ec9kvojoT1gjAcqP5Jl20Vd8itIUbgnva2KemQmsyHvpaImPnJ5Alo63F/QU1LcgdDHsJ/cWB9L0Y8nkvr4alETJt881FEICkk4SUNKq0hRsDO9LbaXdPniXelNWuWzLA/nUG21ggp02yOuz9ce7k+uShV92+9nCvIbTYeFMsUAXDUpCnSjPdEZrS990q3LJLOECzS2WXcKld4bY2CU5Nr/MOuVgKlv31K/n4PIb/RhMfYgdd/Sw9Qej19uJYvXSN6ejNixhvYJtiHPRb4rTXFPJmLo+OYd0t9GEi6MpWbdQ6X2STEwppinDOtWIIEuTmhLgxNjpUwxMPXof9KpjBkfP7T0V+8iKWxF/+IvGlzRnORWbjReGN+iDtCgMtaUP2A9JYnCh6xkVuSTbIBIX6ZCQvr6iz45hEqrFFSwc4gxriQZ+peX6eLdJJt+J/rbNLW6isDq+flaGvk1ofS9o4LUtefQQ72envyvHhsP81OXXUnWo4+YRV6sTYV77hN1lhTEn+wgS1bPtBqsf+J1n9FxTapPnpeCQt4O6NGEfk+OivfEwGRQH8b2Kih/l11J14Q+gmZ5mdqbMftNyLQ+pDgaqKja5JtSGoeTMbLqL/wrn8BwvkyioqKwYsUKLFmyBLlz5xZjYby9vZErVy4pxxeMdQOMnuwPJ1zEwonr8TCt2+pRhzB15l5oXTpi+uja0hMRM9Rs0xLOsvv4c+sJxIppRuJv3MAdQx40btsYtuy9WZWWaFxYgbhjG7HxXvJbiFEIv/MU6go+8CuV6v6rPCdq1qkEa/1d7A49KyWmhxaHV67CZa0LKruZYjeEDT3YfwaDOJIkIUf2QpVQs3ZNuJUuhBxp7dupPYyVqy6zfleGmynIhxVmLM5UmhKlvDyQD/ewrG9PrLyetBBP/2AbRkzbL73LCmao0rIxCivicGzjRqQUXTjuPFWjgo8fy1YTbVo6Q3b/T2w9kUITuHHjDgx5GqNtY1ETH7m8rGCUH5Sl4OWRD7i3DH17rkSS2PR4sG0Epu1/z+PAd6LDuZAw1PllOKql3nn4o9f3nrpM6F/gpc4G2dO7Ca07h5CwOvhleDW8e8PkDyBDdmyGCrU8YI8X2DpmCLY9NBmHAU/3jMX0Mylbpn/xEjqb7GnfX8+MrPXXsP1CHtSrmDzWRMDULtayrIwfEvIc7vBv6AJF9FnsO/yMiWIlVl3WwqWyW2LcHpsvsH8NSBRFZnmP/pSlvGAURV/0XHk9aZmu/gG2jZiGDJmdPC+Ku7LxjJ7jydPk/f+UfIpxTSY8kBQeZSQu5/14+siY/WZeHwY8e/4SJLeDS7GsPKXlcDJPGrMRDufjomMD8YkTJzB27FgxWL9Zs2Zo1aoVSpcuLeX4GpDD0X8+dsz1h1VID/gM2oJbSb9V0NwOwQjvNlisCsTSnbPRLE/SpZWtxmCMb+2I2wv7YmiosDSJobuHjXM2Q+c7FRNbSoH0FjUxfGonuGj3YUKfBbgszYmjTs7BwjMlMWBKb7heW4vJc0JwPdr4GfQPEbL1KN4gJyq7lzSmURSiYtivWnzypU2EN1Ex7EcvAfEaOXLltoM84RjmDZuH0APbMTe4O+af1wEJN7BvwWRMXh8ufS81BkRFx7FyhE0KJC9OkQu57eRIODYPw+aF4sD2uQjuPh/G4vZhweTJWB+uh0WtYIxung+GmyvRvvI38PLriI5tG6CC+3hYtAs0lpUIMYdXWOMQD00yOb8Li5rDMbWTC7T7JqDPgsuSoxiFk3MW4kzJAZjSW7C1bKgxeDxaO97Gwr5DESqst2Ho7m3EnM06+E6diJbGCNmPXp6pP8T6I+4HISLEVggBuCmXqonxFoJ8tYJ8LVAreDSa5zPg5sr2qPyNF/w6dkTbBhXgPt4C7QKLGr+UrPzkSxXpTRRi2EQnIV7DPmPvo4T3SpRoMwC+BaVlIPRGtBdKYLKmjNaXPu+vS4N7KzvDs+lg/L5sBY6aF0dRaW5OMdFM3qzNWtMZKlLflCXQZoAvkopK2bf0MLZHuCxSCCip7/KM2XH2pkMwrG4uGG4sQqsKVdD0u0C0bVQRFbo/QMtu7uyavIsVnT3RdPDvWLbiKMyLF4Wxa4SYaGZJ7BrUigffZFTWBjzeOgt/lwlEjcSj4JntsHGVKJbJRup9BsaP0qL/wq7hmFj2bzI0V/DHgXDoVUVRqUJOdknnhp08AcfmDcO80APYPjcY3eefZ+5oAm7sW4DJk9eDiSJ9mYpNy4D+LGoheHRz5DPcxMr2lfGNlx86dmyLBhXcMd6iHQKLpl6ylBZmqOpZFTaGh7h9O05KSwZp2FjC2hWvhXA6UnS0cTxMSHYIEbF+6FibNHFSDExsnDh5T0jRPz10elaONg5CLRkd14zXdSzevBGu+ZQQG+Q0rN54YXCQWyNnDnMYnhzF5g2hWDFqPDZTrozpIzraKFMm+8ResbFEOEeJNKy9LDFd+xXItD60uBMeAb1VVdSsmtrJ5nA+EeJzmE+AUPQnLJ7zBZCRJWRR7Nd15syZ1KtXL1qzZg3dvn1b+uTzk1UbfRO2mSZ+35jcK1ejWnXrUt1a1citujf1mP4n3X57dYCRmKu0dnAzKlewIJWu0YCaNGpC7cdup/Ck1QsSCXR31wQKcC9KTq5uVK95M2raqh8tOPFCetyvp8hzy2lIoC+1aFafPErkp7yuNajjzCP0nGXQReynuX1rkaMCJDMvTj4jltPJF6/o7KqR1LJYNpJBQQ41e9L0tUtpRH0XsrWyo0JuATT14EMK+7UROVg7UrVe6+hWWqvkdLfpz19HUutvrMRy7D1+oF923CAda9OjXSOovostWdkVIreAqXTwYRj92siBrB2rUa91t5K2Po4Jo7XBzahsPitSqa3JsaIvjQmNSFp+IiDUMyuYGhUWzo5QUaGGA2ji3F0Unt4qkoS7tGtCALkXdSJXt3rUvFlTatVvAZ0w7hWaSMzVtTS4WTkqWLA01WjQhBo1aU9jt4cnLbkw8bHK00XQ/l/7kFdeBUGWjQq4tyD/1q2ptX9L8ijEdML6mLdSM2olpLX2pTolbEk4B8beoxtNCTEux4gJW0vBzcpSPisVqZmOKvqOodAISSBC+XP7Ui1HoXxzKu4zgpaffEGvzq6ikS2LUTYZSOFQgwJ79qa+tRxJARmZufrQxF13KOHNWVo1siUVyyYjKPKSV+9ZtPuO7v31pYuOIvbPTacuB/q2bnmyN89GuUr70ezTwjKYV/T3umk01NuFzMTzQerRwF/X0bo5pr6ZkavPRNp1J4HeJO9bXi/qPWu3seo0Sdke8+I+NGL5SXrxKmV7avacTmuXDsuYHbO+/N69NrnmMidzu4JU0Wc07TBdzPq7tKRVAbI0z0Wl/WaTsWt/07ppQ8nbxYzpW0lO9QbS//Yb7f69sn51ghb0bkhFbfJRlRaCfUivVk2ovL0gEwsqwfS96qxpw+50xg/9Azowrx/Vyse+K7clV68W5OfbjLzKuVIJD38aseGqcamU/hHtGlGfXGytyK6QGwVMPUgPw36lRg7smq3Wi9bd0mRMpt3H0JRxvTOovxgKWxtMzcrmIyuVmsm8IvmOCaUMm53Ay/XUNo+KXPoelJYfGtHdCqXp3auTvZyNi5YlqUGrVlSvuLlxPPTsSZM3X6S7hxbRqFYlyUJqU7cfh1Iv72JkLrzPU4O6/7yRLtw5RItHtaKSFkL/8lGtfvPowAMm2feNa/qXdHL5SGpVWhg3ZWRVoiUN+f2ItKW+jm6FTqfu1e3ZNS8jy2/a0Jh15ynywGiqW8SOsjtVpz4b75AuXX0kUNS5dTSGtV9sr4Mn9Zy8mS7ePUSLEtvLru8+c2iPsPzrffabSCb0ISyHLKWi3K1WUaoTeDicdMnqXIyfxM/JMu87iT8hIQGnTp3C8uXLUaxYMXh5ecHFxQUWFm+fjfy54DbK+RLRxb7Egyt/YcW4AZhl9QuerPSRPuH819Dfnopa5X9HgZ9+xQi/KnDOaQml+FDPIJ7Of/P4OozrNQKPfriIfX2cxO/8t4nHmVHu8NzaEAdPj0P5d+14wPmo6K9MgHvV9aiz+wQmuKW91QOH8y6yOhdLWufC4Xwk3rx5g59//hnLli1Do0aNxJ1pypYt+0U5LxzOl4rSIgcKVmqBYYsnwdeeD9H/bRRwDvoVv3X3gmtuk/MiIIfSKg+K1+mF3//3PYrwibqEGhUHzUBP5XrM2cnPI/lniMHhBesQ33UWfuTOC+cfhP86cj4awjroP//8UzykUgjM79+/P+rWrQt7e3spB4fDyTC2tdChVXHpDee/iMz2W3Tu4I733frJ9m07BFa2kd5xYOWBMSsHIXbmEGx9nNZuK5yPyevDkzDtUTesGF8D1lIah/NPwJeQcbJM8iVkT58+FZ+6CDuNtW/fHmXKlIGNjU2iHXyJcBvlcDicfyfx4ZsxcdZllO89CM2c+ZOBj0887u/9H+YezYeOg/zgmrjBBIeTObI6F+MODCfLCA7MzJkz0aRJE8yfPx9t27ZF/fr1xYNEFQrFF+28CHAb5XA4nH8x+he4eVuPokX5KoCPjuEZbobLUbgo+72XkjicrMAdGM4/ztmzZ0WHRdgWWVguVqRIEajV6i/ecTHBbZTD4XA4HA7n88EdGM4/TkxMDI4ePQp3d3eYm5tDLv+6Qqq4jXI4HA6Hw+F8Pr5YB4bD4XA4HA6Hw+Fw3kVm3RG+CxmHw+FwOBwOh8P5auBLyDhZ5tmzZ/D29haXkAn07NkTBQsWFP/+GuA2yuFwOBwOh/P5yOpcjD+B4WQZwdiEHcf8/PxQqFAhTJ8+HX/88Qc0Go2Ug8PhcDgcDofD+bhwB4bzQQi7jlWpUgVNmzZFyZIlceTIESxZsgSPHj2ScnDSQx8bC630N4fzn8SQ7MBBgxaxGr305p9BFx0FDT/zkIk+Fp9C9Ibk+uVwOJyPAHdgOB+FAgUKiAdYli1bFg8fPsSaNWvw999/i6fz/xsxRN3B8W1LMXf6L5gycz5W776EZ+l29TXCQhdi0ogB6PXD9wgKbI+2fo3g1XkJIv7Z+RqH84Wgw73QGRg9e6/0PhKbg4rANm9dzLz2qS8KDe4dXoIRAe4o7NQKS19Iyf9VIjcjqIgt8tadiY8rej0idv2CIVN34Z5OSuJwOJwPhDswnI9GtmzZ4OPjgzZt2ohOzM6dO3HgwAFERkZKOf4FxN9FyJiWKF+hFWadjEL2gq5wzqnF5SUdUbFELfRbdRkxUtYUaMPwu39FVGz8PX4cPw1zfluIxSs24uCDAug6qjOK8JPAOP85YnF+TkcEn62Cfn3qSmkWcCpXDdW+rQoXu0+8k6XuER6woenp+dN4EMfj4GDhhHLVquHbqi74uKJXoECjQehT4g90bT0TZ9IcIDkcDidz8CB+TpZ5+vQpunfvjg0bNkgpScTFxWHBggXiaf0NGzbEt99+izx58kCpVEo5Pj+ZttGYM5ju1ww/nq+M2XvXoktxM+kDgXjcXBKAWl0OoNCwTdg6qjrspE+Ezy785IkG610xcEQQapXKj5zZbWBrZwdrM34PgfNfxIBHG4LQcGE5rAvpA9fP5sBrsKV9fvisq4S593eha24p+SshavcULLLsjT7uaiklo0Rh95RFsOzdB5n+apbR4PQoL7S/MwB7F/siLx/6OBwOgwfxc74ohIMte/fuLTo4K1aswLJly3D37l1otV9rtEckdg1qi8F/xKHemF/ROYXzIqBG0fazMK4J4cj4APTd+IRN0SReh2D6FhfMDF2E/i2ro1yxwnByyMmdF85/FsPjDRjYfz8q9Qr6jM6LEaVKJf31laE9j9ljl+CGJvM3CbXnZ2PskhvIwlc/gGyo1HcgKuzph4HJx0cOh8PJAnwGxfmkVKxYUYyHef36tejMnDlzBnq9/qt7MqcPm49x7Adfn6MB2vs5pn3hyPOi5XeNkNsQgdXjf8V5ab33i+3r8bzVMLR0YN8yaBEV+TpDAcMGbRRex6ZejK5DTLQGupgXePz4MZ5GxiJFjvgoPHv8SNxEQXw9foEYJu/Yl4+T0h6x7702OZIG9pWXeBGlTTWhMCA2MuV3nkXFv5X25FUqh9QQj6iXLxClTaeDQj5BDqm6p4t6hseJ5ad6PX6K1++NMzJAE2OShwHa9wZmC/2OxOv3RSy/ty96xLxILotUr8fP8OJFyr48fhHDvhWP10+Tfe/xQzx88R59Jued7WHpz1Lq5UWMHvrYlynqvxd+K/323LuJm3eT8jx6/JLZj1SNCV0MXr1+TzvTJR6nZ43DRkMdtPCyktJSoouJQmxiN+MRHZ1kZ3pNLN4SAWtT1FvXChOZJgamZIM2GlFpGMS7VksZ2LUU+Vrzzn7GR0cnbb6h1yD27UYhJurdckqvfC0r32TuBm0MYpLHj2iuYWVXf4w7/gaaV0+Ynp7gVfLNH99ju5prK9HVfxyOv9Hg1RNmB09eIemrxjan/lbaY1FK3tteE3b14VM7HhsnzMHf/87wSA6H80/BJpKfBKHoT1g85wvgyZMn5OPjI717NwaDgaKiomjPnj1Uv359mj59OjGHRvr085FxG9XRzcnVSCUDqWtOpzt6KTkN9BGzqZaZjKCqQKPOJ7CUGNrcqQlNvHiDNg/zp6Y+HSioQzOq5FyE3DvMoENPUxempTsh4ynQ25vaBgWRv2dxci7rTUM33SCN+PFxGlzagqyc3Klt7wHUvUU5yu9ck7otu8RqYvU/PkGrxrWgIioZyawrUNC0rXTxVTSF7ZxFXavYklympIJNRtLSI7fp1qZgauRWnVoEsno8nCmPS30atvMhGVukoRs7p1C70uYkk2WjEm0m0cazj+jqrtnUs1pOkkNBjg2G0+KDd5l0GNpbtCm4EblVb0GBQf7k4ZyHXOoPo50PU/Uv5jKtHMDk0KwZNaxWlHLYuVC9gevppti5ONoa6EiObn7UuVt3au+RjxTynFTJvxt1Y2VWL5iHWq2JFotJgfYRnVw9gTrXdqFc7hPowpVV1P3bfGQmk5EqVzlqO/sEvZKyCvq4vHIA+TdtRs0aVqOiOezIpd5AWm9sgJEM9eUVnVs3lnyK2VGp5t2oR48e7BVINRwVJFO5kO9Pq2jnzlU0oWVRZjcysirfiaZvu0RvdA/p8LxOVM6S6UfpRI2HjaJ2xczfqU+R9Nqjf0wn1kyglkVVTFdWVL7TdNp26RVFX9lBM39wI1u5jJROjaj/6LHptqdR/1E0emBzKqwU7KciBc3YQZejjNVob2+nUf4NqZF/ewps6U4uhSuS7+gddEcw88wQt4u6OinIovFCei4lGYmiW3vn05DWVSm/bR2adeUibZ/Zl5qXy0N5222kl1fX0YC6RciG2bY6rwcN3P6AdNGXaHmP6pTfXM7knosq99pE9/RaenRyNU3oXJtccrnThAtXaFX3bykfuy6FPOXazqYTiQYRRzs6OZDcrD7Ne2pMibm8kgb4N6VmzRpStaI5yM6lHg1cf9N4/elf0uXtM6lv83KUJ2872vjyKq0bUJeK2DDZq/OSx8Dt9EAXTZeW96Dq+c3Z9aaiXJV70aZ7Sbbz3vJ1z+n8pinUo3Epyl24K4U+PkVzO1aiPGoZya1dqdX8y6TVP6cDvwSRd0UHUjB9u3r5kK/fdzT1sDZdW9E/P0C/BHlTRQdmp1au5OXjS37fTaXDL27R3vlDqHXV/GRbZw4Zs6czFglkpL1SViN6ejinNpkpClH3vXFSGofD+S+TVX+BOzCcLJNRB8ZEdDT7Yb90iYYNG0adOnWis2fPSp98HjJuo8IkJy+btMvI2nd10sQyLeI2UkAOOUFmS63XsZy6SzS+SVsK/r4Uley8g0z+ivbm79Qir5JsqoykI9IEUfhxf7y1M7k61KWZYdLPPpsw7etfhrKpClDrFXdIxxyYH6s1pNnXpFkjm7wuaWFHcvPqNOWG6Eow32M/9XJWkMptAoVJSULZd2d4klqRj4J2akh3ZRJ5WKrJc/pdo8MiOEallKQsMYiOJc44Euj0sG9IpSpNQ06aZqmsjXPrkFpuS202mCYgOroyyYMs1Z40/a6xg9rjg6mUUkklBh1LmsDowmmxb1UKWH5LmgDF0YVJNclGno3K/HiEFX2HZgX1p72ij6KjqxOrkkpZgoKPG0tIuDiJuv98kbUqJbp7pyh03WCqZs0cltLe9F0LP+r30zSa1L8xFTEXJuYFKHCzMDvVUfhiX6oasJxuSTOwuAuTqKaNnLKV+ZGOiN3JYF9EEujU8NrUeZskB90t+sVDRYrCPWm/VL5mfy9yVqioyoQwo6MnwGxibCUVyfMFUcib9PSZ0fZoaH8vZ1KoqtCEK4k1MZFOp5pqOeULChFlnm57xEyh9D1zxFTuk8hkUvqIddS+qBO1WBQuyV9PjwRbVZmRS9AmeiTZdUbQHupHLqz9Lv0OpZRnwm06EbqaepYTnIHaNPXQIdr5WzsqwpwpG/eONGT4DNpy/DwdXzeQvrWVk9LZm3r8EETDl+6j03/vpqnNHUmhKEw9dt+gU6HraHA1a+awlCbv71qQX7+faNqk/tS4iOCQK6lA4GbpWkzpwOjCF5Nv1QBanmQgNKmmDcmzlaEfBQOJukZHdv5G7YooSWbjTh2HDKcZW47T+ePraOC3tiRXOpN3jx8oaPhS2nf6b9o9tTk5KhRUuMc+Uf7pla9/eYUO7ZjGxgYFyXNVI7/AIBq1OIT2hcwmf1anPKc/rXkpfFFPD2bXYtez4AhIZWXUVvQPaHYtNSkKdSfTVxNun6DQ1T2pnOAc1hYcmAyMRWJSRtubhCa0M5OJkooNPJLqeuJwOP9Fsuov8CVknH8MS0tLlChRAu3atYOnpyd+/fVXrF69GsyxkXJ8uRhjd2RQZTN7/7pLmQXMzYVFKfHQCkskdM/w9P6fmL8MaPp9XeSWvqwu0gHje1aA5tQUBM+9alxGoj2OKYOX4lmNIHQoLkXWyu3gNXwEWuaIwPofx2FXjA1KBwWjo6u0GYLcEtaWKnEJS5xpPYtMBZWStUGlRvL4XJVSCDZQQs0S9VFvEEW54Vw0p7E/6tIo7aqG4dF9RCRb+qFSCvEBrLzEguRQq1RMEqzsxNABPaLeRIFyO6NoTmMH1aVLw1VtwKP7ETAVp/lrKsafyIcKttewLzQUoaH7cS9XUTjKNbi8djXLoUblTl1Rw9KYPzXKEm3QvqbVW0t+FE6V0KB5U7jlVcAQkwO+89Zg2pB+CJ66FX9OawA7w32snb1GaACmjj+BfBVscW2fUH8o9t/LhaKOcmgur8XqY4IAM9YXIzJYMZtO3R4ZE5ZKSpQxWQmqEM5LMhKL87NGYOlNPWRKNczk6ekzo+1htqlSGvWSPDyLKUlIVUqJ6bZHSBJsOJtM7Ida7EcM9o4Lxuq4BujSpjArT0AOhybj8GNDc9xaOhg/H8ro4bUGvLxwEff0MtjnzYsU4S/KQqjSwBt1y9qKMjUr4o6GrbxQnGWS5fHCwHF90NytDNz8RqJnbSvo7z+BU7/fMK69FyqWr4Me3RojLyJw4bwC5Rs0R1M3Vr4hBjl852HNtCHoFzwVW/+chgZ2BtxfOxtr7qdeKKXBX1PH40S+CrC9tk+0j9D995CrqCPkmstYu/oYYOUK94at4GVsFLwGjkOf5m4o4+aHkT1rw0p/H0+c+uG3ce3hVbE86vTohsZ5gYgLf+Mh02l65cvtSsCDle8plI88aDpxPkYHNoJXox8w0L84FK8v4uz1d629yoztpkRZqAoaeNdFWVvJcDMyFkUJSZlvryK/Exzketw5fx6Rb69w43A4nAxhHOX+hQgB49u2bUvz9eeff+L58+dSTuDFixfij0laeYX05IHnT548STOf8BK2DH7z5o2UEwgPD8eOHTvSzLtnzx4pF/vZ0etx9erVNPMJr9OnT6c43f7SpUtp5hNewtkrJhISEnD27Nk08wmvixcvQqdL+lk7ePBgmvmE17Vr16RcbMoTG4tDhw5l6dR9uVyO4sWLo379+mjSpInY71mzZon6+nKRw95emOgT4l4lXy+eBhTD5EPsK7ng4GCcnlFUJF6RA5ycku/ApoBr/XoorozDqdBdiGA/5PGnNmDbTYJDoYIwl3KJ2NVG/W8tmXOxBzv/dkZAR08Ic3yD5gnOrRyAcXvs0PynGehZylhfRlBXGY/TkeFY0AS4vX8hRnTpjN/OJIB0CUiQ8giIu4OQFtpksQM6Zq8pUaPK+NOIDF+AJriN/QtHoEvn33AmgaBjNmhEh7D9hxEhOEQx0aLTKrxiretjzKp1bIIZwGSWF1XdXaUJchoonOBWtVDKSW8iMshZU+X2ReEqTd4EGTu364yGOWXQXj4LXdh+HI5QMncsJrH+6Fhr1B+zCuvWTEOA6ERkpC9ZxYAHm4Ix4ak/gipIvVSWSEef/3B70kJ7GBtC7gN5C6BAotPKkNujYf1KUOlv48+d56XE9DDg8eNnMJAMFlZvO6OCHtXMcUpMZw6YitmgwsIKFlKSIJMcOayZvi1gZZ1UgszODjbsbRwbn8T3RoNAUVfJSWconNuhc8OckGkv4+yFVI6ALgz7D0fAaKImG42Fdf0xWLWOOcUBrlJG5qAyD1WmYPUnNQrqHDlgzeq0sLJOar/MDnbGRiE2w+WroGbqkGXLBXs7U8vlyGOfCzKKQ8w7t3z+QFuRsX4ZPdaMjUUnTb+LmWuvjDn9FmwsNTx9hEfcgeFwOFnkX+vACJP8TZs2pfkSnJLkDozwt+BopJV3+/btKRwYIdA2rXzCa+/evWKwuombN29iy5YtaebdtWuXlIv9pBsMCAsLSzOf8Dpx4kSKNly4cCHNfMJLcHZMCM6J4NCklU94CeUkd2D279+fZj7hJbTPhODA7Nu3DyEhIVk+qNLe3l48vV84AFNwKAVH5stFjdJVysNGTki4GYar7+my/kE47kYbILepDI/yZmyCag97cUKtY7Iy5jGhLOSEfKxMes0cHPZDrou4j0fMN0iITz3ZsECB/LkgN7xGZKTkPBie4I8pgzB0+gFQxQaoXbEgUodDG26sQf92bcRzedq0CUCPZWFIcj0MeHn6N3Sp0xTDDmaH78T56F459c5qSjiWKgl72TUs/KE1Ovfois5BQRi45lqyciQML3H6ty6o03QYDmb3xcT53ZGyOD2eP3vJJulWKNbcD35+KV++3lWlfB8Z8+IoXpA5Agnx0D9/hpcGDayKNX+rfj9fb1R1lFyjdPuSHDaRTZytvg9C9IlJGLCzEn4aU0OcaKfgffrMVHsySjrtYeivrUSfAGY77cYgRDRM5simmIvKYVuwAOxkhDcvX0pp6aOXTmUXbtykSYq2ZEi4EkwX7F9xLYL4Pi3MUbx4QebaJuCty0z/HM9eGqCxKobmqe3DzxfeVR2ljJlslalRuoyXn1YFcsEhE3h35z7YVkzVZmosEshEe2XZshmf7LHfng91wTkczn+Xf60DY2Njg9KlS6f5KlasmLicyYRpaVNaeYV0hSLpnq+1tXWa+YRX0aJFxcMcTeTMmROlSpVKM6+rq+lum/ADJxMn9GnlE15OTk4pzk/JmzdvmvmEV/78+aVcwg+IHI6OjmnmE15COUIeE0WKFEkzn/AS2mdCpVKJeYUnKVk910V4ciM4W8Ihl8IZMba2ttInXya2jTugZX4F9Ld2I/TKuxZjGPBk3wFc1ClRyL8rmuVgSYoiqFw+DxT6ewgPT/VzbSD2DRnMCxaB8HBG4eCAXHI9HoZdYRNtKY+IMElmv/jKwnBxMS3nyIOGw5dh58mjmFQgFH3r1UC3HSkPDJW7tMa0FavFZXqrV6/Er+2ZLUufRf/1I+o2mAzND6uxYpQfyuZMsvHk5PBdgsvXj2PjlD74vtsQTJ67ADMCSiaWYyQaf/1YFw0ma/DD6hUY5VcWbxengG2O7MDTPdiyL8nJN2JA5JVL0t+fBoVTYShscyA7nmLPln14qwWRV3DpnjAhy0hfTDCHNoHYNZDG7C0V+ocbMGBqPHpNDUTRtC6Zd+ozM+3JOOm2h6EoFoCZK5ntLB+Kernl0N0NQ1iaqz0VKOjiIv2dHnLkzCFc64S4mOj3zsU/KQonFC6cquMKWxhNdAveNtFIXLl0T3qTRT51+R/RVjI1FmUWrdbouNjaIUf6lw6Hw+GkjRQL89ERiv6ExXO+ADIbxC8g7Ej29OlT+uOPP2j48OE0ZMgQunXrlvTpP0vmbFRPEWvaUgGVgvK1WkUP0gpafnOA+pcyIzPX72nr46QMcft7i0HLrn3+SrEBgPbIAHJVOVCbdc+NgfQx+6hnUSE4uC7NuZ0UiE30nBY1tSJzt/F0MXUEOyNuY1uykyuoYPe9xgTtYervqiSVxy90K7EY4+4/akUB6rbnNYV+70gKtRfNSNwdKZpWtrQimUULWvneXQqIXi5oSGZye+qwVQpel4K+1V4zKKm4ldTSSkYWLVYm9jnmzx+ooEJGapd2tOKaaQMAIl3EZuoRNEt6Z+LtIP73oj1CA4uxPlcYReLmbyYi11CrnGoqM+yU0AD6oaCCZGoXarfiGiW2QBdBm3sE0SwhYj2DfTGiof19G9GPR6X2SUH8Stf+JGwIJaA93J9clTIyd+1Aq++YIuIf0pzaalIU6EZ7TPHXyUihzwy3R0uH+7uSUuVBvyQpnVU1h2qrFVSg224xiDxD7dH+Rb2LKMUd94yx4JG0ub1xR7gWyx4ZbVVET/dmepGZFbOjm0l1pocmJIjyydMI4hfRSLZZm+YIW2HFLCfvbHLKEbApSV+p80hoT/xIpZQqqjj2EiWwko8MLMbkYdoN0EQkrWmVk9RlhtEpMTl5EH8M/flDQVLI1OTSbgUlmaiOIjb3oKBZN6T3MbTcOxvJcwTQpqRGMVV9T44KNdWeY9rJj6E9QT+WYnZZcSxdSshg+fon9L96TB/5u9CuRPtg488sL4l/YX4AAAp3SURBVHb9Fqae+4RE0/Wcn7qYMmXUVkz6TlE+w/R9IYg/KhNjUYbam0TCySFUWiUn+8CtyXTK4XD+q2TVX/jXPoHhfHkIy9UePHggxs4sWbIEhQoVwk8//QRnZ2cpx5eMHI7+87Fjrj+sQnrAZ9AW3EoWDKO5HYIR3m2wWBWIpTtno1mepEsrW43BGN/aEbcX9sXQ0EfG5Ve6e9g4ZzN0vlMxsaW0Rt+iJoZP7QQX7T5M6LMAl41L+RF1cg4WnimJAVN6w/XaWkyeE4Lrpjvh+ocI2XoUb5ATld1LGtMoClExbDyIj088l0EYH95ExbARIgHxGjly5baDPOEY5g2bh9AD2zE3uDvmCwfXJNzAvgWTMXl9uPS91BgQFR3HyhE2KZBuzSpyIbedHAnH5mHYvFAc2D4Xwd3ni+fgJNzYhwWTJ2N9uB4WtYIxunk+GG6uRPvK38DLryM6tm2ACu7jYdEu0FhWIoQo1l5hM4TMhFnpru/GtovC9wSicXLGDOx16IJJ/Sow+dZC8OjmyGe4iZXtK+MbLz907NgWDSq4Y7xFOwQWVWSoL2sPLUNnz6YY/PsyrDhqjuJFpTvRFINopjNK0CJeGI6FpKgoxJASJdoMgK+wlE1MfCPqhxLiEXU5HX1mULYmeRF0SBHukKBj9kaIjRE+S7894sGGFIs49gfFm/phi6ajf0KLfG+wY2Q/rLolWdXro/h12VVUGToZ3xfJ+K1+s6qeqGpjwMPbtxEnpSVB4tNZ0b6EVbOaONYmQgJ7k7RgifVSJ/Qq1bJMvdBXZjHsO4normP3totItIiTMzBjrwO6TOoHY9iPAXFxzMBIw/7PhlrBo9E8nwE3V7ZH5W+84NexI9o2qAD38RZoF1hULEMI9hflIyypS2oUiI1veiYvXcpGgTVVaBTrq0XGyqdoRIv6YNeqZEdCn+PjdUwuQjuFRDmsc+aAueEJjm7egNAVozB+MyFXRmxFbo2cOcxheHIUmzeEYsWo8Vj/kF3LrGyNpHdtBsai0qYHWBlqbxLaO+GI0Fuhas2qyOIzHA6Hw2HDzCdCKPoTFs/5AsjMOTBsUkI3b96k4OBg8vPzoytXrkiffj6yaqNvwjbTxO8bk3vlalSrbl2qW6sauVX3ph7T/6Tb77qlGHOV1g5uRuUKFqTSNRpQk0ZNqP3Y7RSe8uYkI4Hu7ppAAe5FycnVjeo1b0ZNW/WjBSdekPGmqp4izy2nIYG+1KJZffIokZ/yutagjjOP0HOWQRexn+b2rUWOCpDMvDj5jFhOJ1+8orOrRlLLYtlIBgU51OxJ09cupRH1XcjWyo4KuQXQ1IMPKezXRuRg7UjVeq2jW2k86SHdbfrz15HU+hsrsRx7jx/olx03SMfa9GjXCKrvYktWdoXILWAqHXwYRr82ciBrx2rUa92tpK2PY8JobXAzKpvPilRqa3Ks6EtjQiPELVkTEeqZFUyNCgvnmqioUMMBNHHuLgp/301+6QmM0rUxBfo2pKY+rci3iRfVbjOOQu8l70wMha0NpmZl85GVSs3aV5F8x4RSRGLZ6fdFe3cJtSpgSea5SpPf7NPine1Xf6+jaUO9yUU4a0TpRPUG/krr1s2hvrUcSQEZmbn60MRddyjhzVlaNbIlFcsmIyjyklfvGbR559J36jMj7UnQRdD+uX2plqOCILOgwjVakn/r1tSavVp6uZCVHKTI60mdevdOtz2eHXtS7861mf2wfliWolajVtFp6cyUuGsbaVjLSlTYyZXcG7SgFi3a05AV55KdsZNRXtL6tnlI5dKXDiZ/BKO7RaHTu1N1e2Ebcksq1Yj1oWlZsmHtl+dypy4T19G5F5do08/dqHoeoa9WVNp/JC06/IBu7ppB/esVEM+4UTs3oR8X/UU7BxQjpdKVGjPZNmzqQ618m5BX7TY0LvSe0R51d2nv7O7kkVuoz4JK+o2kpceeMxNdS8HNylI+KxWp2fVQ0XcMhZoMRHuZNo1vTxWEgDh5LnLvMpHWnXtBlzb9TN2q5xFla1Xan0YuOkwPbu6iGf3rUQHhTCa1MzX5cREdZUp9b/lR52jdmFZU0lzQhwN59pxMmy/epUOLRlGrkhbidZfXqw/N2XOXKPIAja5bhOyyO1H1Phvpji7j12HkgdFUt4gdZXeqTn023iHtrVCa3r062TNZyyy/oTZj1tH56PTGIkZm2iuSQCeHlCJV7la0KuUhQBwO5z9KVudiMuEf9sWPjrhOlvGJiud8ATx9+lQ8XX/Dhg1SStoIwbpCoP7PP/8sBu737dtXjCsy2cjngtvov4j4oxhUpiZm2o7FhSNDxK13OYAhPhrP7pzDnsWjMHhFYUTcXyh98nmJPzMK7p5b0fDgaYwr/44gnA8iHkcHlUHNmbYYe+EIhnCD+DLQX8EE96pYX2c3TkxwM27bzeFw/tNkdS7Gl5BxPinCttKTJ08Wl4yNHz8eXbp0EQP/P7fzwuH8F5CrrZDH1QMBE1bhZ3FXiS8DdcVBmNFTifVzdiLl1hOcfzMxhxdgXXxXzPqROy8cDufD4A4M55MgPHURdhkLDg4WnZXRo0ejYsWK4u5wHM7HxyDGH5jiIDipkOdG3Q4+0psvASt4jFmJQbEzMWTrY6a9j4/BaBDGGBTO5+f1YUya9gjdVoxHDWspjcPhcLIId2A4H52YmBisXLkSy5Ytg5ubG7y9vcXtqC0skp36xuF8LAxavLh8FOcf66G/ewp/XX0F0/4CHBNy5KniJv39haAuhqClC1D/3M/4adu7No3ICgZoX1zG0fOPodffxam/ruIVN4jPSvz9vZj5835888sS/FCKP3vhcDgfDo+B4WSZ1DEwwlOXGzduiId/xsXFiWfgVK9eHblz5/4il4xxG/13EHNpG1YeepD05EVmBpd6HVDHmcc9fB3o8eLmbeQsatrl6wOJuYRtKw/hQZJBwMylHjrUcU51fhHnn8GAZzfDIS9c9KOcYcThcP5dZHUuxh0YTpZJ7sAIW58eOnQIp06dErdLrlmzJqpVq5blgy7/CbiNcjgcDofD4Xw+sjoX40vIOB+EwWAQz3bZuXMnDh48KDosgYGB4pOXL9l54XA4HA6Hw+F8nXAHhvNBvHr1SnReQkJCUL58efTv3x8FChSAXM5Ni8PhcDgcDofz8eGzTE6WEc5yef36Nc6cOSPuNtaiRQv+1IXD4XA4HA6H80nhMTCcD2LPnj1ivItKpZJSvh64jXI4HA6Hw+F8PrI6F/vkDgyHw+FwOBwOh8PhvIvMuiN8CRmHw+FwOBwOh8P5avhkT2A4HA6Hw+FwOBwO52PDn8BwOBwOh8PhcDicrwbuwHA4HA6Hw+FwOJyvBu7AcDgcDofD4XA4nK8G7sBwOBwOh8PhcDicrwbuwHA4HA6Hw+FwOJyvBu7AcDgcDofD4XA4nK8G7sBwOBwOh8PhcDicrwbuwHA4HA6Hw+FwOJyvBu7AcDgcDofD4XA4nK8G7sBwOBwOh8PhcDicrwbuwHA4HA6Hw+FwOJyvBu7AcDgcDofD4XA4nK8G7sBwOBwOh8PhcDicrwbuwHA4HA6Hw+FwOJyvBOD/d5H4wotBhIMAAAAASUVORK5CYII=;" parent="WIyWlLk6GJQsqaUBKTNV-1" vertex="1">
          <mxGeometry x="490" y="-70" width="816" height="311" as="geometry" />
        </mxCell>
        <mxCell id="kVbHLeKUGpBIgifRPEEt-2" value="User" style="swimlane;fontStyle=2;align=center;verticalAlign=top;childLayout=stackLayout;horizontal=1;startSize=26;horizontalStack=0;resizeParent=1;resizeLast=0;collapsible=1;marginBottom=0;rounded=0;shadow=0;strokeWidth=1;" vertex="1" parent="WIyWlLk6GJQsqaUBKTNV-1">
          <mxGeometry x="-360" y="-10" width="190" height="276" as="geometry">
            <mxRectangle x="230" y="140" width="160" height="26" as="alternateBounds" />
          </mxGeometry>
        </mxCell>
        <mxCell id="kVbHLeKUGpBIgifRPEEt-3" value="#userID: int" style="text;align=left;verticalAlign=top;spacingLeft=4;spacingRight=4;overflow=hidden;rotatable=0;points=[[0,0.5],[1,0.5]];portConstraint=eastwest;" vertex="1" parent="kVbHLeKUGpBIgifRPEEt-2">
          <mxGeometry y="26" width="190" height="26" as="geometry" />
        </mxCell>
        <mxCell id="kVbHLeKUGpBIgifRPEEt-4" value="-fullName: String" style="text;align=left;verticalAlign=top;spacingLeft=4;spacingRight=4;overflow=hidden;rotatable=0;points=[[0,0.5],[1,0.5]];portConstraint=eastwest;" vertex="1" parent="kVbHLeKUGpBIgifRPEEt-2">
          <mxGeometry y="52" width="190" height="26" as="geometry" />
        </mxCell>
        <mxCell id="kVbHLeKUGpBIgifRPEEt-5" value="+email: String" style="text;align=left;verticalAlign=top;spacingLeft=4;spacingRight=4;overflow=hidden;rotatable=0;points=[[0,0.5],[1,0.5]];portConstraint=eastwest;" vertex="1" parent="kVbHLeKUGpBIgifRPEEt-2">
          <mxGeometry y="78" width="190" height="26" as="geometry" />
        </mxCell>
        <mxCell id="kVbHLeKUGpBIgifRPEEt-6" value="-phoneNumber: String" style="text;align=left;verticalAlign=top;spacingLeft=4;spacingRight=4;overflow=hidden;rotatable=0;points=[[0,0.5],[1,0.5]];portConstraint=eastwest;" vertex="1" parent="kVbHLeKUGpBIgifRPEEt-2">
          <mxGeometry y="104" width="190" height="26" as="geometry" />
        </mxCell>
        <mxCell id="kVbHLeKUGpBIgifRPEEt-9" value="-password: String" style="text;align=left;verticalAlign=top;spacingLeft=4;spacingRight=4;overflow=hidden;rotatable=0;points=[[0,0.5],[1,0.5]];portConstraint=eastwest;" vertex="1" parent="kVbHLeKUGpBIgifRPEEt-2">
          <mxGeometry y="130" width="190" height="26" as="geometry" />
        </mxCell>
        <mxCell id="kVbHLeKUGpBIgifRPEEt-7" value="" style="line;html=1;strokeWidth=1;align=left;verticalAlign=middle;spacingTop=-1;spacingLeft=3;spacingRight=3;rotatable=0;labelPosition=right;points=[];portConstraint=eastwest;" vertex="1" parent="kVbHLeKUGpBIgifRPEEt-2">
          <mxGeometry y="156" width="190" height="8" as="geometry" />
        </mxCell>
        <mxCell id="kVbHLeKUGpBIgifRPEEt-8" value="+editAccount()" style="text;align=left;verticalAlign=top;spacingLeft=4;spacingRight=4;overflow=hidden;rotatable=0;points=[[0,0.5],[1,0.5]];portConstraint=eastwest;" vertex="1" parent="kVbHLeKUGpBIgifRPEEt-2">
          <mxGeometry y="164" width="190" height="28" as="geometry" />
        </mxCell>
        <mxCell id="kVbHLeKUGpBIgifRPEEt-21" value="+login()" style="text;align=left;verticalAlign=top;spacingLeft=4;spacingRight=4;overflow=hidden;rotatable=0;points=[[0,0.5],[1,0.5]];portConstraint=eastwest;" vertex="1" parent="kVbHLeKUGpBIgifRPEEt-2">
          <mxGeometry y="192" width="190" height="28" as="geometry" />
        </mxCell>
        <mxCell id="kVbHLeKUGpBIgifRPEEt-22" value="+logout()" style="text;align=left;verticalAlign=top;spacingLeft=4;spacingRight=4;overflow=hidden;rotatable=0;points=[[0,0.5],[1,0.5]];portConstraint=eastwest;" vertex="1" parent="kVbHLeKUGpBIgifRPEEt-2">
          <mxGeometry y="220" width="190" height="28" as="geometry" />
        </mxCell>
        <mxCell id="kVbHLeKUGpBIgifRPEEt-10" value="+verifyPassword()" style="text;align=left;verticalAlign=top;spacingLeft=4;spacingRight=4;overflow=hidden;rotatable=0;points=[[0,0.5],[1,0.5]];portConstraint=eastwest;" vertex="1" parent="kVbHLeKUGpBIgifRPEEt-2">
          <mxGeometry y="248" width="190" height="28" as="geometry" />
        </mxCell>
      </root>
    </mxGraphModel>
  </diagram>
</mxfile>
